<svg width="131" height="23" viewBox="0 0 131 23" fill="none" xmlns="http://www.w3.org/2000/svg">
<path d="M2 2V0.5H0.5V2H2ZM0.5 21C0.5 21.8284 1.17157 22.5 2 22.5C2.82843 22.5 3.5 21.8284 3.5 21H0.5ZM12.7335 3.5C13.5619 3.5 14.2335 2.82843 14.2335 2C14.2335 1.17157 13.5619 0.5 12.7335 0.5V3.5ZM9.0615 13C9.88993 13 10.5615 12.3284 10.5615 11.5C10.5615 10.6716 9.88993 10 9.0615 10V13ZM23.0125 0.5C22.1841 0.5 21.5125 1.17157 21.5125 2C21.5125 2.82843 22.1841 3.5 23.0125 3.5V0.5ZM30.9214 2V3.5H30.9214L30.9214 2ZM30.9214 14.7612V16.2612H30.9556L30.9898 16.2596L30.9214 14.7612ZM23.0125 14.7612V13.2612H21.5125V14.7612H23.0125ZM21.5125 21C21.5125 21.8284 22.1841 22.5 23.0125 22.5C23.841 22.5 24.5125 21.8284 24.5125 21H21.5125ZM32.3337 14.5129L31.9428 13.0648L32.3337 14.5129ZM35.9299 21.8924C36.4228 22.5583 37.3621 22.6985 38.028 22.2056C38.6938 21.7128 38.8341 20.7734 38.3412 20.1076L35.9299 21.8924ZM44.812 20.3722C44.4652 21.1246 44.7941 22.0156 45.5464 22.3623C46.2988 22.709 47.1898 22.3802 47.5366 21.6278L44.812 20.3722ZM54.9305 2L56.2851 1.35562C56.035 0.829989 55.5034 0.496479 54.9214 0.500028C54.3393 0.503576 53.8119 0.843542 53.5682 1.37218L54.9305 2ZM62.6147 21.6444C62.9706 22.3925 63.8655 22.7104 64.6136 22.3545C65.3617 21.9987 65.6797 21.1037 65.3238 20.3556L62.6147 21.6444ZM71.8358 1.38903C71.4983 0.632434 70.6115 0.292637 69.8549 0.630069C69.0983 0.967501 68.7585 1.85438 69.0959 2.61097L71.8358 1.38903ZM78.9396 21L77.5697 21.611C77.8109 22.1517 78.3476 22.5 78.9396 22.5C79.5317 22.5 80.0684 22.1517 80.3096 21.611L78.9396 21ZM88.7834 2.61098C89.1208 1.85438 88.781 0.967502 88.0244 0.63007C87.2678 0.292637 86.3809 0.632433 86.0435 1.38902L88.7834 2.61098ZM97.8645 2V0.5H96.3645V2H97.8645ZM97.8645 21H96.3645V22.5H97.8645V21ZM108.598 3.5C109.426 3.5 110.098 2.82843 110.098 2C110.098 1.17157 109.426 0.5 108.598 0.5V3.5ZM104.926 13C105.754 13 106.426 12.3284 106.426 11.5C106.426 10.6716 105.754 10 104.926 10V13ZM108.598 22.5C109.426 22.5 110.098 21.8284 110.098 21C110.098 20.1716 109.426 19.5 108.598 19.5V22.5ZM120.267 2C120.267 1.17157 119.595 0.5 118.767 0.5C117.938 0.5 117.267 1.17157 117.267 2H120.267ZM118.767 21H117.267V22.5H118.767V21ZM129.5 22.5C130.328 22.5 131 21.8284 131 21C131 20.1716 130.328 19.5 129.5 19.5V22.5ZM12.7335 0.5H2V3.5H12.7335V0.5ZM0.5 2V11.5H3.5V2H0.5ZM0.5 11.5V21H3.5V11.5H0.5ZM2 13H9.0615V10H2V13ZM23.0125 3.5H30.9214V0.5H23.0125V3.5ZM30.9214 2C30.9214 3.5 30.9207 3.5 30.92 3.5C30.9198 3.5 30.9192 3.5 30.9188 3.5C30.918 3.5 30.9172 3.49999 30.9166 3.49999C30.9154 3.49999 30.9145 3.49998 30.914 3.49998C30.9129 3.49997 30.9133 3.49997 30.915 3.49999C30.9184 3.50005 30.9272 3.50022 30.941 3.50068C30.9688 3.50161 31.0165 3.5037 31.0811 3.50834C31.211 3.51766 31.4064 3.53702 31.6448 3.57691C32.1287 3.65789 32.7512 3.81704 33.3555 4.12042C33.9539 4.42079 34.5075 4.84808 34.915 5.46176C35.3164 6.06634 35.6355 6.94036 35.6355 8.23881H38.6355C38.6355 6.41784 38.1779 4.95231 37.4142 3.80223C36.6565 2.66124 35.6566 1.91876 34.7014 1.43927C33.7523 0.962802 32.8211 0.732036 32.1399 0.618048C31.7958 0.560462 31.5057 0.531083 31.2957 0.516027C31.1905 0.508481 31.1046 0.50448 31.0414 0.502362C31.0097 0.501303 30.9836 0.500713 30.9635 0.500387C30.9535 0.500224 30.9449 0.500127 30.9379 0.500071C30.9344 0.500043 30.9312 0.500026 30.9285 0.500015C30.9271 0.500009 30.9258 0.500006 30.9247 0.500003C30.9241 0.500002 30.9233 0.500001 30.923 0.500001C30.9222 0.5 30.9214 0.5 30.9214 2ZM30.9214 13.2612H23.0125V16.2612H30.9214V13.2612ZM21.5125 14.7612V21H24.5125V14.7612H21.5125ZM35.6355 8.23881C35.6355 10.0089 35.0432 11.0674 34.3635 11.7445C33.6443 12.4611 32.7173 12.8557 31.9428 13.0648L32.7247 15.9611C33.7838 15.6751 35.2577 15.0885 36.4809 13.8698C37.7438 12.6116 38.6355 10.7805 38.6355 8.23881H35.6355ZM31.9428 13.0648C31.6048 13.156 31.3154 13.2066 31.1162 13.234C31.0171 13.2476 30.9419 13.2552 30.8959 13.2592C30.8729 13.2612 30.8574 13.2623 30.85 13.2628C30.8463 13.2631 30.8447 13.2632 30.8451 13.2631C30.8454 13.2631 30.8461 13.2631 30.8475 13.263C30.8481 13.263 30.8489 13.2629 30.8498 13.2629C30.8503 13.2629 30.8508 13.2629 30.8513 13.2628C30.8516 13.2628 30.8519 13.2628 30.8522 13.2628C30.8523 13.2628 30.8525 13.2628 30.8526 13.2628C30.8528 13.2628 30.853 13.2628 30.9214 14.7612C30.9898 16.2596 30.99 16.2596 30.9903 16.2596C30.9903 16.2596 30.9906 16.2596 30.9907 16.2596C30.9911 16.2596 30.9914 16.2596 30.9917 16.2595C30.9924 16.2595 30.9931 16.2595 30.9939 16.2594C30.9954 16.2594 30.997 16.2593 30.9988 16.2592C31.0024 16.259 31.0066 16.2588 31.0114 16.2585C31.021 16.258 31.0329 16.2573 31.047 16.2564C31.0752 16.2545 31.1124 16.2518 31.1578 16.2478C31.2486 16.2398 31.3728 16.2269 31.5243 16.2061C31.8264 16.1646 32.2432 16.0911 32.7247 15.9611L31.9428 13.0648ZM31.1281 15.4053L35.9299 21.8924L38.3412 20.1076L33.5394 13.6205L31.1281 15.4053ZM47.5366 21.6278L56.2928 2.62782L53.5682 1.37218L44.812 20.3722L47.5366 21.6278ZM53.576 2.64438L62.6147 21.6444L65.3238 20.3556L56.2851 1.35562L53.576 2.64438ZM69.0959 2.61097L77.5697 21.611L80.3096 20.389L71.8358 1.38903L69.0959 2.61097ZM80.3096 21.611L88.7834 2.61098L86.0435 1.38902L77.5697 20.389L80.3096 21.611ZM108.598 0.5H97.8645V3.5H108.598V0.5ZM96.3645 2V11.5H99.3645V2H96.3645ZM96.3645 11.5V21H99.3645V11.5H96.3645ZM97.8645 13H104.926V10H97.8645V13ZM97.8645 22.5H108.598V19.5H97.8645V22.5ZM117.267 2V21H120.267V2H117.267ZM118.767 22.5H129.5V19.5H118.767V22.5Z" fill="white"/>
</svg>
