<?xml version="1.0" encoding="utf-8"?>
<!-- Generator: Adobe Illustrator 26.3.1, SVG Export Plug-In . SVG Version: 6.00 Build 0)  -->
<svg version="1.1" id="Layer_1" xmlns="http://www.w3.org/2000/svg" xmlns:xlink="http://www.w3.org/1999/xlink" x="0px" y="0px"
	 viewBox="0 0 24 24" style="enable-background:new 0 0 24 24;" xml:space="preserve">
<g>
	<path d="M20.8,17.5l-5-1.2c-0.6-0.1-1.1-0.6-1.1-1.3V14c-1,0.4-1.9,0.6-2.9,0.6c-1,0-1.9-0.2-2.8-0.6v1c0,0.6-0.4,1.2-1.1,1.3
		l-4.9,1.3c-1.9,0.4-2.7,2.2-2.9,3.3c-0.1,0.5-0.2,1.7-0.2,3.2h23.8c0-1.5-0.1-2.7-0.2-3.2C23.5,19.8,22.8,17.9,20.8,17.5z"/>
	<path d="M14.8,4c-0.1,0.2-0.2,0.4-0.4,0.5c-0.7,0.5-2,0.6-3.7,0.3C9.1,4.6,8,5,7.1,6.2C6.6,6.9,6.4,7.7,6.3,8
		c0,3.2,2.5,5.8,5.6,5.8c3.1,0,5.6-2.7,5.6-5.8C17.1,5.5,15.5,4.5,14.8,4z M14.2,11c-0.5,0.6-1.4,1-2.2,1.1c-0.8,0-1.7-0.4-2.2-1.1
		c-0.1-0.1-0.1-0.3,0-0.4c0.1-0.1,0.3-0.1,0.4,0c0.5,0.5,1.2,0.8,1.8,0.8c0.7,0,1.4-0.3,1.8-0.8c0.1-0.1,0.3-0.1,0.4,0
		C14.3,10.7,14.3,10.9,14.2,11z"/>
	<path d="M10.8,4c1.8,0.3,2.7,0.1,3.1-0.2c0.3-0.2,0.3-0.4,0.3-0.4c0-0.1,0.1-0.2,0.2-0.3h0.1h0.1c0.1,0.1,2,0.7,3.1,2.9
		c0-1.2-0.3-2.1-0.8-2.8c-0.8-1.1-2.1-1.1-2.1-1.1c-0.1,0-0.2-0.1-0.3-0.2c-1.1-1.5-2.4-2-3.9-1.8C8.2,0.5,6.2,2.7,5.7,3.3
		c0.3,0.5,0.5,1.4,0.6,2.5C7.1,4.7,8.5,3.6,10.8,4z"/>
</g>
</svg>
