<?xml version="1.0" encoding="utf-8"?>
<!-- Generator: Adobe Illustrator 26.0.2, SVG Export Plug-In . SVG Version: 6.00 Build 0)  -->
<svg version="1.1" id="Layer_1" xmlns="http://www.w3.org/2000/svg" xmlns:xlink="http://www.w3.org/1999/xlink" x="0px" y="0px"
	 viewBox="0 0 24 24" style="enable-background:new 0 0 24 24;" xml:space="preserve">
<style type="text/css">
	.st0{fill:#1B2837;}
</style>
<g>
	<path class="st0" d="M20,18H4c-1.1,0-2-0.9-2-2V7c0-1.1,0.9-2,2-2h16c1.1,0,2,0.9,2,2v9C22,17.1,21.1,18,20,18z M4,6
		C3.4,6,3,6.4,3,7v9c0,0.6,0.4,1,1,1h16c0.6,0,1-0.4,1-1V7c0-0.6-0.4-1-1-1H4z"/>
</g>
<g>
	<path class="st0" d="M8.5,8C8.2,8,8,7.8,8,7.5S8.2,7,8.5,7S9,7.2,9,7.5S8.8,8,8.5,8z M8.5,7.4C8.5,7.4,8.5,7.5,8.5,7.4
		C8.5,7.6,8.5,7.6,8.5,7.4C8.5,7.5,8.5,7.4,8.5,7.4z"/>
</g>
<g>
	<path class="st0" d="M8.5,10C8.2,10,8,9.8,8,9.5S8.2,9,8.5,9S9,9.2,9,9.5S8.8,10,8.5,10z M8.5,9.4C8.5,9.4,8.5,9.5,8.5,9.4
		C8.5,9.6,8.5,9.6,8.5,9.4C8.5,9.5,8.5,9.4,8.5,9.4z"/>
</g>
<g>
	<path class="st0" d="M8.5,12C8.2,12,8,11.8,8,11.5S8.2,11,8.5,11S9,11.2,9,11.5S8.8,12,8.5,12z M8.5,11.4
		C8.5,11.4,8.5,11.5,8.5,11.4C8.5,11.6,8.5,11.6,8.5,11.4C8.5,11.5,8.5,11.4,8.5,11.4z"/>
</g>
<g>
	<path class="st0" d="M8.5,14C8.2,14,8,13.8,8,13.5C8,13.2,8.2,13,8.5,13S9,13.2,9,13.5C9,13.8,8.8,14,8.5,14z M8.5,13.4
		C8.5,13.4,8.5,13.5,8.5,13.4C8.5,13.6,8.5,13.6,8.5,13.4C8.5,13.5,8.5,13.4,8.5,13.4z"/>
</g>
<g>
	<path class="st0" d="M8.5,16C8.2,16,8,15.8,8,15.5C8,15.2,8.2,15,8.5,15S9,15.2,9,15.5C9,15.8,8.8,16,8.5,16z M8.5,15.4
		C8.5,15.4,8.5,15.5,8.5,15.4C8.5,15.6,8.5,15.6,8.5,15.4C8.5,15.5,8.5,15.4,8.5,15.4z"/>
</g>
</svg>
