<?xml version="1.0" encoding="utf-8"?>
<!-- Generator: Adobe Illustrator 26.5.0, SVG Export Plug-In . SVG Version: 6.00 Build 0)  -->
<svg version="1.1" id="Layer_1" xmlns="http://www.w3.org/2000/svg" xmlns:xlink="http://www.w3.org/1999/xlink" x="0px" y="0px"
	 viewBox="0 0 20 20" style="enable-background:new 0 0 20 20;" xml:space="preserve">
<path d="M0.5,18.1c-0.1,0-0.3-0.1-0.4-0.2C0.1,17.9,0,17.7,0,17.6V6.5h20v11.1c0,0.1-0.1,0.3-0.2,0.4c-0.1,0.1-0.2,0.2-0.4,0.2H0.5z
	 M15.9,13.6c-0.2,0-0.4,0.1-0.6,0.2C15.1,14,15,14.2,15,14.4v1.4c0,0.2,0.1,0.4,0.2,0.6c0.2,0.2,0.4,0.2,0.6,0.2h2.3
	c0.2,0,0.4-0.1,0.6-0.2c0.2-0.2,0.2-0.4,0.2-0.6v-1.4c0-0.2-0.1-0.4-0.2-0.6c-0.2-0.2-0.4-0.2-0.6-0.2H15.9z M9.1,13.6
	c-0.2,0-0.4,0.1-0.6,0.2c-0.2,0.2-0.2,0.4-0.2,0.6v1.4c0,0.2,0.1,0.4,0.2,0.6c0.2,0.2,0.4,0.2,0.6,0.2h2.3c0.2,0,0.4-0.1,0.6-0.2
	c0.2-0.2,0.2-0.4,0.2-0.6v-1.4c0-0.2-0.1-0.4-0.2-0.6c-0.2-0.2-0.4-0.2-0.6-0.2H9.1z M2.3,13.6c-0.2,0-0.4,0.1-0.6,0.2
	c-0.2,0.2-0.2,0.4-0.2,0.6v1.4c0,0.2,0.1,0.4,0.2,0.6c0.2,0.2,0.4,0.2,0.6,0.2h2.3c0.2,0,0.4-0.1,0.6-0.2c0.2-0.2,0.2-0.4,0.2-0.6
	v-1.4c0-0.2-0.1-0.4-0.2-0.6c-0.2-0.2-0.4-0.2-0.6-0.2H2.3z M10.2,7.7c-0.5,0-1,0.2-1.3,0.5C8.6,8.6,8.4,9.1,8.4,9.5s0.2,1,0.5,1.3
	c0.3,0.3,0.8,0.5,1.3,0.5s1-0.2,1.3-0.5c0.3-0.3,0.5-0.8,0.5-1.3c0-0.5-0.2-1-0.5-1.3C11.2,7.9,10.7,7.7,10.2,7.7z M3.5,7.7
	c-0.5,0-1,0.2-1.3,0.5C1.8,8.6,1.6,9.1,1.6,9.5s0.2,1,0.5,1.3c0.3,0.3,0.8,0.5,1.3,0.5c0.5,0,1-0.2,1.3-0.5c0.3-0.3,0.5-0.8,0.5-1.3
	c0-0.5-0.2-1-0.5-1.3C4.4,7.9,4,7.7,3.5,7.7L3.5,7.7z M15.9,8c-0.2,0-0.4,0.1-0.6,0.2C15.1,8.4,15,8.6,15,8.9v1.4
	c0,0.2,0.1,0.4,0.2,0.6c0.2,0.2,0.4,0.2,0.6,0.2h2.3c0.2,0,0.4-0.1,0.6-0.2c0.2-0.2,0.2-0.4,0.2-0.6V8.9c0-0.2-0.1-0.4-0.2-0.6
	C18.6,8.1,18.4,8,18.2,8H15.9z M15.9,15.9c-0.1,0-0.2-0.1-0.2-0.2v-1.4c0-0.1,0.1-0.2,0.2-0.2h2.3c0.1,0,0.2,0.1,0.2,0.2v1.4
	c0,0.1-0.1,0.2-0.2,0.2H15.9z M9.1,15.9c-0.1,0-0.2-0.1-0.2-0.2v-1.4c0-0.1,0.1-0.2,0.2-0.2h2.3c0.1,0,0.2,0.1,0.2,0.2v1.4
	c0,0.1-0.1,0.2-0.2,0.2H9.1z M2.3,15.9c-0.1,0-0.2-0.1-0.2-0.2v-1.4c0-0.1,0.1-0.2,0.2-0.2h2.3c0.1,0,0.2,0.1,0.2,0.2v1.4
	c0,0.1-0.1,0.2-0.2,0.2H2.3z M10.2,10.7c-0.3,0-0.6-0.1-0.8-0.3c-0.2-0.2-0.3-0.5-0.3-0.8c0-0.3,0.1-0.6,0.3-0.8
	c0.2-0.2,0.5-0.3,0.8-0.3c0.3,0,0.6,0.1,0.8,0.3c0.2,0.2,0.3,0.5,0.3,0.8c0,0.3-0.1,0.6-0.3,0.8C10.9,10.6,10.6,10.7,10.2,10.7
	L10.2,10.7z M3.5,10.7c-0.3,0-0.6-0.1-0.8-0.3c-0.2-0.2-0.3-0.5-0.3-0.8s0.1-0.6,0.3-0.8c0.2-0.2,0.5-0.3,0.8-0.3
	c0.3,0,0.6,0.1,0.8,0.3c0.2,0.2,0.3,0.5,0.3,0.8c0,0.3-0.1,0.6-0.3,0.8C4.1,10.6,3.8,10.7,3.5,10.7L3.5,10.7z M15.9,10.4
	c-0.1,0-0.2-0.1-0.2-0.2V8.9c0-0.1,0.1-0.2,0.2-0.2h2.3c0.1,0,0.2,0.1,0.2,0.2v1.4c0,0.1-0.1,0.2-0.2,0.2H15.9z M0,5.8v-2
	c0-0.1,0.1-0.3,0.2-0.4c0.1-0.1,0.2-0.2,0.4-0.2h1.6v0.6h0c0,0.2,0.1,0.4,0.2,0.5c0.1,0.1,0.3,0.2,0.5,0.2H4c0.2,0,0.4-0.1,0.5-0.2
	c0.1-0.1,0.2-0.3,0.2-0.5V3.3h3.9v0.6c0,0.2,0.1,0.4,0.2,0.5C9,4.6,9.2,4.7,9.4,4.7h1.2h0c0.2,0,0.4-0.1,0.5-0.2
	c0.1-0.1,0.2-0.3,0.2-0.5V3.3h3.9v0.6c0,0.2,0.1,0.4,0.2,0.5c0.1,0.1,0.3,0.2,0.5,0.2h1.2h0c0.2,0,0.4-0.1,0.5-0.2
	c0.1-0.1,0.2-0.3,0.2-0.5V3.3h1.6c0.1,0,0.3,0.1,0.4,0.2C19.9,3.5,20,3.7,20,3.8v2L0,5.8z M15.9,1.9l1.3,0V4l-1.3,0L15.9,1.9z
	 M9.3,1.9l1.3,0V4L9.3,4L9.3,1.9z M2.8,1.9l1.3,0V4L2.8,4L2.8,1.9z"/>
</svg>
