<?xml version="1.0" encoding="utf-8"?>
<!-- Generator: Adobe Illustrator 27.7.0, SVG Export Plug-In . SVG Version: 6.00 Build 0)  -->
<svg version="1.1" id="Layer_1" xmlns="http://www.w3.org/2000/svg" xmlns:xlink="http://www.w3.org/1999/xlink" x="0px" y="0px"
	 viewBox="0 0 1024 1024" style="enable-background:new 0 0 1024 1024;" xml:space="preserve">
<g id="icomoon-ignore">
</g>
<g>
	<path d="M951.5,292.6h64.9c4,0,7.3-3,7.3-6.6l0,0c0-85.4-76-154.7-169.7-154.7h-13.8v-31.3c0-18.3-15.1-34.8-35.2-35.7
		c-21.4-1-39.1,14.5-39.1,33.8v33.2H549.2V100c0-18.3-15.1-34.8-35.2-35.7c-21.4-1-39.1,14.5-39.1,33.8v33.2H258.2V100
		c0-18.3-15.1-34.8-35.2-35.7c-21.4-1-39.1,14.5-39.1,33.8v33.2h-13.8C76.3,131.4,0.4,200.6,0.4,286l0,0c0,3.6,3.3,6.6,7.3,6.6h64.9
		H951.5z"/>
	<path d="M72.5,347.5H12.8c-6.9,0-12.5,5.1-12.5,11.4V839C0.4,920.7,73.1,987,162.8,987h698.3c89.7,0,162.5-66.3,162.5-148.1V358.9
		c0-6.3-5.6-11.4-12.5-11.4h-59.6H72.5z M777.9,478.5c36.8,0,66.7,27.2,66.7,60.7S814.7,600,777.9,600c-36.8,0-66.7-27.2-66.7-60.7
		S741.2,478.5,777.9,478.5z M777.9,690.1c36.8,0,66.7,27.2,66.7,60.7s-29.9,60.7-66.7,60.7c-36.8,0-66.7-27.2-66.7-60.7
		S741.2,690.1,777.9,690.1z M512,478.5c36.8,0,66.7,27.2,66.7,60.7S548.8,600,512,600s-66.7-27.2-66.7-60.7S475.2,478.5,512,478.5z
		 M512,690.1c36.8,0,66.7,27.2,66.7,60.7s-29.9,60.7-66.7,60.7s-66.7-27.2-66.7-60.7S475.2,690.1,512,690.1z M246.1,478.5
		c36.8,0,66.7,27.2,66.7,60.7S282.8,600,246.1,600s-66.7-27.2-66.7-60.7S209.3,478.5,246.1,478.5z M246.1,690.1
		c36.8,0,66.7,27.2,66.7,60.7s-29.9,60.7-66.7,60.7s-66.7-27.2-66.7-60.7S209.3,690.1,246.1,690.1z"/>
</g>
</svg>
