<?xml version="1.0" encoding="utf-8"?>
<!-- Generator: Adobe Illustrator 26.5.0, SVG Export Plug-In . SVG Version: 6.00 Build 0)  -->
<svg version="1.1" id="Layer_1" xmlns="http://www.w3.org/2000/svg" xmlns:xlink="http://www.w3.org/1999/xlink" x="0px" y="0px"
	 viewBox="0 0 20 20" style="enable-background:new 0 0 20 20;" xml:space="preserve">
<path d="M18.8,3h-1.4V2.5c0-0.2-0.1-0.4-0.2-0.6c-0.1-0.1-0.3-0.2-0.6-0.2h-1.1c-0.2,0-0.4,0.1-0.6,0.2c-0.1,0.1-0.2,0.3-0.2,0.6V3
	h-3.4V2.5c0-0.2-0.1-0.4-0.2-0.6c-0.1-0.1-0.3-0.2-0.6-0.2H9.5C9.3,1.7,9.1,1.8,8.9,2C8.8,2.1,8.7,2.3,8.7,2.5V3H5.2V2.5
	C5.2,2.3,5.2,2.1,5,2C4.9,1.8,4.7,1.7,4.5,1.7H3.4C3.2,1.7,3,1.8,2.8,2C2.7,2.1,2.6,2.3,2.6,2.5V3L1.2,3C0.9,3,0.6,3.2,0.3,3.4
	C0.1,3.6,0,3.9,0,4.2v12.8c0,0.3,0.1,0.6,0.3,0.8c0.2,0.2,0.5,0.3,0.8,0.3h17.6c0.3,0,0.6-0.1,0.8-0.3c0.2-0.2,0.3-0.5,0.3-0.8V4.2
	c0-0.3-0.1-0.6-0.3-0.8C19.4,3.2,19.1,3,18.8,3L18.8,3z M16.6,2.5v0.9v0v0v0.9l-1.1,0V2.5L16.6,2.5z M10.5,2.5v0.9v0v0v0.9l-1.1,0
	V2.5L10.5,2.5z M4.5,2.5v0.9v0v0v0.9l-1.1,0V2.5L4.5,2.5z M1.2,3.8h1.4v0.5c0,0.2,0.1,0.4,0.2,0.6C3,5,3.2,5.1,3.4,5.1h1.1h0
	C4.7,5.1,4.9,5,5,4.9c0.1-0.1,0.2-0.3,0.2-0.6V3.8h3.4v0.5c0,0.2,0.1,0.4,0.2,0.6C9.1,5,9.3,5.1,9.5,5.1h1.1c0.2,0,0.4-0.1,0.6-0.2
	c0.1-0.1,0.2-0.3,0.2-0.6V3.8h3.4v0.5c0,0.2,0.1,0.4,0.2,0.6c0.1,0.1,0.3,0.2,0.6,0.2h1.1h0c0.2,0,0.4-0.1,0.6-0.2
	c0.1-0.1,0.2-0.3,0.2-0.6V3.8h1.4c0.1,0,0.2,0,0.3,0.1c0.1,0.1,0.1,0.2,0.1,0.3V6H0.8V4.2C0.8,4,1,3.8,1.2,3.8L1.2,3.8z M18.8,17.5
	H1.2c-0.2,0-0.4-0.2-0.4-0.4V6.8h18.4v10.2C19.2,17.3,19,17.5,18.8,17.5L18.8,17.5z M17.6,8.1h-2.2c-0.2,0-0.4,0.1-0.6,0.2
	c-0.2,0.2-0.2,0.4-0.2,0.6v1.3c0,0.2,0.1,0.4,0.2,0.6c0.2,0.2,0.4,0.2,0.6,0.2h2.2c0.2,0,0.4-0.1,0.6-0.2c0.2-0.2,0.2-0.4,0.2-0.6
	V8.9c0-0.2-0.1-0.4-0.2-0.6C18.1,8.2,17.8,8.1,17.6,8.1L17.6,8.1z M17.7,10.2C17.7,10.3,17.7,10.3,17.7,10.2l-2.2,0.1
	c0,0-0.1,0-0.1-0.1V8.9c0,0,0-0.1,0.1-0.1h2.2c0,0,0.1,0,0.1,0.1V10.2z M5,13.2H2.8c-0.2,0-0.4,0.1-0.6,0.2C2.1,13.6,2,13.8,2,14.1
	v1.3c0,0.2,0.1,0.4,0.2,0.6c0.2,0.2,0.4,0.2,0.6,0.2H5c0.2,0,0.4-0.1,0.6-0.2c0.2-0.2,0.2-0.4,0.2-0.6v-1.3c0-0.2-0.1-0.4-0.2-0.6
	C5.4,13.3,5.2,13.2,5,13.2L5,13.2z M5.1,15.4L5.1,15.4C5.1,15.4,5,15.4,5.1,15.4l-2.2,0.1c0,0-0.1,0-0.1-0.1v-1.3c0,0,0-0.1,0.1-0.1
	H5c0,0,0.1,0,0.1,0.1L5.1,15.4z M11.3,13.2H9.2c-0.2,0-0.4,0.1-0.6,0.2c-0.2,0.2-0.2,0.4-0.2,0.6v1.3c0,0.2,0.1,0.4,0.2,0.6
	c0.2,0.2,0.4,0.2,0.6,0.2h2.2c0.2,0,0.4-0.1,0.6-0.2c0.2-0.2,0.2-0.4,0.2-0.6v-1.3c0-0.2-0.1-0.4-0.2-0.6
	C11.7,13.3,11.5,13.2,11.3,13.2z M11.4,15.4L11.4,15.4C11.4,15.4,11.3,15.4,11.4,15.4l-2.2,0.1c0,0-0.1,0-0.1-0.1v-1.3
	c0,0,0-0.1,0.1-0.1h2.2c0,0,0.1,0,0.1,0.1V15.4z M17.6,13.2h-2.2c-0.2,0-0.4,0.1-0.6,0.2c-0.2,0.2-0.2,0.4-0.2,0.6v1.3
	c0,0.2,0.1,0.4,0.2,0.6c0.2,0.2,0.4,0.2,0.6,0.2h2.2c0.2,0,0.4-0.1,0.6-0.2c0.2-0.2,0.2-0.4,0.2-0.6v-1.3c0-0.2-0.1-0.4-0.2-0.6
	C18.1,13.3,17.8,13.2,17.6,13.2L17.6,13.2z M17.7,15.4L17.7,15.4C17.7,15.4,17.7,15.4,17.7,15.4l-2.2,0.1c0,0-0.1,0-0.1-0.1v-1.3
	c0,0,0-0.1,0.1-0.1h2.2c0,0,0.1,0,0.1,0.1V15.4z M10.2,11.4L10.2,11.4c0.5,0,0.9-0.2,1.3-0.5c0.3-0.3,0.5-0.8,0.5-1.3
	c0-0.5-0.2-0.9-0.5-1.3c-0.3-0.3-0.8-0.5-1.3-0.5C9.8,7.8,9.3,8,9,8.3C8.6,8.6,8.4,9.1,8.4,9.6c0,0.5,0.2,0.9,0.5,1.3
	C9.3,11.2,9.8,11.4,10.2,11.4L10.2,11.4z M10.2,8.6L10.2,8.6c0.3,0,0.5,0.1,0.7,0.3c0.2,0.2,0.3,0.5,0.3,0.7c0,0.3-0.1,0.5-0.3,0.7
	c-0.2,0.2-0.5,0.3-0.7,0.3c-0.3,0-0.5-0.1-0.7-0.3c-0.2-0.2-0.3-0.5-0.3-0.7c0-0.3,0.1-0.5,0.3-0.7C9.7,8.7,10,8.6,10.2,8.6
	L10.2,8.6z M3.9,11.4c0.5,0,0.9-0.2,1.3-0.5c0.3-0.3,0.5-0.8,0.5-1.3S5.5,8.6,5.2,8.3C4.9,8,4.4,7.8,3.9,7.8C3.4,7.8,3,8,2.6,8.3
	C2.3,8.6,2.1,9.1,2.1,9.6c0,0.5,0.2,0.9,0.5,1.3C3,11.2,3.4,11.4,3.9,11.4L3.9,11.4z M3.9,8.6L3.9,8.6c0.3,0,0.5,0.1,0.7,0.3
	C4.8,9,5,9.3,5,9.6c0,0.3-0.1,0.5-0.3,0.7c-0.2,0.2-0.5,0.3-0.7,0.3c-0.3,0-0.5-0.1-0.7-0.3C3,10.1,2.9,9.9,2.9,9.6
	C2.9,9.3,3,9,3.2,8.9S3.6,8.6,3.9,8.6L3.9,8.6z"/>
</svg>
