<?xml version="1.0" encoding="utf-8"?>
<!-- Generator: Adobe Illustrator 26.3.1, SVG Export Plug-In . SVG Version: 6.00 Build 0)  -->
<svg version="1.1" id="Layer_1" xmlns="http://www.w3.org/2000/svg" xmlns:xlink="http://www.w3.org/1999/xlink" x="0px" y="0px"
	 viewBox="0 0 22 22" style="enable-background:new 0 0 22 22;" xml:space="preserve">
<g>
	<path d="M11,7.8c1.9,0,3.4-2.2,3.4-4.2S13,0.1,11,0.1S7.6,1.5,7.6,3.6C7.6,5.5,9.1,7.8,11,7.8z"/>
	<circle cx="11" cy="11.4" r="0.3"/>
	<circle cx="11" cy="14.1" r="0.3"/>
	<path d="M19.4,11.6c-0.7-1.5-4.4-3.9-5.7-3.9c-0.2,0-0.3,0-0.4,0.1c-0.9,0.5-1.7,0.6-2.3,0.6S9.6,8.3,8.7,7.8
		c-0.1,0-0.2-0.1-0.4-0.1c-1.3,0-4.9,2.4-5.7,3.9c-0.3,0.6-0.1,1,0,1.1c0.2,0.3,0.5,0.4,0.9,0.4c0.6,0,1.3-0.5,2.1-1.1
		c0.4-0.3,0.7-0.5,1.1-0.8c-0.2,1.5-0.6,4.9,0.5,8.4c-0.7,0.2-1.1,0.6-1.2,1.1c0,0.3,0,0.5,0.2,0.7c0.3,0.4,0.9,0.4,2,0.4h1
		c1.3,0,1.3-1.2,1.3-1.8v-2.7c0,0,0-0.2,0.1-0.2c0.1-0.1,0.1-0.1,0.3-0.1c0.1,0,0.2,0,0.3,0.1c0.1,0.1,0.1,0.2,0.1,0.2V20
		c0,0.6,0.1,1.8,1.3,1.8h1c1.1,0,1.7-0.1,2-0.4c0.2-0.2,0.2-0.4,0.2-0.7c-0.1-0.5-0.5-0.9-1.1-1.1c1.1-3.5,0.7-6.9,0.5-8.4
		c0.4,0.2,0.8,0.5,1.1,0.8c0.8,0.6,1.5,1.1,2.1,1.1c0.4,0,0.7-0.2,0.9-0.4C19.5,12.6,19.7,12.2,19.4,11.6z M11,15.2
		c-0.6,0-1.1-0.5-1.1-1.1c0-0.6,0.5-1.1,1.1-1.1s1.1,0.5,1.1,1.1C12.1,14.7,11.6,15.2,11,15.2z M11,12.4c-0.6,0-1.1-0.5-1.1-1.1
		c0-0.6,0.5-1.1,1.1-1.1s1.1,0.5,1.1,1.1C12.1,11.9,11.6,12.4,11,12.4z"/>
</g>
</svg>
