<?xml version="1.0" encoding="utf-8"?>
<!-- Generator: Adobe Illustrator 26.3.1, SVG Export Plug-In . SVG Version: 6.00 Build 0)  -->
<svg version="1.1" id="Layer_1" xmlns="http://www.w3.org/2000/svg" xmlns:xlink="http://www.w3.org/1999/xlink" x="0px" y="0px"
	 viewBox="0 0 22 22" style="enable-background:new 0 0 22 22;" xml:space="preserve">
<g>
	<path d="M11,7.8c1.9,0,3.4-2.2,3.4-4.2c0-2-1.4-3.5-3.4-3.5c-2,0-3.4,1.4-3.4,3.5C7.6,5.5,9.1,7.8,11,7.8z M10.2,1
		c-0.5,1-0.5,1.8,0.1,2.2c0.6,0.4,1.5,0.4,2-0.2c0.2-0.3,0.2-0.6,0.1-0.9c-0.1-0.3-0.5-0.6-0.9-0.6c-0.2,0-0.4,0.1-0.5,0.4
		c0,0.2,0.1,0.4,0.3,0.4c0.1,0,0.2,0.1,0.2,0.1c0,0.1-0.1,0.2-0.2,0.2c-0.2,0.1-0.4,0-0.5-0.1c-0.1-0.1-0.2-0.3-0.2-0.5
		c0-0.4,0.2-0.8,0.5-1.3C12.6,1,13.5,2,13.5,3.5c0,1.6-1.1,3.4-2.5,3.4c-1.5,0-2.5-1.8-2.5-3.4C8.5,2.3,9.1,1.3,10.2,1z"/>
	<path d="M19.4,11.6c-0.7-1.5-4.4-3.9-5.7-3.9c-0.2,0-0.3,0-0.4,0.1c-0.9,0.5-1.7,0.6-2.3,0.6S9.6,8.3,8.7,7.8
		C8.6,7.8,8.5,7.7,8.3,7.7c-1.3,0-4.9,2.4-5.7,3.9c-0.3,0.6-0.1,1,0,1.1c0.2,0.3,0.5,0.4,0.9,0.4c0.6,0,1.3-0.5,2.1-1.1
		c0.4-0.3,0.7-0.5,1.1-0.8c-0.2,1.5-0.6,4.9,0.5,8.4c-0.7,0.2-1.1,0.6-1.2,1.1c0,0.3,0,0.5,0.2,0.7c0.3,0.4,0.9,0.4,2,0.4l1,0
		c1.3,0,1.3-1.2,1.3-1.8v-2.7c0,0,0-0.2,0.1-0.2c0.1-0.1,0.1-0.1,0.3-0.1c0.1,0,0.2,0,0.3,0.1c0.1,0.1,0.1,0.2,0.1,0.2v2.7
		c0,0.6,0.1,1.8,1.3,1.8l1,0c1.1,0,1.7-0.1,2-0.4c0.2-0.2,0.2-0.4,0.2-0.7c-0.1-0.5-0.5-0.9-1.1-1.1c1.1-3.5,0.7-6.9,0.5-8.4
		c0.4,0.2,0.8,0.5,1.1,0.8c0.8,0.6,1.5,1.1,2.1,1.1c0.4,0,0.7-0.2,0.9-0.4C19.5,12.6,19.7,12.2,19.4,11.6z M14.3,10.7
		c0,0,1.1,4.6-0.5,9.3l-0.2,0.5l0.5,0c0,0,0.8,0.1,0.9,0.5c-0.1,0.1-0.6,0.2-1.4,0.2l-1,0c-0.3,0-0.5,0-0.5-1v-2.7
		c0-0.1,0-0.5-0.3-0.8c-0.2-0.2-0.5-0.3-0.9-0.3s-0.7,0.1-0.9,0.3c-0.3,0.3-0.3,0.8-0.3,0.8v2.7c0,1-0.2,1-0.5,1l-1,0
		c-0.3,0-1.3,0-1.4-0.2c0-0.4,0.9-0.5,0.9-0.5l0.5,0L8.2,20c-1.6-4.7-0.5-9.2-0.5-9.3l0.2-0.8l-0.7,0.3c-0.7,0.3-1.4,0.8-2,1.2
		c-0.6,0.4-1.3,0.9-1.6,0.9c-0.1,0-0.2,0-0.2-0.1c0,0,0-0.1,0.1-0.3c0.6-1.3,4.1-3.4,5-3.4c1,0.6,2,0.7,2.7,0.7
		c0.7,0,1.7-0.1,2.7-0.7c0.9,0,4.3,2.1,5,3.4c0.1,0.2,0.1,0.3,0.1,0.3l0,0c-0.1,0.1-0.2,0.1-0.2,0.1c-0.4,0-1-0.5-1.6-0.9
		c-0.6-0.4-1.3-0.9-2-1.2l-0.7-0.3L14.3,10.7z"/>
	<path d="M11,10.2c-0.6,0-1.1,0.5-1.1,1.1s0.5,1.1,1.1,1.1c0.6,0,1.1-0.5,1.1-1.1S11.6,10.2,11,10.2z M11,11.1
		c0.2,0,0.3,0.1,0.3,0.3s-0.1,0.3-0.3,0.3c-0.2,0-0.3-0.1-0.3-0.3S10.8,11.1,11,11.1z"/>
	<path d="M11,13c-0.6,0-1.1,0.5-1.1,1.1c0,0.6,0.5,1.1,1.1,1.1c0.6,0,1.1-0.5,1.1-1.1C12.1,13.5,11.6,13,11,13z M11,13.8
		c0.2,0,0.3,0.1,0.3,0.3c0,0.2-0.1,0.3-0.3,0.3c-0.2,0-0.3-0.1-0.3-0.3C10.7,13.9,10.8,13.8,11,13.8z"/>
</g>
</svg>
