<?xml version="1.0" encoding="utf-8"?>
<!-- Generator: Adobe Illustrator 27.7.0, SVG Export Plug-In . SVG Version: 6.00 Build 0)  -->
<svg version="1.1" id="Layer_1" xmlns="http://www.w3.org/2000/svg" xmlns:xlink="http://www.w3.org/1999/xlink" x="0px" y="0px"
	 viewBox="0 0 1024 1024" style="enable-background:new 0 0 1024 1024;" xml:space="preserve">
<style type="text/css">
	.st0{fill-rule:evenodd;clip-rule:evenodd;}
</style>
<g id="icomoon-ignore">
</g>
<path class="st0" d="M512,0C229.4,0,0,229.4,0,512s229.4,512,512,512s512-229.4,512-512S794.6,0,512,0L512,0z M443.7,274v288.3
	c0,15.3,10.2,28.8,25,32.9l195.5,54.2c18.2,5.1,37-5.6,42-23.8c5.1-18.2-5.6-37-23.8-42L512,536.4V274c0-18.8-15.3-34.1-34.1-34.1
	C459,239.9,443.7,255.2,443.7,274L443.7,274z"/>
</svg>
