<?xml version="1.0" encoding="utf-8"?>
<!-- Generator: Adobe Illustrator 26.0.2, SVG Export Plug-In . SVG Version: 6.00 Build 0)  -->
<svg version="1.1" id="Layer_1" xmlns="http://www.w3.org/2000/svg" xmlns:xlink="http://www.w3.org/1999/xlink" x="0px" y="0px"
	 viewBox="0 0 504.1 476.7" style="enable-background:new 0 0 504.1 476.7;" xml:space="preserve">
<style type="text/css">
	.st0{fill-rule:evenodd;clip-rule:evenodd;}
</style>
<path class="st0" d="M282.1,238.4L475,431.3c8.3,8.3,8.3,21.8,0,30.1s-21.8,8.3-30.1,0L252,268.4L59.1,460.3
	c-8.3,8.3-21.8,8.3-30.1,0s-8.3-21.8,0-30.1L222,238.4L30.1,45.5c-8.3-8.3-8.3-21.8,0-30.1s21.8-8.3,30.1,0L252,208.3L444.9,16.4
	c8.3-8.3,21.8-8.3,30.1,0s8.3,21.8,0,30.1L282.1,238.4z"/>
</svg>
