<?xml version="1.0" encoding="utf-8"?>
<!-- Generator: Adobe Illustrator 26.0.2, SVG Export Plug-In . SVG Version: 6.00 Build 0)  -->
<svg version="1.1" id="Layer_1" xmlns="http://www.w3.org/2000/svg" xmlns:xlink="http://www.w3.org/1999/xlink" x="0px" y="0px"
	 viewBox="0 0 24 24" style="enable-background:new 0 0 24 24;" xml:space="preserve">
<style type="text/css">
	.st0{fill:#1B2837;}
</style>
<g>
	<path class="st0" d="M19,18H5c-1.1,0-2-0.9-2-2V7c0-1.1,0.9-2,2-2h14c1.1,0,2,0.9,2,2v9C21,17.1,20.1,18,19,18z M5,6
		C4.4,6,4,6.4,4,7v9c0,0.6,0.4,1,1,1h14c0.6,0,1-0.4,1-1V7c0-0.6-0.4-1-1-1H5z"/>
</g>
<g>
	<rect x="3" y="14.5" class="st0" width="18" height="1"/>
</g>
<g>
	<path class="st0" d="M13,8.5H6C5.7,8.5,5.5,8.3,5.5,8S5.7,7.5,6,7.5h7c0.3,0,0.5,0.2,0.5,0.5S13.3,8.5,13,8.5z"/>
</g>
<g>
	<path class="st0" d="M8,10.5H6c-0.3,0-0.5-0.2-0.5-0.5S5.7,9.5,6,9.5h2c0.3,0,0.5,0.2,0.5,0.5S8.3,10.5,8,10.5z"/>
</g>
</svg>
