<?xml version="1.0" encoding="utf-8"?>
<!-- Generator: Adobe Illustrator 26.3.1, SVG Export Plug-In . SVG Version: 6.00 Build 0)  -->
<svg version="1.1" id="Layer_1" xmlns="http://www.w3.org/2000/svg" xmlns:xlink="http://www.w3.org/1999/xlink" x="0px" y="0px"
	 viewBox="0 0 22 22" style="enable-background:new 0 0 22 22;" xml:space="preserve">
<g>
	<path d="M6.8,0H3.7C3.1,0,2.6,0.5,2.6,1.2c0,0.1,0,0.2,0,0.3l4.5,15.7C7.3,17.6,7.7,18,8.2,18h8.9c0.5,0,0.9-0.3,1.1-0.7l1.2-2.6
		c0.3-0.6,0-1.3-0.6-1.5l-0.1,0c-0.1,0-0.2-0.1-0.4-0.1l-6.7,0l-1-2.3l4,0c0.9,0,1.6-0.7,1.6-1.6l0-0.1c-0.1-0.8-0.7-1.5-1.6-1.5
		l-5.3,0L9.1,5.8l0.4-1.4c0.1-0.3,0-0.6-0.1-0.9L7.2,0.2C7.1,0.1,7,0,6.8,0L6.8,0z M3.7,0.9l2.9,0l2,3.1c0,0.1,0,0.1,0,0.2L8.2,5.7
		c0,0.1,0,0.1,0,0.2l0.4,2.2c0,0.2,0.2,0.4,0.4,0.4h5.6c0.4,0,0.7,0.3,0.7,0.7S15,9.9,14.7,9.9H10c-0.3,0-0.5,0.3-0.4,0.6l1.3,3.1
		c0.1,0.2,0.2,0.3,0.4,0.3h7c0,0,0.1,0,0.1,0c0.1,0.1,0.2,0.2,0.1,0.4l-1.2,2.6c0,0.1-0.1,0.2-0.2,0.2H8.2C8.1,17.1,8,17,8,16.9
		L3.5,1.2c0,0,0,0,0-0.1C3.4,1,3.6,0.9,3.7,0.9L3.7,0.9z"/>
	<path d="M9.6,17.3c0.1-0.2,0.4-0.3,0.6-0.2c0.2,0.1,0.3,0.3,0.2,0.5l0,0.1l-0.9,1.6l7,0c0.6,0,1.1,0.5,1.1,1.1l0,0.1v0.4
		c0,0.6-0.5,1.1-1.1,1.1l-0.1,0H8.9c-0.2,0-0.4,0-0.6-0.1c-0.5-0.3-0.7-0.9-0.5-1.5l0-0.1L9.6,17.3z M9,20.1l-0.3,0.6
		c-0.1,0.1,0,0.3,0.1,0.4c0,0,0.1,0,0.1,0l0,0h7.5c0.1,0,0.2-0.1,0.3-0.2l0,0v-0.4c0-0.1-0.1-0.2-0.2-0.3l0,0H9.3
		C9.2,20.2,9.1,20.2,9,20.1L9,20.1z"/>
</g>
</svg>
