<?xml version="1.0" encoding="utf-8"?>
<!-- Generator: Adobe Illustrator 26.0.2, SVG Export Plug-In . SVG Version: 6.00 Build 0)  -->
<svg version="1.1" id="Layer_1" xmlns="http://www.w3.org/2000/svg" xmlns:xlink="http://www.w3.org/1999/xlink" x="0px" y="0px"
	 viewBox="0 0 16 16" style="enable-background:new 0 0 16 16;" xml:space="preserve">
<style type="text/css">
	.st0{fill:#FFFFFF;}
</style>
<g>
	<path class="st0" d="M2,15c-0.3,0-0.5-0.1-0.7-0.3C1.1,14.4,1,14.1,1,13.7l0.5-2c0.1-0.3,0.2-0.5,0.4-0.7l9.4-9.4
		c0.6-0.6,1.5-0.6,2.1,0l0.9,0.9c0.6,0.6,0.6,1.5,0,2.1l-9.4,9.4c-0.2,0.2-0.4,0.3-0.7,0.4l-2,0.5C2.2,15,2.1,15,2,15z M12.4,2.2
		c-0.1,0-0.3,0-0.4,0.1l-9.4,9.4c-0.1,0.1-0.1,0.1-0.1,0.2L2,14l2-0.5c0.1,0,0.2-0.1,0.2-0.1L13.6,4c0.2-0.2,0.2-0.5,0-0.7l-0.9-0.9
		C12.6,2.3,12.5,2.2,12.4,2.2z"/>
</g>
<g>
	<rect x="10.7" y="3.2" transform="matrix(0.7072 -0.707 0.707 0.7072 -0.1476 9.3104)" class="st0" width="1" height="3.3"/>
</g>
</svg>
