<?xml version="1.0" encoding="utf-8"?>
<!-- Generator: Adobe Illustrator 26.0.2, SVG Export Plug-In . SVG Version: 6.00 Build 0)  -->
<svg version="1.1" id="Layer_1" xmlns="http://www.w3.org/2000/svg" xmlns:xlink="http://www.w3.org/1999/xlink" x="0px" y="0px"
	 viewBox="0 0 24 24" style="enable-background:new 0 0 24 24;" xml:space="preserve">
<style type="text/css">
	.st0{fill:#1B2837;}
</style>
<g>
	<path class="st0" d="M21,20H3c-1.1,0-2-0.9-2-2V6c0-1.1,0.9-2,2-2h18c1.1,0,2,0.9,2,2v12C23,19.1,22.1,20,21,20z M3,5
		C2.4,5,2,5.4,2,6v12c0,0.6,0.4,1,1,1h18c0.6,0,1-0.4,1-1V6c0-0.6-0.4-1-1-1H3z"/>
</g>
<g>
	<path class="st0" d="M12,13.6L3.7,7.4C3.5,7.2,3.4,6.9,3.6,6.7c0.2-0.2,0.5-0.3,0.7-0.1l7.7,5.8l7.7-5.8c0.2-0.2,0.5-0.1,0.7,0.1
		c0.2,0.2,0.1,0.5-0.1,0.7L12,13.6z"/>
</g>
<g>
	<path class="st0" d="M20,17.5c-0.1,0-0.2,0-0.3-0.1l-5-4c-0.2-0.2-0.2-0.5-0.1-0.7c0.2-0.2,0.5-0.2,0.7-0.1l5,4
		c0.2,0.2,0.2,0.5,0.1,0.7C20.3,17.4,20.1,17.5,20,17.5z"/>
</g>
<g>
	<path class="st0" d="M4,17.5c-0.1,0-0.3-0.1-0.4-0.2c-0.2-0.2-0.1-0.5,0.1-0.7l5-4c0.2-0.2,0.5-0.1,0.7,0.1
		c0.2,0.2,0.1,0.5-0.1,0.7l-5,4C4.2,17.5,4.1,17.5,4,17.5z"/>
</g>
</svg>
