<?xml version="1.0" encoding="utf-8"?>
<!-- Generator: Adobe Illustrator 26.0.2, SVG Export Plug-In . SVG Version: 6.00 Build 0)  -->
<svg version="1.1" id="Layer_1" xmlns="http://www.w3.org/2000/svg" xmlns:xlink="http://www.w3.org/1999/xlink" x="0px" y="0px"
	 viewBox="0 0 22 22" style="enable-background:new 0 0 22 22;" xml:space="preserve">
<style type="text/css">
	.st0{fill:#1B2837;}
</style>
<g>
	<path class="st0" d="M11,21.5c-0.4,0-0.7-0.3-0.9-0.6l-2-6.7c0-0.2-0.2-0.3-0.3-0.3l-6.7-2c-0.4-0.1-0.6-0.5-0.6-0.9
		c0-0.4,0.3-0.8,0.6-0.9l6.7-2C8,8.1,8.1,8,8.2,7.8l2-6.7c0.1-0.4,0.5-0.6,0.9-0.6s0.7,0.3,0.9,0.6l2,6.7c0,0.2,0.2,0.3,0.3,0.3
		l6.7,2c0.4,0.1,0.6,0.5,0.6,0.9c0,0.4-0.3,0.7-0.6,0.9l-6.7,2c-0.2,0-0.3,0.2-0.3,0.3l-2,6.7C11.7,21.2,11.4,21.5,11,21.5z M1.8,11
		l6.3,1.9c0.5,0.1,0.9,0.5,1,1l1.9,6.3l1.9-6.3c0.1-0.5,0.5-0.9,1-1l6.3-1.9l-6.3-1.9c-0.5-0.1-0.9-0.5-1-1L11,1.8L9.1,8.1
		C9,8.6,8.6,9,8.1,9.1L1.8,11z"/>
</g>
<g>
	<path class="st0" d="M4.4,18.3c-0.2,0-0.4-0.1-0.5-0.2c-0.2-0.2-0.3-0.5-0.1-0.8l1.3-3C5.1,14,5.4,13.9,5.7,14
		C6,14.1,6.1,14.4,6,14.7L5,17l2.4-1c0.3-0.1,0.5,0,0.7,0.3c0.1,0.3,0,0.5-0.3,0.7l-3,1.3C4.6,18.3,4.5,18.3,4.4,18.3z"/>
</g>
<g>
	<path class="st0" d="M16.5,8c-0.1,0-0.1,0-0.2,0C16,7.9,15.9,7.6,16,7.3L17,5l-2.4,1c-0.3,0.1-0.5,0-0.7-0.3
		c-0.1-0.3,0-0.5,0.3-0.7l3-1.3c0.3-0.1,0.6-0.1,0.8,0.1c0.2,0.2,0.3,0.5,0.1,0.8l-1.3,3C16.9,7.9,16.7,8,16.5,8z"/>
</g>
<g>
	<path class="st0" d="M17.6,18.3c-0.1,0-0.2,0-0.3-0.1l-3-1.3c-0.3-0.1-0.4-0.4-0.3-0.7c0.1-0.3,0.4-0.4,0.7-0.3l2.4,1l-1-2.4
		c-0.1-0.3,0-0.5,0.3-0.7c0.3-0.1,0.5,0,0.7,0.3l1.3,3c0.1,0.3,0.1,0.6-0.1,0.8C18,18.2,17.8,18.3,17.6,18.3z M17.3,17.7L17.3,17.7
		L17.3,17.7z"/>
</g>
<g>
	<path class="st0" d="M5.5,8C5.3,8,5.1,7.9,5,7.7l-1.3-3C3.6,4.4,3.7,4.1,3.9,3.9s0.5-0.3,0.8-0.1l3,1.3C8,5.1,8.1,5.4,8,5.7
		C7.9,6,7.6,6.1,7.3,6L5,5l1,2.4C6.1,7.6,6,7.9,5.7,8C5.6,8,5.6,8,5.5,8z"/>
</g>
</svg>
