<?xml version="1.0" encoding="utf-8"?>
<!-- Generator: Adobe Illustrator 26.3.1, SVG Export Plug-In . SVG Version: 6.00 Build 0)  -->
<svg version="1.1" id="Layer_1" xmlns="http://www.w3.org/2000/svg" xmlns:xlink="http://www.w3.org/1999/xlink" x="0px" y="0px"
	 viewBox="0 0 20 20" style="enable-background:new 0 0 20 20;" xml:space="preserve">
<g>
	<path d="M18.3,6.4c0,0,0-0.1,0-0.1c0,0,0,0,0-0.1c0,0,0,0,0,0c0,0-0.1-0.1-0.1-0.1c0,0,0,0,0,0c0,0,0,0,0,0c0,0,0,0-0.1,0h-4.4V2.7
		c0-1.5-1.2-2.7-2.7-2.7H9.1C7.7,0,6.5,1.2,6.5,2.7v3.4H2.1c0,0-0.1,0-0.1,0c0,0,0,0,0,0c0,0,0,0,0,0c0,0-0.1,0-0.1,0.1c0,0,0,0,0,0
		c0,0,0,0,0,0.1c0,0,0,0.1,0,0.1c0,0,0,0,0,0v10.8c0,0.2,0.1,0.3,0.3,0.3H4c0,0.1,0,0.2,0,0.4C4,19,4.9,20,6.1,20s2.1-1,2.1-2.1
		c0-0.1,0-0.2,0-0.4h3.5c0,0.1,0,0.2,0,0.4c0,1.2,1,2.1,2.1,2.1c1.2,0,2.1-1,2.1-2.1c0-0.1,0-0.2,0-0.4h1.9c0.2,0,0.3-0.1,0.3-0.3h0
		L18.3,6.4C18.3,6.4,18.3,6.4,18.3,6.4z M9.1,0.6h1.8c1.1,0,2,0.9,2,2v3.4h-1.9l0-3.3c0-0.2-0.1-0.3-0.3-0.3H9.3
		c-0.2,0-0.3,0.1-0.3,0.3v3.3H7.1l0-3.4C7.1,1.5,8,0.6,9.1,0.6z M10.4,3.1v3H9.6v-3H10.4z M17.5,6.7l-1.6,3.9H4.1L2.5,6.7H17.5z
		 M6.1,19.4c-0.8,0-1.5-0.7-1.5-1.5c0-0.1,0-0.2,0-0.4h3c0,0.1,0,0.2,0,0.4C7.6,18.7,7,19.4,6.1,19.4z M13.9,19.4
		c-0.8,0-1.5-0.7-1.5-1.5c0-0.1,0-0.2,0-0.4h3c0,0.1,0,0.2,0,0.4C15.4,18.7,14.7,19.4,13.9,19.4z M15.6,16.9L15.6,16.9H7.8h0H2.4v-9
		L3.6,11c0,0.1,0.2,0.2,0.3,0.2h12.2c0.1,0,0.2-0.1,0.3-0.2l1.3-3.1l0,9H15.6z"/>
	<path d="M8.8,9.7h2.5c0.2,0,0.3-0.1,0.3-0.3V8.3c0-0.2-0.1-0.3-0.3-0.3H8.8C8.6,8,8.5,8.2,8.5,8.3v1.1C8.5,9.6,8.6,9.7,8.8,9.7z
		 M9.1,8.7h1.8v0.4H9.1V8.7z"/>
</g>
</svg>
