<?xml version="1.0" encoding="utf-8"?>
<!-- Generator: Adobe Illustrator 26.3.1, SVG Export Plug-In . SVG Version: 6.00 Build 0)  -->
<svg version="1.1" id="Layer_1" xmlns="http://www.w3.org/2000/svg" xmlns:xlink="http://www.w3.org/1999/xlink" x="0px" y="0px"
	 viewBox="0 0 20 20" style="enable-background:new 0 0 20 20;" xml:space="preserve">
<g>
	<rect x="9" y="8.6" width="1.9" height="0.4"/>
	<rect x="9.5" y="2.7" width="0.9" height="3.2"/>
	<path d="M8.9,2.2C8.9,2,9,1.9,9.2,1.9h1.5C10.9,1.9,11,2,11,2.2v3.5h2V2.1C13,1,12.1,0,10.9,0H9C7.8,0,6.9,1,6.9,2.1v3.6h2V2.2z"/>
	<path d="M4.2,18.4c0,0.9,0.7,1.6,1.6,1.6c1,0,1.6-0.7,1.6-1.6c0-0.2,0-0.3,0-0.4H4.2C4.2,18.2,4.2,18.3,4.2,18.4z"/>
	<path d="M2,6.5l1.7,4.1h12.6l1.7-4.1H2z M11.6,9.4c0,0.2-0.1,0.3-0.3,0.3H8.7c-0.2,0-0.3-0.1-0.3-0.3V8.2c0-0.1,0.1-0.3,0.3-0.3
		h2.7c0.2,0,0.3,0.1,0.3,0.3V9.4z"/>
	<path d="M16.4,11.3h-13c-0.1,0-0.3-0.1-0.3-0.2L1.9,7.8v9.6h5.7h8.3h2.2V7.8l-1.4,3.3C16.6,11.2,16.5,11.3,16.4,11.3z"/>
	<path d="M12.5,18.4c0,0.9,0.7,1.6,1.6,1.6c0.9,0,1.6-0.7,1.6-1.6c0-0.2,0-0.3,0-0.4h-3.2C12.5,18.2,12.5,18.3,12.5,18.4z"/>
</g>
</svg>
