<?xml version="1.0" encoding="utf-8"?>
<!-- Generator: Adobe Illustrator 26.3.1, SVG Export Plug-In . SVG Version: 6.00 Build 0)  -->
<svg version="1.1" id="Layer_1" xmlns="http://www.w3.org/2000/svg" xmlns:xlink="http://www.w3.org/1999/xlink" x="0px" y="0px"
	 viewBox="0 0 20 20" style="enable-background:new 0 0 20 20;" xml:space="preserve">
<g>
	<path d="M6.7,15.1c-0.7,0-1.3,0.3-1.7,0.7c-0.4,0.5-0.7,1.1-0.7,1.7c0,0.6,0.2,1.1,0.7,1.6c0.5,0.5,1.1,0.7,1.7,0.7
		c0.7,0,1.3-0.3,1.7-0.7c0.4-0.5,0.7-1.1,0.7-1.7c0-0.7-0.3-1.3-0.7-1.7C7.8,15.3,7.3,15.1,6.7,15.1z"/>
	<path d="M13.3,15.1c-0.7,0-1.3,0.3-1.7,0.7c-0.5,0.4-0.7,1.1-0.7,1.7c0,0.7,0.3,1.3,0.7,1.7c0.4,0.5,1.1,0.7,1.7,0.7
		c0.7,0,1.3-0.3,1.7-0.7c0.5-0.4,0.7-1.1,0.7-1.7c0-0.7-0.3-1.3-0.7-1.7C14.5,15.3,14,15.1,13.3,15.1z"/>
	<path d="M19.7,4.6c0.3,0,0.4-0.1,0.4-0.4S20,3.8,19.7,3.8h-3.1c-0.1,0-0.2,0-0.3,0.1L14,6.3h-1.6H9.1l-6-5.9C3,0.3,2.7,0.3,2.6,0.4
		L2.1,0.9C0.7,2.2,0,3.9,0,5.8v2.7c0,1.6,0.7,3.2,1.8,4.5c1.1,1.2,2.7,1.8,4.5,1.8h8.5c1.2,0,2.5-0.5,3.4-1.4
		c0.6-0.6,1.1-1.4,1.4-2.2c0.3-0.9,0.5-1.8,0.5-2.6V6.7c0-0.1,0-0.2-0.1-0.3c-0.1-0.1-0.2-0.1-0.3-0.1H15l1.7-1.7H19.7z"/>
	<path d="M8.5,4.6C9.1,4.6,9.6,4.4,10,4c0.4-0.4,0.6-0.9,0.6-1.5S10.3,1.4,10,1C9.5,0.5,9,0.3,8.5,0.3C8,0.3,7.3,0.6,7,0.9
		c-0.4,0.4-0.6,1-0.6,1.5S6.6,3.5,7,3.9C7.3,4.2,7.8,4.5,8.5,4.6z"/>
	<path d="M8.9,5.7c0,0.1,0,0.2,0.1,0.3C9,6,9.1,6,9.2,6l0,0l3,0c0.2,0,0.2,0,0.3-0.1L14,4.4c0.3-0.3,0.5-0.9,0.3-1.3
		c-0.1-0.4-0.5-0.9-1-1c-0.5-0.1-1,0-1.3,0.3l-3,3C9,5.5,9,5.6,8.9,5.7z"/>
</g>
</svg>
