<?xml version="1.0" encoding="utf-8"?>
<!-- Generator: Adobe Illustrator 26.3.1, SVG Export Plug-In . SVG Version: 6.00 Build 0)  -->
<svg version="1.1" id="Layer_1" xmlns="http://www.w3.org/2000/svg" xmlns:xlink="http://www.w3.org/1999/xlink" x="0px" y="0px"
	 viewBox="0 0 20 20" style="enable-background:new 0 0 20 20;" xml:space="preserve">
<g>
	<path d="M6.6,15.1c-0.7,0-1.3,0.3-1.7,0.7c-0.4,0.5-0.7,1.1-0.7,1.7s0.2,1.1,0.7,1.6s1.1,0.7,1.7,0.7c0.7,0,1.3-0.3,1.7-0.7
		C8.7,18.6,9,18,9,17.4c0-0.7-0.3-1.3-0.7-1.7C7.7,15.3,7.2,15.1,6.6,15.1z M8.2,17.4c0,0.4-0.2,0.9-0.5,1.1C7.5,18.8,7,19,6.6,19
		s-0.9-0.2-1.1-0.5C5.2,18.2,5,17.8,5,17.4s0.2-0.9,0.5-1.1c0.3-0.3,0.7-0.5,1.1-0.5s0.9,0.2,1.1,0.5C8,16.6,8.2,17,8.2,17.4z"/>
	<path d="M13.3,15.1c-0.7,0-1.3,0.3-1.7,0.7c-0.5,0.4-0.7,1.1-0.7,1.7c0,0.7,0.3,1.3,0.7,1.7c0.4,0.5,1.1,0.7,1.7,0.7
		c0.7,0,1.3-0.3,1.7-0.7c0.5-0.4,0.7-1.1,0.7-1.7c0-0.7-0.3-1.3-0.7-1.7C14.5,15.3,14,15.1,13.3,15.1z M14.9,17.4
		c0,0.4-0.2,0.9-0.5,1.1C14,18.8,13.6,19,13.3,19c-0.4,0-0.9-0.2-1.1-0.5c-0.3-0.3-0.5-0.7-0.5-1.1s0.2-0.9,0.5-1.1
		c0.3-0.3,0.7-0.5,1.1-0.5c0.4,0,0.9,0.2,1.1,0.5C14.7,16.6,14.9,17,14.9,17.4z"/>
	<path d="M19.6,6.2H15l1.7-1.7h3c0.3,0,0.4-0.1,0.4-0.4S20,3.7,19.7,3.7h-3.1c-0.1,0-0.2,0-0.3,0.1l-2.4,2.5
		c-0.1,0.1-0.1,0.3-0.1,0.4S13.9,7,14.2,7h5.1v1.5c0,1.7-0.6,3.2-1.8,4.2c-0.8,0.8-1.7,1.2-2.8,1.2H6.2c-1.5,0-2.8-0.6-3.9-1.7
		S0.6,9.8,0.6,8.3V5.7c0-1.6,0.6-3.1,1.9-4.3l0.3-0.2l5.7,5.7C8.6,7,8.7,7,8.8,7h3.6c0.3,0,0.4-0.1,0.4-0.4s-0.1-0.4-0.4-0.4H9
		L3,0.3c-0.1-0.1-0.4-0.1-0.5,0L2,0.8c-1.4,1.3-2.1,3-2.1,4.9v2.7c0,1.6,0.7,3.2,1.8,4.5c1.1,1.2,2.7,1.8,4.5,1.8h8.5
		c1.2,0,2.5-0.5,3.4-1.4c0.6-0.6,1.1-1.4,1.4-2.2c0.3-0.9,0.5-1.8,0.5-2.6V6.6c0-0.1,0-0.2-0.1-0.3C19.8,6.2,19.7,6.2,19.6,6.2z"/>
	<path d="M8.4,4.5L8.4,4.5c0.6,0,1.1-0.2,1.5-0.6s0.6-0.9,0.6-1.5s-0.2-1.1-0.6-1.5c-0.5-0.5-1-0.7-1.5-0.7S7.2,0.5,6.9,0.8
		c-0.4,0.4-0.6,1-0.6,1.5s0.2,1.1,0.6,1.5C7.2,4.1,7.7,4.4,8.4,4.5z M7.1,2.3c0-0.4,0.2-0.7,0.4-0.9C7.7,1.1,8.1,1,8.4,1
		c0.4,0,0.7,0.2,0.9,0.4c0.3,0.3,0.4,0.5,0.4,0.9S9.5,3,9.3,3.2C9.1,3.5,8.8,3.6,8.4,3.6C8,3.6,7.7,3.4,7.5,3.2
		C7.2,3,7.1,2.7,7.1,2.3z"/>
	<path d="M8.8,5.6c0,0.1,0,0.2,0.1,0.3C9.1,6,9.3,6,9.5,5.9l3-3c0.2-0.2,0.4-0.3,0.6-0.2c0.3,0.1,0.4,0.3,0.4,0.4l0,0
		c0.1,0.2,0,0.4-0.2,0.6l-1.6,1.7c-0.1,0.1-0.1,0.1-0.1,0.3c0,0.1,0,0.2,0.1,0.3s0.1,0.1,0.3,0.1s0.2,0,0.3-0.1L14,4.3
		C14.3,4,14.5,3.4,14.3,3c-0.1-0.4-0.5-0.9-1-1c-0.5-0.1-1,0-1.3,0.3l-3,3C8.9,5.4,8.9,5.5,8.8,5.6z"/>
</g>
</svg>
