<?xml version="1.0" encoding="utf-8"?>
<!-- Generator: Adobe Illustrator 27.7.0, SVG Export Plug-In . SVG Version: 6.00 Build 0)  -->
<svg version="1.1" id="Layer_1" xmlns="http://www.w3.org/2000/svg" xmlns:xlink="http://www.w3.org/1999/xlink" x="0px" y="0px"
	 viewBox="0 0 1024 1024" style="enable-background:new 0 0 1024 1024;" xml:space="preserve">
<style type="text/css">
	.st0{fill-rule:evenodd;clip-rule:evenodd;}
</style>
<g id="icomoon-ignore">
</g>
<path class="st0" d="M512,0c209.1,0,378.5,169.5,378.5,378.5c0,70.3-19.2,136.1-52.5,192.5l0,0L629.7,953.5h-0.1
	c-22.4,42-66.7,70.5-117.6,70.5s-95.2-28.5-117.6-70.5h-0.1L186,571l0,0c-33.4-56.4-52.5-122.3-52.5-192.5
	C133.5,169.5,302.9,0,512,0z M512,245.1c73.6,0,133.5,59.8,133.5,133.5c0,73.8-59.8,133.5-133.5,133.5s-133.5-59.7-133.5-133.5
	C378.5,304.9,438.4,245.1,512,245.1z"/>
</svg>
