<?xml version="1.0" encoding="utf-8"?>
<!-- Generator: Adobe Illustrator 26.0.2, SVG Export Plug-In . SVG Version: 6.00 Build 0)  -->
<svg version="1.1" id="Layer_1" xmlns="http://www.w3.org/2000/svg" xmlns:xlink="http://www.w3.org/1999/xlink" x="0px" y="0px"
	 viewBox="0 0 24 24" style="enable-background:new 0 0 24 24;" xml:space="preserve">
<style type="text/css">
	.st0{fill:#1B2837;}
</style>
<g>
	<path class="st0" d="M21,12H10c-0.3,0-0.5-0.2-0.5-0.5S9.7,11,10,11h11c0.3,0,0.5,0.2,0.5,0.5S21.3,12,21,12z"/>
</g>
<g>
	<path class="st0" d="M17.5,15.5c-0.1,0-0.3,0-0.4-0.1c-0.2-0.2-0.2-0.5,0-0.7l3.1-3.1l-3.1-3.1c-0.2-0.2-0.2-0.5,0-0.7
		s0.5-0.2,0.7,0l3.5,3.5c0.2,0.2,0.2,0.5,0,0.7l-3.5,3.5C17.8,15.5,17.6,15.5,17.5,15.5z"/>
</g>
<g>
	<path class="st0" d="M10.2,18.5c-3.7,0-6.7-3.1-6.7-7c0-3.9,3-7,6.7-7c1.5,0,2.9,0.5,4.1,1.4c0.2,0.2,0.3,0.5,0.1,0.7
		s-0.5,0.3-0.7,0.1c-1-0.8-2.2-1.2-3.4-1.2c-3.2,0-5.7,2.7-5.7,6s2.6,6,5.7,6c1.3,0,2.4-0.4,3.4-1.2c0.2-0.2,0.5-0.1,0.7,0.1
		c0.2,0.2,0.1,0.5-0.1,0.7C13.1,18,11.7,18.5,10.2,18.5z"/>
</g>
</svg>
