<?xml version="1.0" encoding="utf-8"?>
<!-- Generator: Adobe Illustrator 26.3.1, SVG Export Plug-In . SVG Version: 6.00 Build 0)  -->
<svg version="1.1" id="Layer_1" xmlns="http://www.w3.org/2000/svg" xmlns:xlink="http://www.w3.org/1999/xlink" x="0px" y="0px"
	 viewBox="0 0 20 20" style="enable-background:new 0 0 20 20;" xml:space="preserve">
<g>
	<rect x="7.2" y="9.3" width="1.9" height="0.6"/>
	<path d="M6.2,5.8c-0.9,0-1.8,0.8-1.8,1.8v3.3h7.3V7.6c0-0.7,0.3-1.4,0.8-1.8H6.2z M9.5,9.1v1.2c0,0.1-0.1,0.2-0.2,0.2H6.9
		c-0.1,0-0.2-0.1-0.2-0.2V9.1c0-0.1,0.1-0.3,0.2-0.3h2.4C9.5,8.7,9.6,8.9,9.5,9.1z"/>
	<path d="M7.2,19.2v0.3c0,0.3,0.2,0.5,0.5,0.5c0.3,0,0.5-0.2,0.5-0.5l0-0.3H7.2z"/>
	<path d="M12.8,2.6v2.6H12V2.6c0-1.1-0.8-1.9-1.9-1.9S8.2,1.6,8.2,2.6v2.6H7.5V2.6C7.5,1.2,8.7,0,10.1,0S12.8,1.2,12.8,2.6z"/>
	<path d="M11.5,2.6v2.6H8.8V2.6c0-0.7,0.6-1.4,1.4-1.4S11.5,1.9,11.5,2.6z"/>
	<path d="M12,19.2v0.3c0,0.3,0.1,0.5,0.4,0.5c0.3,0,0.4-0.2,0.4-0.5l0-0.4H12z"/>
	<path d="M14,5.8c-1.1,0-1.8,0.8-1.8,1.8v9.3c0,0.9,0.8,1.8,1.8,1.8c0.9,0,1.8-0.8,1.8-1.8V7.6C15.8,6.6,15,5.8,14,5.8z"/>
	<path d="M11.7,16.8v-5.5H4.4v5.5c0,0.9,0.8,1.8,1.8,1.8h6.3C12,18.2,11.7,17.6,11.7,16.8z"/>
</g>
</svg>
