<?xml version="1.0" encoding="utf-8"?>
<!-- Generator: Adobe Illustrator 26.0.2, SVG Export Plug-In . SVG Version: 6.00 Build 0)  -->
<svg version="1.1" id="Layer_1" xmlns="http://www.w3.org/2000/svg" xmlns:xlink="http://www.w3.org/1999/xlink" x="0px" y="0px"
	 viewBox="0 0 24 24" style="enable-background:new 0 0 24 24;" xml:space="preserve">
<style type="text/css">
	.st0{fill:#1B2837;}
</style>
<g>
	<path class="st0" d="M18.3,20.5H5.7c-1.2,0-2.2-1-2.2-2.2c0-0.7,0.3-1.3,0.9-1.7L5,16.1c0.3-0.2,0.5-0.6,0.5-0.9V10
		c0-3.6,2.9-6.5,6.5-6.5s6.5,2.9,6.5,6.5v5.2c0,0.4,0.2,0.7,0.5,0.9l0.7,0.5c0.5,0.4,0.9,1.1,0.9,1.7C20.5,19.5,19.5,20.5,18.3,20.5
		z M12,4.5C9,4.5,6.5,7,6.5,10v5.2c0,0.7-0.3,1.3-0.9,1.7L5,17.4c-0.3,0.2-0.5,0.6-0.5,0.9c0,0.6,0.5,1.2,1.2,1.2h12.7
		c0.6,0,1.2-0.5,1.2-1.2c0-0.4-0.2-0.7-0.5-0.9l-0.7-0.5c-0.5-0.4-0.9-1.1-0.9-1.7V10C17.5,7,15,4.5,12,4.5z"/>
</g>
<g>
	<path class="st0" d="M14.5,4h-1c0-0.8-0.7-1.5-1.5-1.5S10.5,3.2,10.5,4h-1c0-1.4,1.1-2.5,2.5-2.5S14.5,2.6,14.5,4z"/>
</g>
<g>
	<path class="st0" d="M12,22.5c-1.4,0-2.5-1.1-2.5-2.5h1c0,0.8,0.7,1.5,1.5,1.5s1.5-0.7,1.5-1.5h1C14.5,21.4,13.4,22.5,12,22.5z"/>
</g>
</svg>
