<?xml version="1.0" encoding="utf-8"?>
<!-- Generator: Adobe Illustrator 26.0.2, SVG Export Plug-In . SVG Version: 6.00 Build 0)  -->
<svg version="1.1" id="Layer_1" xmlns="http://www.w3.org/2000/svg" xmlns:xlink="http://www.w3.org/1999/xlink" x="0px" y="0px"
	 viewBox="0 0 22 20" style="enable-background:new 0 0 22 20;" xml:space="preserve">
<style type="text/css">
	.st0{fill:#1B2837;}
</style>
<g>
	<path class="st0" d="M13.5,19.5c-0.8,0-1.6-0.4-2-1.1L7.7,12H4.9c-1.3,0-2.6-0.3-3.8-0.9L0.9,11c-0.4-0.2-0.6-0.6-0.6-1
		c0-0.4,0.2-0.8,0.6-1l0.2-0.1C2.3,8.3,3.6,8,4.9,8h2.8l3.8-6.4c0.3-0.5,0.8-1.1,1.8-1.1c0.3,0,0.7,0.2,0.9,0.4
		c0.1,0.2,0.2,0.4,0.2,0.6L13.1,8H15c0.9,0,2.1,0.2,2.8,0.4l0.9-1.5C19,6.4,19.5,6,20,5.8l0.1,0c0.3-0.1,0.7,0,0.9,0.2
		s0.3,0.6,0.3,0.9L20.5,10l0.8,3.2c0.1,0.3,0,0.7-0.3,0.9c-0.2,0.2-0.6,0.3-0.9,0.2l-0.1,0c-0.6-0.2-1-0.6-1.4-1.1l-0.9-1.5
		C17.1,11.8,15.9,12,15,12h-1.9l1.3,6.5c0.1,0.3,0,0.5-0.2,0.7C14.1,19.4,13.8,19.5,13.5,19.5z M4.9,9C3.7,9,2.6,9.3,1.5,9.8
		L1.3,9.9c0,0-0.1,0-0.1,0.1c0,0,0,0.1,0.1,0.1l0.2,0.1c1,0.5,2.2,0.8,3.4,0.8h3.4l4.1,6.8c0.2,0.4,0.6,0.6,1,0.6L11.9,11H15
		c0.9,0,2.3-0.3,2.8-0.5l0.4-0.1l1.3,2.2c0.2,0.3,0.4,0.5,0.7,0.6L19.5,10l0.8-3.2c-0.3,0.1-0.6,0.3-0.7,0.6l-1.3,2.2l-0.4-0.1
		C17.3,9.3,16,9,15,9h-3.1l1.5-7.5c0,0,0,0-0.1,0c-0.4,0-0.6,0.2-0.9,0.7L8.3,9H4.9z"/>
</g>
</svg>
