<svg width="24" height="24" viewBox="0 0 24 24" fill="none" xmlns="http://www.w3.org/2000/svg">
<g clip-path="url(#clip0_72_138)">
<path d="M13 5C13.2089 5.60205 13.5 6.98145 13.5 8L13.5 10.5L20.5571 9.08858C20.7862 9.04276 21 9.21802 21 9.4517C21 10.1021 20.6588 10.7047 20.1011 11.0393L13.5 15L13.5 16L13.5 18.1115C13.5 19.3534 13.2108 20.5783 12.6554 21.6892L12.5367 21.9267C12.3155 22.3689 11.6845 22.3689 11.4633 21.9267L11.3446 21.6892C10.7892 20.5783 10.5 19.3534 10.5 18.1115L10.5 16L10.5 15L3.89891 11.0394C3.34123 10.7047 3 10.3227 3 9.67231C3 9.43864 3.21378 9.04276 3.44292 9.08859L10.5 10.5L10.5 8C10.5 6.98145 10.7911 5.60205 11 5L9.13441 3.88065C8.72503 3.63502 8.41701 3.25104 8.26604 2.79812L8.23042 2.69128C8.13061 2.39184 8.4007 2.10018 8.70691 2.17673L12 3L15.2931 2.17673C15.5993 2.10018 15.8694 2.39184 15.7696 2.69128L15.734 2.79812C15.583 3.25104 15.275 3.63502 14.8656 3.88065L13 5Z" fill="white"/>
</g>
<defs>
<clipPath id="clip0_72_138">
<rect width="24" height="24" fill="white" transform="translate(0 24) rotate(-90)"/>
</clipPath>
</defs>
</svg>
