<?xml version="1.0" encoding="utf-8"?>
<!-- Generator: Adobe Illustrator 26.0.2, SVG Export Plug-In . SVG Version: 6.00 Build 0)  -->
<svg version="1.1" id="Layer_1" xmlns="http://www.w3.org/2000/svg" xmlns:xlink="http://www.w3.org/1999/xlink" x="0px" y="0px"
	 viewBox="0 0 22 22" style="enable-background:new 0 0 22 22;" xml:space="preserve">
<style type="text/css">
	.st0{fill:#1B2837;}
</style>
<g>
	<path class="st0" d="M1,21.5C1,21.5,1,21.5,1,21.5c-0.3,0-0.5-0.2-0.5-0.5c0-0.8,0.2-1.7,0.7-2.4c0.5-0.7,1.1-1.2,1.9-1.5l4.4-1.6
		c0.2-0.1,0.4-0.1,0.6,0c0.2,0.1,0.4,0.2,0.5,0.4c0.3,0.4,0.6,0.8,1.1,1c0.8,0.5,1.9,0.5,2.8,0c0.4-0.2,0.8-0.6,1.1-1
		c0.1-0.2,0.3-0.3,0.5-0.4c0.2-0.1,0.4-0.1,0.6,0l4.4,1.5c0.8,0.3,1.4,0.8,1.9,1.5c0.5,0.7,0.7,1.5,0.7,2.4c0,0.3-0.2,0.5-0.5,0.5
		s-0.5-0.2-0.5-0.5c0-0.7-0.2-1.3-0.5-1.8c-0.3-0.5-0.8-0.9-1.4-1.2l-4.4-1.5c-0.3,0.5-0.8,1-1.3,1.3c-1.1,0.6-2.6,0.6-3.7,0
		c-0.6-0.3-1.1-0.8-1.4-1.3L3.4,18c-0.6,0.2-1,0.6-1.4,1.1c-0.4,0.5-0.5,1.2-0.5,1.8C1.5,21.3,1.3,21.5,1,21.5z"/>
</g>
<g>
	<path class="st0" d="M11,15.5c-1.5,0-4.6-1.8-5-4.5c0-0.1,0-0.1-0.1-0.2c0-0.1-0.1-0.1-0.2-0.1c-0.8-0.4-1.2-1.3-1.2-2.1
		c0-0.5,0.2-1,0.4-1.3C4.7,5.4,5.1,3.7,6.2,2.5c1.1-1.3,2.8-2,4.8-2c0,0,0,0,0,0c2,0,3.7,0.7,4.8,2c1,1.2,1.5,2.9,1.2,4.7
		c0.3,0.3,0.5,0.8,0.4,1.3c0,0.8-0.4,1.7-1.2,2.1c-0.1,0-0.1,0.1-0.2,0.1c0,0.1-0.1,0.1-0.1,0.2C15.6,13.7,12.5,15.5,11,15.5z
		 M11,1.5c-1.7,0-3.2,0.6-4.1,1.6C6,4.2,5.7,5.7,6,7.4c0,0.2-0.1,0.4-0.3,0.5C5.6,8,5.5,8.2,5.5,8.5c0,0.5,0.3,1.1,0.6,1.2l0,0
		c0.2,0.1,0.4,0.2,0.5,0.4c0.1,0.2,0.2,0.4,0.3,0.6c0.4,2.3,3,3.7,4.1,3.7c1,0,3.7-1.4,4.1-3.7c0-0.2,0.1-0.4,0.3-0.6
		c0.1-0.2,0.3-0.3,0.5-0.4c0.3-0.2,0.6-0.7,0.6-1.2c0-0.3-0.1-0.5-0.2-0.6C16.1,7.8,16,7.6,16,7.4c0.3-1.7-0.1-3.2-1-4.2
		C14.2,2.1,12.7,1.5,11,1.5C11,1.5,11,1.5,11,1.5z"/>
</g>
</svg>
