<?xml version="1.0" encoding="utf-8"?>
<!-- Generator: Adobe Illustrator 26.3.1, SVG Export Plug-In . SVG Version: 6.00 Build 0)  -->
<svg version="1.1" id="Layer_1" xmlns="http://www.w3.org/2000/svg" xmlns:xlink="http://www.w3.org/1999/xlink" x="0px" y="0px"
	 viewBox="0 0 22 22" style="enable-background:new 0 0 22 22;" xml:space="preserve">
<g>
	<path d="M1.2,18.3c-0.7,0-1.2,0.5-1.2,1.2c0,0.7,0.5,1.2,1.2,1.2c0.7,0,1.2-0.5,1.2-1.2C2.4,18.8,1.8,18.3,1.2,18.3z M1.2,19.1
		c0.2,0,0.4,0.2,0.4,0.4c0,0.2-0.2,0.4-0.4,0.4c-0.2,0-0.4-0.2-0.4-0.4C0.7,19.3,0.9,19.1,1.2,19.1z"/>
	<path d="M20.8,18.3c-0.7,0-1.2,0.5-1.2,1.2c0,0.7,0.5,1.2,1.2,1.2c0.7,0,1.2-0.5,1.2-1.2C22,18.8,21.5,18.3,20.8,18.3z M20.8,19.1
		c0.2,0,0.4,0.2,0.4,0.4c0,0.2-0.2,0.4-0.4,0.4c-0.2,0-0.4-0.2-0.4-0.4C20.4,19.3,20.6,19.1,20.8,19.1z"/>
	<path d="M2.2,19.3c0.1-0.1,0.2-0.2,0.3-0.3c0.2-0.1,0.2-0.4,0-0.5c-0.1-0.2-0.4-0.2-0.5,0c-0.1,0.1-0.2,0.2-0.4,0.4
		c-0.1,0.1-0.1,0.4,0,0.5C1.8,19.5,2,19.5,2.2,19.3L2.2,19.3z M3.6,18.1C3.8,18,3.9,17.9,4,17.8c0.2-0.1,0.2-0.3,0.1-0.5
		c-0.1-0.2-0.3-0.2-0.5-0.1c-0.1,0.1-0.3,0.2-0.4,0.3C3,17.6,3,17.8,3.1,18S3.5,18.2,3.6,18.1L3.6,18.1z M5.3,17.1
		C5.4,17,5.6,17,5.7,16.9c0.2-0.1,0.3-0.3,0.2-0.5c-0.1-0.2-0.3-0.3-0.5-0.2c-0.2,0.1-0.3,0.1-0.5,0.2c-0.2,0.1-0.3,0.3-0.2,0.5
		C4.9,17.1,5.1,17.2,5.3,17.1L5.3,17.1z M7.1,16.4c0.2,0,0.3-0.1,0.5-0.1c0.2-0.1,0.3-0.3,0.3-0.5c0-0.2-0.2-0.3-0.4-0.3
		c-0.2,0-0.3,0.1-0.5,0.1c-0.2,0.1-0.3,0.3-0.2,0.5C6.7,16.4,6.9,16.5,7.1,16.4L7.1,16.4z M8.9,16c0.2,0,0.3,0,0.5-0.1
		c0.2,0,0.3-0.2,0.3-0.4c0-0.2-0.2-0.4-0.4-0.3c-0.2,0-0.3,0-0.5,0.1c-0.2,0-0.3,0.2-0.3,0.4C8.5,15.9,8.7,16,8.9,16L8.9,16z
		 M10.9,15.8l0.2,0l0.3,0c0.2,0,0.4-0.2,0.4-0.4c0-0.2-0.2-0.4-0.4-0.4l-0.1,0c-0.1,0-0.2,0-0.3,0c-0.2,0-0.4,0.2-0.4,0.4
		C10.5,15.7,10.7,15.9,10.9,15.8L10.9,15.8z M12.7,15.9c0.2,0,0.3,0,0.5,0.1c0.2,0,0.4-0.1,0.4-0.3c0-0.2-0.1-0.4-0.3-0.4
		c-0.2,0-0.3,0-0.5-0.1c-0.2,0-0.4,0.1-0.4,0.3C12.4,15.7,12.5,15.9,12.7,15.9L12.7,15.9z M14.6,16.2c0.2,0,0.3,0.1,0.5,0.1
		c0.2,0.1,0.4-0.1,0.5-0.3c0.1-0.2-0.1-0.4-0.3-0.5c-0.2,0-0.3-0.1-0.5-0.1c-0.2,0-0.4,0.1-0.4,0.3C14.3,16,14.4,16.2,14.6,16.2
		L14.6,16.2z M16.4,16.9c0.1,0.1,0.3,0.1,0.4,0.2c0.2,0.1,0.4,0,0.5-0.1c0.1-0.2,0-0.4-0.1-0.5c-0.2-0.1-0.3-0.2-0.4-0.2
		c-0.2-0.1-0.4,0-0.5,0.2C16.1,16.6,16.2,16.8,16.4,16.9L16.4,16.9z M18,17.9c0.1,0.1,0.3,0.2,0.4,0.3c0.2,0.1,0.4,0.1,0.5-0.1
		c0.1-0.2,0.1-0.4-0.1-0.5c-0.1-0.1-0.3-0.2-0.4-0.3c-0.2-0.1-0.4-0.1-0.5,0.1C17.8,17.6,17.9,17.8,18,17.9L18,17.9z M19.5,19.1
		l0.2,0.2c0.2,0.1,0.4,0.1,0.5,0c0.1-0.2,0.1-0.4,0-0.5L20,18.6c-0.2-0.1-0.4-0.1-0.5,0C19.4,18.8,19.4,19,19.5,19.1L19.5,19.1z"/>
	<path d="M18,7.1c0-0.8-0.7-1.5-1.5-1.5H14l-2.4-4c-0.1-0.2-0.4-0.4-0.6-0.4H9.8l-0.1,0c-0.5,0-0.8,0.5-0.6,1l1,3.4H8.6L8,4.9
		C7.9,4.7,7.7,4.6,7.4,4.6H6.6l-0.1,0C6.1,4.6,5.8,5,5.9,5.5l0.5,1.7L5.9,8.9c-0.1,0.5,0.2,1,0.7,1h0.8l0.1,0c0.2,0,0.4-0.1,0.5-0.3
		l0.6-0.8h1.6l-1,3.4c-0.1,0.5,0.2,1,0.7,1h1.1l0.1,0c0.2,0,0.4-0.2,0.5-0.3l2.4-4l2.5,0C17.3,8.8,18,8.1,18,7.1L18,7.1z M17.3,7.2
		c0,0.4-0.3,0.8-0.7,0.8l-0.1,0h-2.9l-2.7,4.3H9.8L11.2,8H8.2L7.4,9.1H6.6l0.5-1.9L6.6,5.3h0.8l0.8,1.1h2.9L9.8,2h1.1l2.7,4.3h2.9
		C16.9,6.4,17.3,6.8,17.3,7.2L17.3,7.2z"/>
</g>
</svg>
