<?xml version="1.0" encoding="utf-8"?>
<!-- Generator: Adobe Illustrator 26.0.2, SVG Export Plug-In . SVG Version: 6.00 Build 0)  -->
<svg version="1.1" id="Layer_1" xmlns="http://www.w3.org/2000/svg" xmlns:xlink="http://www.w3.org/1999/xlink" x="0px" y="0px"
	 viewBox="0 0 24 24" style="enable-background:new 0 0 24 24;" xml:space="preserve">
<style type="text/css">
	.st0{fill:#1B2837;}
</style>
<g>
	<path class="st0" d="M12.5,23.5c-0.1,0-0.2,0-0.3-0.1c-2.6-2.3-8.7-8.2-8.7-13.9c0-5,4-9,9-9c5,0,9,4,9,9c0,5.7-6.1,11.6-8.7,13.9
		C12.7,23.5,12.6,23.5,12.5,23.5z M12.5,1.5c-4.4,0-8,3.6-8,8c0,5.1,5.7,10.8,8,12.8c2.3-2,8-7.7,8-12.8C20.5,5.1,16.9,1.5,12.5,1.5
		z"/>
</g>
<g>
	<path class="st0" d="M12.5,14C10,14,8,12,8,9.5S10,5,12.5,5S17,7,17,9.5S15,14,12.5,14z M12.5,6C10.6,6,9,7.6,9,9.5
		s1.6,3.5,3.5,3.5S16,11.4,16,9.5S14.4,6,12.5,6z"/>
</g>
</svg>
