<?xml version="1.0" encoding="utf-8"?>
<!-- Generator: Adobe Illustrator 26.0.2, SVG Export Plug-In . SVG Version: 6.00 Build 0)  -->
<svg version="1.1" id="Layer_1" xmlns="http://www.w3.org/2000/svg" xmlns:xlink="http://www.w3.org/1999/xlink" x="0px" y="0px"
	 viewBox="0 0 24 24" style="enable-background:new 0 0 24 24;" xml:space="preserve">
<g>
	<path d="M11.3,23h1.5c0.8,0,1.4-0.6,1.4-1.4v-1c0.9-0.2,1.7-0.6,2.5-1l0.7,0.7c0.5,0.5,1.4,0.5,2,0l1.1-1.1c0.3-0.3,0.4-0.6,0.4-1
		c0-0.4-0.1-0.7-0.4-1l-0.7-0.7c0.5-0.8,0.8-1.6,1-2.5h1c0.8,0,1.4-0.6,1.4-1.4v-1.5c0-0.8-0.6-1.4-1.4-1.4h-1
		c-0.2-0.9-0.6-1.7-1-2.5l0.7-0.7c0.3-0.3,0.4-0.6,0.4-1s-0.1-0.7-0.4-1l-1.1-1.1c-0.5-0.5-1.4-0.5-2,0l-0.7,0.7
		c-0.8-0.5-1.6-0.8-2.5-1v-1c0-0.8-0.6-1.4-1.4-1.4h-1.5c-0.8,0-1.4,0.6-1.4,1.4v1C9,3.6,8.2,4,7.4,4.4L6.7,3.7
		c-0.5-0.5-1.4-0.5-2,0L3.7,4.8c-0.5,0.5-0.5,1.4,0,2l0.7,0.7c-0.5,0.8-0.8,1.6-1,2.5h-1C1.6,9.9,1,10.5,1,11.3v1.5
		c0,0.8,0.6,1.4,1.4,1.4h1c0.2,0.9,0.6,1.7,1,2.5l-0.7,0.7c-0.5,0.5-0.5,1.4,0,2l1.1,1.1c0.5,0.5,1.4,0.5,2,0l0.7-0.7
		c0.8,0.5,1.6,0.8,2.5,1v1C9.9,22.3,10.5,23,11.3,23L11.3,23z M7.6,18.5l-0.3-0.2L6,19.5c-0.1,0.1-0.4,0.1-0.6,0l-1.1-1.1
		c-0.1-0.1-0.1-0.4,0-0.6l1.3-1.3l-0.2-0.3c-0.6-0.9-1-1.8-1.2-2.8l-0.1-0.4H2.4c-0.2,0-0.4-0.2-0.4-0.4v-1.5c0-0.2,0.2-0.4,0.4-0.4
		h1.8l0.1-0.4c0.2-1,0.6-2,1.2-2.8l0.2-0.3L4.4,6c-0.1-0.1-0.1-0.4,0-0.6l1.1-1.1c0.1-0.1,0.4-0.1,0.6,0l1.3,1.3l0.3-0.2
		c0.9-0.6,1.8-1,2.8-1.2l0.4-0.1V2.3c0-0.2,0.2-0.4,0.4-0.4h1.5c0.2,0,0.4,0.2,0.4,0.4v1.8l0.4,0.1c1,0.2,2,0.6,2.8,1.2l0.3,0.2
		L18,4.3c0.1-0.1,0.4-0.1,0.6,0l1.1,1.1c0.1,0.1,0.1,0.2,0.1,0.3c0,0.1,0,0.2-0.1,0.3l-1.3,1.3l0.2,0.3c0.6,0.9,1,1.8,1.2,2.8
		l0.1,0.4h1.8c0.2,0,0.4,0.2,0.4,0.4v1.5c0,0.2-0.2,0.4-0.4,0.4h-1.8l-0.1,0.4c-0.2,1-0.6,2-1.2,2.8l-0.2,0.3l1.3,1.3
		c0.1,0.1,0.1,0.2,0.1,0.3c0,0.1,0,0.2-0.1,0.3l-1.1,1.1c-0.1,0.1-0.4,0.1-0.6,0l-1.3-1.3l-0.3,0.2c-0.9,0.6-1.8,1-2.8,1.2l-0.4,0.1
		v1.8c0,0.2-0.2,0.4-0.4,0.4h-1.5c-0.2,0-0.4-0.2-0.4-0.4v-1.8l-0.4-0.1C9.4,19.5,8.5,19.1,7.6,18.5L7.6,18.5z M16.3,11.9
		c0-2.4-1.9-4.3-4.3-4.3s-4.3,1.9-4.3,4.3s1.9,4.3,4.3,4.3S16.3,14.3,16.3,11.9z M8.7,11.9c0-1.8,1.5-3.3,3.3-3.3s3.3,1.5,3.3,3.3
		s-1.5,3.3-3.3,3.3S8.7,13.8,8.7,11.9z"/>
</g>
</svg>
