<?xml version="1.0" encoding="utf-8"?>
<!-- Generator: Adobe Illustrator 26.0.2, SVG Export Plug-In . SVG Version: 6.00 Build 0)  -->
<svg version="1.1" id="Layer_1" xmlns="http://www.w3.org/2000/svg" xmlns:xlink="http://www.w3.org/1999/xlink" x="0px" y="0px"
	 viewBox="0 0 24 24" style="enable-background:new 0 0 24 24;" xml:space="preserve">
<style type="text/css">
	.st0{fill:#1B2837;}
</style>
<g>
	<path class="st0" d="M12,22C6.5,22,2,17.5,2,12C2,6.5,6.5,2,12,2c5.5,0,10,4.5,10,10C22,17.5,17.5,22,12,22z M12,3c-5,0-9,4-9,9
		c0,5,4,9,9,9c5,0,9-4,9-9C21,7,17,3,12,3z"/>
</g>
<g>
	<path class="st0" d="M12,17c-2.8,0-5-2.2-5-5s2.2-5,5-5s5,2.2,5,5S14.8,17,12,17z M12,8c-2.2,0-4,1.8-4,4c0,2.2,1.8,4,4,4
		c2.2,0,4-1.8,4-4C16,9.8,14.2,8,12,8z"/>
</g>
<g>
	<path class="st0" d="M14.5,8h-1V3h1V8z M10.5,8h-1V3h1V8z"/>
</g>
<g>
	<path class="st0" d="M14.5,21h-1v-5h1V21z M10.5,21h-1v-5h1V21z"/>
</g>
<g>
	<path class="st0" d="M21,14.5h-5v-1h5V14.5z M21,10.5h-5v-1h5V10.5z"/>
</g>
<g>
	<path class="st0" d="M8,14.5H3v-1h5V14.5z M8,10.5H3v-1h5V10.5z"/>
</g>
</svg>
