<svg width="547" height="275" viewBox="0 0 547 275" fill="none" xmlns="http://www.w3.org/2000/svg">
<path fill-rule="evenodd" clip-rule="evenodd" d="M100.634 146.469C99.5975 149.274 101.626 150.746 101.408 153.88C101.147 157.643 98.0212 158.421 96.2092 162.397C94.327 166.528 95.568 170.697 96.2092 173.901C98.4165 184.939 107.697 186.509 113.908 196.909C116.445 201.157 117.069 208.594 118.333 223.458C119.913 242.048 118.553 249.23 123.2 259.961C124.43 262.802 127.281 268.664 133.34 272.313C137.103 274.579 141.104 275.391 141.415 274.784C141.766 274.097 136.995 272.393 134.962 267.63C134.122 265.662 134.401 264.698 134.261 259.74C133.983 249.831 132.754 249.643 133.672 246.908C135.012 242.911 137.651 243.268 143.258 237.469C145.67 234.974 147.767 231.725 151.96 225.228C158.275 215.442 157.386 215.173 160.809 211.069C165.898 204.968 168.057 205.329 170.543 200.45C172.55 196.511 171.577 195.426 173.493 188.355C176.394 177.649 179.428 177.172 178.508 173.901C176.585 167.072 163.773 170.664 152.845 159.743C150.058 156.958 148.659 154.494 143.996 150.893C141.315 148.824 141.577 149.483 133.966 144.404C129.695 141.552 128.663 140.711 126.297 139.979C124.074 139.291 123.717 139.641 118.628 138.799C116.584 138.461 115.228 138.171 114.275 137.943C113.815 137.833 112.958 137.36 111.771 137.396C111.771 137.396 111.393 137.408 111.007 137.48C108.351 137.971 103.657 142.965 103.657 142.965C101.758 144.987 100.804 146.007 100.634 146.469" fill="#DADADA"/>
<path fill-rule="evenodd" clip-rule="evenodd" d="M233.267 88.7721C229.133 90.4895 229.226 93.82 224.525 99.5676C219.667 105.504 217.744 104.276 215.233 108.859C214.03 111.054 213.529 114.335 212.578 120.806C211.624 127.294 211.147 130.538 211.25 131.867C212.015 141.646 221.638 152.576 230.719 152.663C235.721 152.711 236.923 149.435 245.321 149.123C248.333 149.012 251.661 149.304 255.055 150.893C257.231 151.912 259.924 153.174 260.807 155.761C261.705 158.396 259.788 159.669 259.921 163.724C260.002 166.151 260.757 167.799 262.134 170.804C265.145 177.375 267.213 177.19 267.886 180.538C268.885 185.51 264.471 186.631 264.346 192.927C264.254 197.54 266.606 197.804 268.771 206.201C269.403 208.652 269.162 208.473 270.54 217.263C272.411 229.186 273.042 230.717 274.524 231.865C278.078 234.62 283.613 232.914 285.584 232.307C291.207 230.575 294.303 226.668 299.301 220.361C302.455 216.379 304.044 214.322 304.611 211.068C305.282 207.21 303.858 205.638 305.053 202.661C306.63 198.737 310.009 199.225 312.575 196.025C316.986 190.523 311.169 183.888 313.461 173.901C314.006 171.524 314.582 170.823 322.31 159.743C333.07 144.312 337.674 137.466 336.469 136.292C335.025 134.885 326.596 142.941 322.752 140.274C321.487 139.396 322 138.247 320.097 135.185C318.173 132.091 316.598 131.577 314.566 129.212C312.545 126.861 313.208 126.327 310.142 119.478C307.375 113.297 306.061 110.176 303.726 107.31C301.853 105.012 300.695 104.32 299.608 101.876C298.865 100.205 298.605 98.7234 297.173 97.736C295.973 96.9085 294.674 96.9301 293.992 96.9121C287.315 96.7364 283.799 91.3503 280.496 92.9303C278.215 94.021 279.219 97.1181 276.957 98.0187C275.106 98.7552 273.91 96.9692 268.624 94.9208C263.908 93.0944 262.381 93.5555 261.691 92.0449C260.662 89.792 263.055 86.7028 261.249 84.7448C260.787 84.2439 259.554 83.3253 250.188 85.4083C245.133 86.5323 244.303 87.1271 240.011 87.8419C234.988 88.6782 235.043 88.0342 233.267 88.7721" fill="#DADADA"/>
<path fill-rule="evenodd" clip-rule="evenodd" d="M323.194 194.808C321.852 196.835 323.476 198.225 322.309 201.887C321.523 204.36 320.624 204.219 320.097 206.312C319.26 209.634 320.508 214.016 322.641 214.497C324.459 214.909 326.546 212.401 327.397 211.068C328.298 209.661 328.125 209.089 329.057 205.759C329.754 203.269 330.515 201.214 331.823 197.684C332.951 194.637 333.237 194.151 333.371 192.817C333.631 190.221 333.037 187.215 332.043 187.064C331.134 186.927 330.948 189.34 328.393 191.6C325.899 193.806 324.397 192.992 323.194 194.808" fill="#DADADA"/>
<path fill-rule="evenodd" clip-rule="evenodd" d="M484.252 162.397C485.268 162.104 486.313 166.903 489.34 167.375C491.238 167.67 491.931 165.956 494.318 165.052C499.363 163.14 507.339 166.599 510.137 171.8C511.371 174.097 510.997 175.621 513.123 178.547C514.885 180.973 516.653 182.007 516.331 182.64C515.979 183.331 513.293 183.241 511.353 181.866C508.921 180.142 509.143 177.448 507.592 177.22C506.183 177.013 505.825 179.211 503.61 179.653C501.35 180.105 500.517 178.059 497.637 178.215C495.407 178.337 494.033 179.666 493.655 179.211C493.181 178.643 495.562 176.857 495.203 174.787C494.974 173.465 493.74 172.676 492.327 171.8C488.374 169.348 486.198 170.378 484.584 168.481C482.786 166.367 483.405 162.642 484.252 162.397" fill="#DADADA"/>
<path fill-rule="evenodd" clip-rule="evenodd" d="M490.446 186.401C489.398 184.355 485.803 183.646 483.367 184.741C482.773 185.009 482.04 185.735 480.601 187.175C477.817 189.962 477.464 190.86 476.287 191.047C474.688 191.301 474.165 189.828 472.637 189.609C469.237 189.121 467.735 195.829 462.239 200.118C455.899 205.065 450.892 201.606 447.306 206.312C445.02 209.312 447.474 210.167 445.093 218.591C444.058 222.252 442.378 226.399 442.881 231.754C442.979 232.797 443.169 233.983 443.988 234.409C445.662 235.281 447.594 231.729 451.952 231.09C454.667 230.692 455.251 231.876 457.925 231.2C460.184 230.63 460.552 229.588 462.792 228.325C466.73 226.106 472.721 225.307 474.739 227.661C476.005 229.137 475.129 231.179 476.841 232.307C477.853 232.975 478.406 232.423 479.717 233.191C481.513 234.245 482.147 236.261 482.261 236.62C482.808 238.356 482.165 238.901 482.703 239.829C483.534 241.261 485.864 241.331 488.455 241.378C492.323 241.446 494.875 241.491 497.415 239.939C499.444 238.7 499.38 237.717 502.283 234.409C505.32 230.944 506.215 231.08 508.698 228.435C511.137 225.837 515.27 221.435 515.114 215.936C515.017 212.51 513.254 208.61 510.8 205.98C509.022 204.076 507.282 203.266 506.597 200.781C506.136 199.112 506.643 198.471 506.154 196.135C505.685 193.9 504.987 193.376 504.163 191.268C502.377 186.702 503.315 183.186 502.614 183.083C501.827 182.966 500.5 187.4 500.069 188.835C498.352 194.574 498.7 196.811 497.084 197.574C495.312 198.408 492.862 196.682 491.774 195.914C490.882 195.285 488.413 193.546 488.677 191.711C488.887 190.242 490.687 189.815 490.778 187.95C490.785 187.82 490.811 187.111 490.446 186.401" fill="#DADADA"/>
<path fill-rule="evenodd" clip-rule="evenodd" d="M485.801 245.913C487.037 244.479 490.837 245.089 491.221 246.355C491.381 246.881 490.928 247.444 490.115 248.457C489.785 248.868 488.956 249.824 487.46 250.669C486.644 251.13 485.064 252.023 484.583 251.554C484.276 251.254 484.69 250.657 485.137 248.789C485.634 246.712 485.371 246.411 485.801 245.913" fill="#DADADA"/>
<path fill-rule="evenodd" clip-rule="evenodd" d="M514.635 256.052C514.454 254.966 517.91 254.498 523.779 250.89C529.144 247.592 531.687 244.645 533.218 245.581C533.909 246.004 534.254 247.13 533.955 247.793C533.546 248.705 532.147 248.239 530.563 249.415C529.427 250.26 529.733 250.809 528.646 251.628C527.206 252.714 526.278 252.045 524.664 252.808C522.48 253.84 522.885 255.676 520.977 256.79C518.591 258.183 514.817 257.15 514.635 256.052" fill="#DADADA"/>
<path fill-rule="evenodd" clip-rule="evenodd" d="M539.118 246.171C538.278 246.863 536.916 247.141 536.315 246.613C535.534 245.926 536.098 243.922 536.905 242.631C538.12 240.69 539.431 241.094 540.445 239.533C542.122 236.955 540.103 233.456 541.035 233.044C541.565 232.81 542.747 233.708 543.1 234.814C543.583 236.326 542.265 237.437 542.805 238.206C543.492 239.186 546.056 238.005 546.492 238.797C546.794 239.345 545.938 240.596 544.869 241.304C543.19 242.416 542.033 241.487 540.888 242.483C539.665 243.548 540.464 245.061 539.118 246.171" fill="#DADADA"/>
<path fill-rule="evenodd" clip-rule="evenodd" d="M315.672 22.5228C319.027 21.9944 320.025 21.4227 323.415 21.0295C328.309 20.4614 329.037 21.2493 329.262 21.5738C329.94 22.5474 329.466 24.1917 328.841 25.1573C327.983 26.4815 326.934 26.3861 325.016 27.9581C324.061 28.7401 323.144 29.4918 322.757 30.3671C321.551 33.0971 325.927 36.0554 329.081 42.5344C329.952 44.3218 333.265 51.1289 330.949 53.6471C328.818 55.9629 323.569 52.8622 321.974 55.1223C320.945 56.5801 323.003 58.0467 323.239 63.5246C323.363 66.3854 322.837 66.8046 323.239 69.5482C323.592 71.9551 324.262 73.4404 323.631 73.9145C323.219 74.2239 322.654 73.8047 320.559 72.9511C319.981 72.7155 317.664 71.7867 315.108 71.1745C314.308 70.9822 313.451 70.7806 312.277 70.662C310.353 70.4683 310 70.743 308.724 70.602C307.303 70.4452 304.462 69.7434 304.021 68.1518C303.585 66.5798 305.84 65.3901 305.348 64.3175C304.76 63.0345 300.775 63.0194 300.039 64.4649C299.455 65.612 301.262 67.0004 300.629 68.0044C300 68.9996 297.396 68.9454 296.647 67.8569C296.209 67.2231 296.677 66.6376 296.204 65.792C295.794 65.0591 294.827 64.3984 293.992 64.4649C291.723 64.6456 288.983 70.305 289.714 73.9037C289.79 74.2752 290.001 75.1151 289.567 75.8212C289.131 76.5288 288.262 76.7514 286.765 77.0015C283.048 77.621 282.065 77.308 281.749 77.8862C281.126 79.0296 284.547 81.0296 283.963 83.0483C283.639 84.1664 282.174 84.9897 281.013 84.8184C279.935 84.6594 279.296 83.6699 278.357 82.0162C275.307 76.643 275.904 76.2773 274.523 74.6417C272.247 71.9457 270.867 73.2228 268.181 70.0694C266.99 68.6708 266.263 67.2484 264.789 67.1197C263.989 67.0496 263.01 67.364 262.724 68.0044C262.202 69.1724 264.144 71.0668 264.936 71.8387C265.07 71.9695 265.678 72.5572 266.621 73.212C268.473 74.5 271.51 75.9759 272.458 76.8534L272.459 76.8541C272.521 76.9119 273.495 77.8241 273.344 78.1811C273.197 78.5259 272.16 77.9794 271.573 78.476C270.908 79.0398 271.523 80.3545 270.983 80.6884C270.554 80.9551 269.746 80.3791 269.361 80.0986C267.788 78.9538 267.652 77.8616 266.559 76.7059C265.382 75.4642 264.883 76.0345 263.166 74.7891C260.453 72.8195 260.914 70.8232 259.037 70.2168C257.754 69.8027 257.449 70.7068 254.022 71.3971C250.781 72.0498 250.215 71.4094 248.86 72.2818C247.55 73.1245 247.926 73.822 245.91 76.2643C244.393 78.1023 244.007 77.9187 242.813 79.5089C241.084 81.8116 241.73 82.4173 240.453 83.7855C238.623 85.7472 235.496 86.4287 232.931 85.8505C232.247 85.6966 230.877 85.3699 229.686 84.2286C228.278 82.8784 227.993 81.2254 227.622 79.0658C227.162 76.398 226.917 74.9727 227.769 73.4621C228.629 71.9377 230.397 70.6953 232.194 70.6591C233.954 70.6237 234.327 71.7744 236.471 71.8387C237.05 71.8568 238.999 71.9153 240.158 70.6591C241.649 69.043 241.178 65.9625 239.863 64.17C238.831 62.7621 237.674 62.6891 237.687 61.9576C237.709 60.7759 240.728 60.614 244.391 58.7376C246.458 57.6795 248.549 55.9347 252.731 52.4444C255.014 50.5406 255.784 49.7593 257.369 49.4196C259.575 48.9483 260.639 49.9132 263.129 50.3426C266.945 51.001 270.984 49.8619 273.749 47.909C276.57 45.9155 279.661 41.9453 278.615 39.3917C277.681 37.1092 273.934 37.1576 273.859 35.4092C273.808 34.2109 275.557 33.8885 276.736 31.4274C276.858 31.1701 278.133 28.5103 277.288 27.6661C275.908 26.2863 268.469 29.3675 267.422 34.0222C267.066 35.5986 267.759 35.9578 267.608 38.7918C267.479 41.1813 266.748 45.3445 265.231 45.5859C263.482 45.8649 262.71 40.6046 259.479 40.0552C256.52 39.5522 254.489 43.5101 252.842 42.71C251.373 41.9966 251.086 37.9252 252.842 35.1881C254.412 32.7436 256.167 33.6153 259.168 30.7964C261.817 28.3094 261.22 26.9057 264.346 24.0161C266.354 22.1607 268.22 21.2406 268.661 21.0295C269.263 20.7404 273.049 18.9783 277.399 19.4806C284.1 20.254 284.348 25.4992 291.336 26.7814C295.487 27.5425 299.494 26.4439 300.684 26.1179C304.146 25.1682 305 24.0529 309.035 23.242C311.805 22.6847 311.753 23.1401 315.672 22.5228" fill="#DADADA"/>
<path fill-rule="evenodd" clip-rule="evenodd" d="M236.231 57.1491C236.452 57.8112 240.238 57.4209 243.274 55.5417C244.989 54.4799 244.983 53.859 244.961 53.6783C244.88 53.0286 243.963 53.0408 242.942 52.1128C241.571 50.8653 242.192 49.904 240.785 48.1859C239.675 46.8307 238.963 47.0309 238.573 45.9179C238.211 44.8865 238.716 44.408 238.296 43.2082C238.054 42.5157 237.418 41.3383 236.637 41.3275C235.719 41.3152 234.72 42.9219 234.756 44.3689C234.78 45.3078 235.381 46.1875 236.581 47.9091C237.898 49.7956 238.388 50.0782 238.296 50.7301C238.102 52.1048 235.678 52.5494 235.807 53.2743C235.932 53.9754 238.243 53.7831 238.462 54.6013C238.706 55.5156 236.037 56.568 236.231 57.1491" fill="#DADADA"/>
<path fill-rule="evenodd" clip-rule="evenodd" d="M229.447 49.0705C230.061 48.5204 230.983 47.6957 232.124 47.9133C232.882 48.0578 233.7 48.6549 233.816 49.4022C233.883 49.8352 233.687 50.1279 233.208 51.0068C232.141 52.9641 232.339 52.9323 231.991 53.3847C230.621 55.1635 227.686 55.4663 227.401 54.9329C227.161 54.4884 228.85 53.611 228.673 52.2232C228.599 51.6457 228.271 51.5387 228.285 50.9511C228.307 50.0968 229 49.4709 229.447 49.0705" fill="#DADADA"/>
<path fill-rule="evenodd" clip-rule="evenodd" d="M209.758 27.6532C209.744 27.1501 211.109 26.4179 212.136 26.7815C212.755 27.0012 212.761 27.4472 213.241 27.8136C214.631 28.8732 216.709 26.7663 219.878 27.0027C221.604 27.1306 223.357 27.9314 223.356 28.6022C223.355 29.1869 222.026 29.1537 219.878 30.5421C218.101 31.6913 217.626 32.6093 216.486 32.5334C215.688 32.4806 215.735 32.018 214.642 31.7224C212.988 31.2743 212.319 32.1857 211.029 31.6487C210.17 31.2909 209.419 30.4496 209.555 29.8786C209.703 29.2476 210.877 29.1768 210.882 28.699C210.886 28.2328 209.771 28.1042 209.758 27.6532" fill="#DADADA"/>
<path fill-rule="evenodd" clip-rule="evenodd" d="M95.1768 141.896C94.3059 141.659 92.0465 141.042 91.0469 139.242C90.2822 137.863 90.9681 137.078 90.8994 133.342C90.8474 130.487 90.8214 129.06 90.0147 128.328C88.0625 126.555 83.955 129.668 82.6402 128.328C80.7328 126.383 87.2501 117.662 86.0322 116.676C85.274 116.061 82.7617 119.457 77.9205 120.658C77.3119 120.809 71.8231 122.171 69.2189 119.773C65.4294 116.284 67.4474 104.558 74.9708 99.2719C81.7881 94.482 92.0559 95.7324 95.9141 100.452C97.8063 102.767 98.1221 105.873 98.8644 105.762C99.924 105.603 98.0383 99.4432 101.224 94.8477C103.914 90.9671 107.194 92.5674 110.958 88.3579C114.357 84.5568 112.774 82.0321 116.268 78.3286C119.062 75.366 121.054 76.0338 125.117 73.6089C131.822 69.6069 130.668 65.3302 136.08 60.8193C144.282 53.9804 152.872 58.8562 155.795 53.5503C158.559 48.5321 153.762 38.9495 148.715 37.9166C145.738 37.308 144.136 40.0206 140.751 39.0962C136.766 38.0084 136.578 33.5922 133.966 33.4925C132.095 33.4202 130.709 35.6305 124.822 45.2911C120.645 52.146 120.071 53.121 118.627 53.5503C113.118 55.1896 103.476 46.337 104.764 40.8663C105.468 37.8718 109.017 37.7258 119.512 32.3122C127.945 27.9625 134.814 23.3324 134.261 21.988C133.803 20.8735 128.837 23.4683 124.527 20.8077C121.66 19.0391 121.693 16.5556 119.512 16.088C116.708 15.4873 114.648 19.1641 111.548 21.3982C106.091 25.3294 100.436 22.6103 86.7702 21.1026C71.7725 19.4489 73.0901 22.1181 60.2218 20.2179C47.8803 18.3958 46.549 15.9232 38.3932 16.6785C34.9773 16.9943 26.9075 17.7417 19.8105 23.1676C15.5765 26.4049 15.7124 28.2307 10.371 31.7224C5.60718 34.8361 2.88953 35.0898 1.22642 38.2115C-0.357188 41.1843 -0.55812 45.959 1.52131 47.3561C5.46769 50.0073 12.8473 37.2892 26.2996 36.737C27.4799 36.6879 38.0766 36.4089 43.1136 43.8159C47.3079 49.9841 45.0037 57.5957 44.883 57.9752C42.6135 65.0873 37.1138 64.8235 34.2639 72.1337C31.9337 78.1132 33.4233 83.9078 34.2639 87.1776C35.7673 93.0234 37.9421 94.3815 44.883 104.876C54.3803 119.236 52.9029 120.618 57.2721 123.46C63.1151 127.26 65.9252 124.938 75.8562 130.54C79.2143 132.434 81.8625 133.928 84.8895 136.734C84.8895 136.734 88.7976 141.335 91.9323 143.481C92.4433 143.833 92.9608 144.098 93.6279 144.44C95.3734 145.337 95.7926 145.284 96.0246 145.215C96.746 145.001 96.6564 144.326 97.3524 144.109C98.3339 143.802 99.035 144.972 99.8706 144.686C100.589 144.441 101.139 143.207 100.781 142.56C100.252 141.603 98.185 142.717 95.1768 141.896" fill="#DADADA"/>
<path fill-rule="evenodd" clip-rule="evenodd" d="M158.597 7.09177C158.51 9.6027 172.765 9.45887 174.821 16.0882C176.379 21.1122 169.445 25.2306 171.428 31.427C172.321 34.2155 174.885 37.0069 177.623 37.1789C181.442 37.4203 182.167 32.35 188.242 27.8876C195.743 22.3778 200.397 25.8746 207.415 19.7758C210.304 17.2656 209.369 16.8001 213.905 12.2539C220.18 5.96351 223.972 4.84609 223.64 3.10926C223.02 -0.127346 209.118 -0.0312165 202.843 0.0121502C193.826 0.075032 187.515 0.988624 175.263 2.81436C162.136 4.77093 158.639 5.85437 158.597 7.09177" fill="#DADADA"/>
<path fill-rule="evenodd" clip-rule="evenodd" d="M91.2316 114.722C91.6819 113.327 94.539 112.982 96.1544 113.007C98.9472 113.05 101.108 114.253 102.349 114.943C104.363 116.064 104.446 116.655 106.718 117.708C108.254 118.42 109.138 118.577 109.151 119.036C109.169 119.694 107.375 120.543 105.722 120.363C104.423 120.222 103.518 119.48 103.123 119.146C101.737 117.979 102.124 117.204 100.966 116.27C100.699 116.054 100.526 115.973 96.7623 115.109C94.5542 114.601 94.0446 114.498 93.3883 114.777C92.3656 115.211 91.929 116.171 91.5077 115.994C91.2041 115.866 91.0725 115.213 91.2316 114.722" fill="#DADADA"/>
<path fill-rule="evenodd" clip-rule="evenodd" d="M111.696 119.976C111.991 119.69 112.524 120.067 114.046 120.418C115.458 120.743 115.667 120.573 116.628 120.923C116.812 120.991 118.63 121.666 118.554 122.243C118.511 122.563 117.921 122.615 116.065 123.129C114.003 123.699 113.71 123.917 112.801 123.903C111.718 123.886 110.515 123.55 110.478 123.129C110.449 122.785 111.226 122.744 111.585 122.022C112.018 121.15 111.315 120.345 111.696 119.976" fill="#DADADA"/>
<path fill-rule="evenodd" clip-rule="evenodd" d="M332.154 17.5449C332.866 15.816 338.437 17.6179 344.156 16.992C349.905 16.3624 349.031 14.0221 357.707 11.0739C359.223 10.5585 368.816 7.59946 377.175 9.30377C382.464 10.3829 382.987 11.9405 389.122 14.171C395.046 16.3256 398.676 16.3704 415.228 17.2681C427.302 17.9236 433.339 18.251 437.793 18.5958C454.327 19.8751 454.464 20.6998 463.898 20.8082C469.357 20.8711 474.811 21.2766 480.27 21.2506C489.318 21.2072 493.214 20.7078 495.535 23.463C497.512 25.8099 497.899 29.9868 496.198 32.7543C492.958 38.0277 483.384 36.155 482.809 39.1675C482.405 41.2817 487.073 42.4381 489.059 48.0201C489.762 49.9962 490.388 53.2552 489.174 54.0481C487.753 54.9776 484.405 52.1342 481.707 49.8452C478.443 47.074 476.812 45.6885 476.287 43.3741C475.425 39.5672 478.505 37.5268 477.615 35.8522C475.365 31.6152 451.72 37.2283 451.583 43.2267C451.549 44.7387 453.037 45.0358 458.589 50.8961C462.734 55.2703 464.781 57.464 465.226 59.3027C466.391 64.1143 461.796 65.6415 461.244 74.3466C461.126 76.2035 460.956 78.8756 461.971 82.0768C463.234 86.0629 465.365 87.82 464.784 88.5051C464.017 89.4086 459.143 87.7448 455.934 84.081C453.547 81.3561 453.853 79.5637 451.952 78.7708C448.559 77.357 443.185 81.247 443.545 83.0482C443.808 84.3607 446.939 83.6835 449.002 86.2934C450.071 87.645 449.859 88.6208 450.624 91.1606C451.764 94.9393 453.427 95.6007 454.165 98.2395C454.681 100.084 456.406 106.257 453.721 110.186C450.101 115.487 440.982 110.791 436.023 116.823C435.541 117.409 433.653 119.707 434.032 122.354C434.438 125.189 437.024 125.477 439.121 129.213C439.509 129.904 442.163 134.631 440.19 138.578C439.032 140.893 436.324 142.858 434.326 142.339C433.754 142.19 432.955 141.316 431.377 139.574C429.807 137.839 429.372 137.192 428.132 135.96C427.099 134.932 425.465 133.307 424.961 133.637C424.546 133.909 425.436 135.158 425.186 137.164C424.997 138.675 424.385 138.815 424.15 140.053C423.665 142.599 425.675 145.037 426.4 145.915C428.212 148.116 429.138 147.527 430.493 149.602C431.521 151.178 431.172 151.799 432.446 153.953C433.749 156.155 434.887 156.817 434.696 157.087C434.326 157.609 429.354 156.192 427.506 152.553C426.856 151.276 426.963 150.454 425.772 148.238C424.96 146.726 424.55 146.439 423.929 145.289C422.888 143.362 422.653 141.603 422.455 139.832C421.423 130.624 422.259 128.869 420.684 127.295C418.771 125.381 416.821 127.404 413.604 125.525C408.746 122.685 409.882 117.033 406.231 115.791C403.67 114.92 400.888 116.941 396.792 119.921C392.597 122.97 389.515 125.211 388.532 129.065C387.429 133.389 389.954 135.873 387.942 140.273C387.3 141.678 386.384 143.681 384.992 143.814C384.992 143.814 381.793 144.119 372.308 116.971C372.743 117.762 371.541 115.318 370.981 114.61C369.79 113.108 367.397 113.656 365.081 113.431C361.418 113.075 361.444 111.125 356.675 109.154C353.536 107.857 353.394 108.647 345.023 106.942C340.726 106.067 338.578 105.629 337.206 104.877C332.008 102.028 330.694 97.1416 329.242 97.6497C328.126 98.0401 328.136 101.186 328.651 103.254C329.208 105.486 330.957 108.883 333.814 109.449C336.774 110.035 338.458 107.093 341.04 108.121C342.163 108.569 341.917 109.152 343.842 110.924C346.642 113.498 348.441 113.442 348.857 114.906C349.351 116.644 347.359 118.636 346.498 119.478C338.186 127.602 327.766 137.785 323.49 134.816C322.578 134.184 321.996 132.92 320.834 130.392C319.683 127.888 319.229 125.882 319.065 125.23C317.741 119.973 314.077 118.455 309.625 111.219C305.912 105.184 304.301 99.4791 303.579 99.7147C303.075 99.8788 303.799 102.662 303.099 102.904C302.377 103.154 300.901 100.429 300.315 99.3461C299.356 97.5746 299.538 97.2573 299.633 97.1705C299.782 97.0354 300.047 97.1611 300.315 97.2074C301.495 97.4091 302.706 96.0524 303.172 95.5291C305.217 93.2394 306.663 86.5255 304.279 85.0763C303.279 84.4684 302.556 85.3647 299.522 85.8504C297.542 86.1677 292.898 86.9121 290.23 84.4128C288.504 82.7952 287.629 79.8405 288.682 78.2178C289.119 77.5457 289.767 77.2855 291.779 76.6696C295.809 75.4366 297.823 74.8201 298.748 74.789C301.813 74.6863 302.917 75.8435 305.187 76.236C305.74 76.3314 306.507 76.3899 307.487 76.3379C308.408 76.2887 311.42 76.1391 311.912 74.789C312.265 73.8176 311.033 73.0001 311.334 72.5664C312.094 71.47 321.337 74.6986 324.964 76.8908C325.177 77.0195 325.773 77.3874 326.126 77.1669C326.791 76.752 325.885 74.6892 325.499 72.3922C324.769 68.0498 326.653 67.3595 326.07 63.3402C325.504 59.4343 323.449 58.1824 324.246 56.9241C325.511 54.9248 330.762 58.0061 333.15 55.7625C336.271 52.831 331.889 43.2527 331.601 42.6362C328.414 35.8124 323.946 33.0492 325.112 30.5419C325.977 28.6829 328.885 29.2402 330.569 26.5601C330.864 26.0896 330.942 25.4066 331.534 24.3303C332.337 22.8696 332.763 22.7756 333.04 22.0247C333.748 20.0977 331.693 18.6638 332.154 17.5449" fill="#DADADA"/>
<path fill-rule="evenodd" clip-rule="evenodd" d="M419.505 150.745C420.399 150.233 421.73 152.192 426.879 156.276C430.232 158.937 431.31 159.409 432.041 161.217C432.664 162.759 432.42 163.748 433.516 165.052C434.73 166.498 435.908 166.328 436.466 167.559C437.079 168.917 436.542 171.097 435.433 171.541C433.433 172.344 429.468 167.538 427.617 164.757C425.332 161.326 425.89 160.421 423.781 158.489C421.85 156.718 420.147 156.349 419.357 154.285C418.872 153.019 418.755 151.175 419.505 150.745" fill="#DADADA"/>
<path fill-rule="evenodd" clip-rule="evenodd" d="M443.25 158.12C441.818 160.03 443.376 164.364 446.2 166.674C446.699 167.082 449.471 169.351 452.247 168.444C453.894 167.906 454.702 166.525 456.081 164.167C456.783 162.969 457.951 160.928 458.294 158.12C458.527 156.21 458.154 155.784 458.589 153.695C458.981 151.813 459.431 151.452 459.326 150.303C459.153 148.402 457.657 146.491 456.524 146.616C455.873 146.689 455.664 147.398 454.46 149.418C453.128 151.65 452.462 152.766 451.51 153.695C450.131 155.04 448.554 155.736 446.494 156.645C444.104 157.701 443.73 157.48 443.25 158.12" fill="#DADADA"/>
<path fill-rule="evenodd" clip-rule="evenodd" d="M463.013 123.35C464.511 124.483 462.336 127.264 463.788 129.987C464.625 131.557 465.597 131.097 468.434 134.19C469.281 135.114 469.799 135.686 470.315 136.624C471.197 138.228 470.884 138.743 471.753 141.159C472.618 143.57 473.218 143.862 473.08 145.03C472.892 146.624 471.54 148.08 470.757 147.907C469.967 147.732 470.344 146.031 468.987 145.03C467.967 144.277 467.114 144.769 466.553 144.035C466.074 143.408 466.404 142.666 466.664 140.938C467.008 138.642 467.181 137.494 466.775 136.402C466.37 135.315 465.288 134.498 463.124 132.863C461.292 131.478 460.797 131.422 460.359 130.54C460.224 130.267 460.086 129.9 460.137 126.779C460.182 124.125 460.293 123.661 460.69 123.35C461.27 122.896 462.351 122.848 463.013 123.35" fill="#DADADA"/>
<path fill-rule="evenodd" clip-rule="evenodd" d="M476.14 68.0783C475.872 68.2467 476.798 69.4285 476.804 71.1754C476.809 72.8862 475.927 73.7463 476.362 74.1988C476.601 74.4482 476.977 74.3 479.09 73.8302C481.014 73.4023 481.183 73.4175 481.892 73.1667C483.204 72.7019 484.37 72.2892 484.4 71.6922C484.438 70.9073 482.511 69.9416 480.786 69.7747C479.723 69.6713 479.497 69.9453 478.648 69.701C477.086 69.2507 476.408 67.9092 476.14 68.0783" fill="#DADADA"/>
<path fill-rule="evenodd" clip-rule="evenodd" d="M480.049 76.4852C481.994 77.2434 482.847 79.1117 482.925 79.2874C483.457 80.4988 483.077 80.8356 483.367 82.8268C483.83 86.0172 485.031 86.7269 484.49 87.6449C483.606 89.1417 480.068 87.8472 479.053 89.6116C478.558 90.4731 478.943 91.579 478.574 91.6765C478.207 91.7734 477.964 90.6458 476.896 90.0539C476.004 89.5602 474.804 89.5877 473.909 90.0539C472.811 90.6256 472.402 91.738 472.084 92.5981C471.441 94.3429 471.809 95.4444 471.365 95.5846C470.852 95.7465 469.729 94.4751 469.485 93.0404C469.471 92.9587 469.175 91.0325 470.462 89.6853C472.213 87.8516 474.944 89.1338 475.919 87.5466C476.634 86.3836 475.645 84.9178 476.435 84.3757C477.108 83.9139 478.052 84.8246 478.943 84.302C479.528 83.958 479.679 83.2359 479.827 82.5319C480.236 80.5877 479.44 78.8255 479.237 78.402C478.653 77.1841 477.99 76.6586 478.205 76.3377C478.444 75.9807 479.502 76.2727 480.049 76.4852" fill="#DADADA"/>
<path fill-rule="evenodd" clip-rule="evenodd" d="M389.066 141.546C389.57 141.43 390.292 142.917 390.781 143.924C391.472 145.349 391.481 146.061 391.445 146.469C391.417 146.779 391.364 147.299 391.003 147.795C390.501 148.484 389.526 148.968 389.122 148.681C388.794 148.448 389.109 147.895 389.011 146.579C388.93 145.474 388.672 145.395 388.569 144.367C388.459 143.282 388.572 141.66 389.066 141.546" fill="#DADADA"/>
<path fill-rule="evenodd" clip-rule="evenodd" d="M437.572 174.123C439.623 173.529 440.646 175.665 443.102 175.524C444.703 175.433 445.207 174.473 446.2 174.934C447.129 175.365 447.007 176.349 448.117 176.778C448.92 177.088 449.413 176.738 450.034 177.22C450.455 177.546 450.8 178.149 450.625 178.474C450.537 178.635 450.225 178.903 448.265 178.547C446.235 178.178 445.683 177.73 444.282 177.367C441.528 176.653 440.759 177.633 438.383 176.63C438.043 176.487 436.312 175.756 436.392 175.008C436.451 174.457 437.463 174.154 437.572 174.123" fill="#DADADA"/>
</svg>
