<svg width="476" height="476" viewBox="0 0 476 476" fill="none" xmlns="http://www.w3.org/2000/svg">
<path opacity="0.8" fill-rule="evenodd" clip-rule="evenodd" d="M33.9717 254.686C42.0437 360.798 130.7 444.384 238.878 444.384C307.741 444.384 368.694 410.513 405.984 358.522C368.365 406.518 309.858 437.358 244.148 437.358C138.368 437.358 51.2549 357.438 39.8963 254.686H33.9717Z" fill="url(#paint0_linear_0_22)"/>
<path fill-rule="evenodd" clip-rule="evenodd" d="M40.1548 184.174L41.061 209.792L73.265 229.085L73.5481 237.081L56.7546 232.13L56.8962 236.128C56.9435 237.463 55.836 238.645 54.5019 238.691C53.164 238.737 51.9794 237.63 51.9323 236.299L51.7334 230.683L41.6956 227.692L42.498 250.353L50.0724 256.575L50.2241 260.86L37.4804 257.009L25.133 261.627L24.9813 257.343L32.0971 250.615L31.2982 228.051L21.8726 231.615L22.0749 237.327C22.1222 238.663 21.0147 239.844 19.6806 239.89C18.3427 239.936 17.1581 238.83 17.111 237.498L16.966 233.404L0.283137 239.698L0 231.701L30.5678 210.154L29.6607 184.535C31.2456 179.841 32.9126 177.464 34.6616 177.403C36.4106 177.343 38.2417 179.6 40.1548 184.174Z" fill="white"/>
<defs>
<linearGradient id="paint0_linear_0_22" x1="33.9717" y1="254.686" x2="33.9717" y2="444.384" gradientUnits="userSpaceOnUse">
<stop stop-color="white"/>
<stop offset="1" stop-color="white" stop-opacity="0.236555"/>
</linearGradient>
</defs>
</svg>
