<?xml version="1.0" standalone="no"?>
<!DOCTYPE svg PUBLIC "-//W3C//DTD SVG 1.1//EN" "http://www.w3.org/Graphics/SVG/1.1/DTD/svg11.dtd" >
<svg xmlns="http://www.w3.org/2000/svg">
<metadata>Generated by IcoMoon</metadata>
<defs>
<font id="frvl" horiz-adv-x="1024">
<font-face units-per-em="1024" ascent="960" descent="-64" />
<missing-glyph horiz-adv-x="1024" />
<glyph unicode="&#x20;" horiz-adv-x="512" d="" />
<glyph unicode="&#xe900;" glyph-name="plane-filled" d="M554.667 746.667c8.913-25.687 21.333-84.542 21.333-128v-106.667l301.103 60.221c9.775 1.955 18.897-5.523 18.897-15.493 0-27.75-14.558-53.461-38.353-67.738l-281.647-168.99v-132.757c0-52.988-12.339-105.25-36.036-152.649l-5.065-10.133c-9.438-18.867-36.361-18.867-45.798 0l-5.065 10.133c-23.697 47.398-36.036 99.661-36.036 152.649v132.757l-281.647 168.986c-23.794 14.281-38.353 30.579-38.353 58.329 0 9.97 9.121 26.861 18.898 24.905l301.102-60.22v106.667c0 43.458 12.42 102.313 21.333 128l-79.599 47.759c-17.467 10.48-30.609 26.863-37.050 46.188l-1.52 4.559c-4.259 12.776 7.265 25.22 20.33 21.954l140.505-35.126 140.506 35.126c13.065 3.266 24.589-9.178 20.331-21.954l-1.519-4.559c-6.443-19.325-19.584-35.708-37.052-46.188l-79.599-47.759z" />
<glyph unicode="&#xe901;" glyph-name="boarding-cards" d="M853.333 192h-682.667c-46.933 0-85.333 38.4-85.333 85.333v384c0 46.933 38.4 85.333 85.333 85.333h682.667c46.933 0 85.333-38.4 85.333-85.333v-384c0-46.933-38.4-85.333-85.333-85.333zM170.667 704c-25.6 0-42.667-17.067-42.667-42.667v-384c0-25.6 17.067-42.667 42.667-42.667h682.667c25.6 0 42.667 17.067 42.667 42.667v384c0 25.6-17.067 42.667-42.667 42.667h-682.667zM362.667 618.667c-12.8 0-21.333 8.533-21.333 21.333s8.533 21.333 21.333 21.333 21.333-8.533 21.333-21.333-8.533-21.333-21.333-21.333zM362.667 644.267c0 0 0-4.267 0 0 0-8.533 0-8.533 0 0 0-4.267 0 0 0 0zM362.667 533.333c-12.8 0-21.333 8.533-21.333 21.333s8.533 21.333 21.333 21.333 21.333-8.533 21.333-21.333-8.533-21.333-21.333-21.333zM362.667 558.933c0 0 0-4.267 0 0 0-8.533 0-8.533 0 0 0-4.267 0 0 0 0zM362.667 448c-12.8 0-21.333 8.533-21.333 21.333s8.533 21.333 21.333 21.333 21.333-8.533 21.333-21.333-8.533-21.333-21.333-21.333zM362.667 473.6c0 0 0-4.267 0 0 0-8.533 0-8.533 0 0 0-4.267 0 0 0 0zM362.667 362.667c-12.8 0-21.333 8.533-21.333 21.333s8.533 21.333 21.333 21.333 21.333-8.533 21.333-21.333c0-12.8-8.533-21.333-21.333-21.333zM362.667 388.267c0 0 0-4.267 0 0 0-8.533 0-8.533 0 0 0-4.267 0 0 0 0zM362.667 277.333c-12.8 0-21.333 8.533-21.333 21.333s8.533 21.333 21.333 21.333 21.333-8.533 21.333-21.333c0-12.8-8.533-21.333-21.333-21.333zM362.667 302.933c0 0 0-4.267 0 0 0-8.533 0-8.533 0 0 0-4.267 0 0 0 0z" />
<glyph unicode="&#xe902;" glyph-name="adult" d="M601.6 486.4c4.267 4.267 4.267 12.8 0 17.067s-12.8 4.267-17.067 0c-17.067-21.333-42.667-34.133-72.533-34.133-25.6 0-51.2 12.8-72.533 34.133-4.267 4.267-12.8 4.267-17.067 0s-4.267-12.8 0-17.067c21.333-25.6 55.467-42.667 89.6-42.667 34.133 4.267 68.267 17.067 89.6 42.667v0zM1015.467 106.667c-12.8 51.2-46.933 140.8-140.8 162.133l-200.533 46.933c-8.533 0-17.067 8.533-17.067 21.333v59.733c68.267 42.667 110.933 128 110.933 213.333 17.067 98.133 8.533 170.667-29.867 217.6-34.133 42.667-81.067 51.2-102.4 51.2-59.733 72.533-136.533 98.133-221.867 68.267-98.133-29.867-187.733-123.733-187.733-149.333 0-4.267 0-8.533 4.267-12.8 21.333-25.6 25.6-119.467 21.333-170.667 0-89.6 42.667-170.667 115.2-221.867v-59.733c0-8.533-4.267-17.067-17.067-21.333l-196.267-46.933c-98.133-21.333-132.267-110.933-145.067-162.133-4.267-21.333-8.533-76.8-8.533-149.333 0-4.267 0-8.533 4.267-12.8s8.533-4.267 12.8-4.267h989.867c4.267 0 8.533 0 12.8 4.267s4.267 8.533 4.267 12.8c0 72.533-4.267 128-8.533 153.6zM610.133 806.4c-4.267-4.267-8.533-8.533-8.533-12.8 0 0 0-8.533-12.8-17.067-17.067-12.8-51.2-21.333-123.733-8.533-93.867 17.067-149.333-25.6-179.2-72.533-4.267 46.933-12.8 81.067-25.6 102.4 17.067 25.6 98.133 110.933 192 128 59.733 8.533 115.2-12.8 157.867-72.533 4.267-4.267 8.533-8.533 12.8-8.533 0 0 51.2 0 85.333-42.667 21.333-25.6 34.133-64 34.133-110.933-42.667 85.333-119.467 110.933-123.733 115.2 0 0-4.267 0-4.267 0s-4.267 0-4.267 0zM315.733 682.667c34.133 46.933 81.067 64 140.8 51.2 68.267-12.8 119.467-8.533 149.333 12.8 8.533 4.267 12.8 12.8 17.067 21.333 29.867-17.067 93.867-59.733 110.933-157.867 0-128-102.4-234.667-226.133-234.667s-226.133 106.667-226.133 234.667c4.267 8.533 12.8 42.667 34.133 72.533zM396.8 328.533v38.4c34.133-17.067 72.533-25.6 110.933-25.6s76.8 8.533 115.2 25.6v-42.667c0-25.6 17.067-46.933 42.667-51.2l200.533-46.933c81.067-17.067 106.667-89.6 115.2-132.267 4.267-21.333 8.533-68.267 8.533-128h-955.733c0 59.733 4.267 106.667 8.533 128 8.533 42.667 38.4 115.2 115.2 132.267l196.267 51.2c25.6 4.267 42.667 25.6 42.667 51.2z" />
<glyph unicode="&#xe903;" glyph-name="economy" d="M316.509 960h-144.291c-27.927 0-51.2-23.273-51.2-55.855 0-4.655 0-9.309 0-13.964l209.455-730.764c9.309-18.618 27.927-37.236 51.2-37.236h414.255c23.273 0 41.891 13.964 51.2 32.582l55.855 121.018c13.964 27.927 0 60.509-27.927 69.818h-4.655c-4.655 0-9.309 4.655-18.618 4.655h-311.855l-46.545 107.055h186.182c41.891 0 74.473 32.582 74.473 74.473v4.655c-4.655 37.236-32.582 69.818-74.473 69.818h-246.691l-9.309 83.782 18.618 65.164c4.655 13.964 0 27.927-4.655 41.891l-102.4 153.6c-4.655 4.655-9.309 9.309-18.618 9.309v0zM172.218 918.109h134.982l93.091-144.291c0-4.655 0-4.655 0-9.309l-18.618-69.818c0-4.655 0-4.655 0-9.309l18.618-102.4c0-9.309 9.309-18.618 18.618-18.618h260.655c18.618 0 32.582-13.964 32.582-32.582s-13.964-32.582-27.927-32.582h-218.764c-13.964 0-23.273-13.964-18.618-27.927l60.509-144.291c4.655-9.309 9.309-13.964 18.618-13.964h325.818c0 0 4.655 0 4.655 0 4.655-4.655 9.309-9.309 4.655-18.618l-55.855-121.018c0-4.655-4.655-9.309-9.309-9.309h-414.255c-4.655 0-9.309 4.655-9.309 9.309l-209.455 730.764c0 0 0 0 0 4.655-4.655 4.655 4.655 9.309 9.309 9.309v0zM446.836 154.764c4.655 9.309 18.618 13.964 27.927 9.309s13.964-13.964 9.309-23.273v-4.655l-41.891-74.473h325.818c27.927 0 51.2-23.273 51.2-51.2v-23.273c0-27.927-23.273-51.2-51.2-51.2h-353.745c-9.309 0-18.618 0-27.927 4.655-23.273 13.964-32.582 41.891-23.273 69.818v4.655l83.782 139.636zM418.909 24.436l-13.964-27.927c-4.655-4.655 0-13.964 4.655-18.618 0 0 4.655 0 4.655 0v0h349.091c4.655 0 9.309 4.655 13.964 9.309v0 18.618c0 4.655-4.655 9.309-9.309 13.964v0h-335.127c-4.655 0-9.309 0-13.964 4.655v0z" />
<glyph unicode="&#xe904;" glyph-name="round-trip" d="M55.855 108.218c-32.582 0-55.855-23.273-55.855-55.855s23.273-55.855 55.855-55.855c32.582 0 55.855 23.273 55.855 55.855s-27.927 55.855-55.855 55.855zM55.855 70.982c9.309 0 18.618-9.309 18.618-18.618s-9.309-18.618-18.618-18.618c-9.309 0-18.618 9.309-18.618 18.618-4.655 9.309 4.655 18.618 18.618 18.618zM968.145 108.218c-32.582 0-55.855-23.273-55.855-55.855s23.273-55.855 55.855-55.855c32.582 0 55.855 23.273 55.855 55.855s-23.273 55.855-55.855 55.855zM968.145 70.982c9.309 0 18.618-9.309 18.618-18.618s-9.309-18.618-18.618-18.618c-9.309 0-18.618 9.309-18.618 18.618s9.309 18.618 18.618 18.618zM102.4 61.673c4.655 4.655 9.309 9.309 13.964 13.964 9.309 4.655 9.309 18.618 0 23.273-4.655 9.309-18.618 9.309-23.273 0-4.655-4.655-9.309-9.309-18.618-18.618-4.655-4.655-4.655-18.618 0-23.273 9.309-4.655 18.618-4.655 27.927 4.655v0zM167.564 117.527c9.309 4.655 13.964 9.309 18.618 13.964 9.309 4.655 9.309 13.964 4.655 23.273s-13.964 9.309-23.273 4.655c-4.655-4.655-13.964-9.309-18.618-13.964-9.309-4.655-9.309-13.964-4.655-23.273s18.618-9.309 23.273-4.655v0zM246.691 164.073c4.655 4.655 13.964 4.655 18.618 9.309 9.309 4.655 13.964 13.964 9.309 23.273s-13.964 13.964-23.273 9.309c-9.309-4.655-13.964-4.655-23.273-9.309s-13.964-13.964-9.309-23.273c9.309-9.309 18.618-13.964 27.927-9.309v0zM330.473 196.655c9.309 0 13.964 4.655 23.273 4.655 9.309 4.655 13.964 13.964 13.964 23.273s-9.309 13.964-18.618 13.964c-9.309 0-13.964-4.655-23.273-4.655-9.309-4.655-13.964-13.964-9.309-23.273-4.655-13.964 4.655-18.618 13.964-13.964v0zM414.255 215.273c9.309 0 13.964 0 23.273 4.655 9.309 0 13.964 9.309 13.964 18.618s-9.309 18.618-18.618 13.964c-9.309 0-13.964 0-23.273-4.655-9.309 0-13.964-9.309-13.964-18.618s9.309-13.964 18.618-13.964v0zM507.345 224.582h23.273c9.309 0 18.618 9.309 18.618 18.618s-9.309 18.618-18.618 18.618h-4.655c-4.655 0-9.309 0-13.964 0-9.309 0-18.618-9.309-18.618-18.618-4.655-13.964 4.655-23.273 13.964-18.618v0zM591.127 219.927c9.309 0 13.964 0 23.273-4.655 9.309 0 18.618 4.655 18.618 13.964s-4.655 18.618-13.964 18.618c-9.309 0-13.964 0-23.273 4.655-9.309 0-18.618-4.655-18.618-13.964s4.655-18.618 13.964-18.618v0zM679.564 205.964c9.309 0 13.964-4.655 23.273-4.655 9.309-4.655 18.618 4.655 23.273 13.964s-4.655 18.618-13.964 23.273c-9.309 0-13.964 4.655-23.273 4.655s-18.618-4.655-18.618-13.964c-4.655-13.964 0-23.273 9.309-23.273v0zM763.345 173.382c4.655-4.655 13.964-4.655 18.618-9.309 9.309-4.655 18.618 0 23.273 4.655 4.655 9.309 0 18.618-4.655 23.273-9.309 4.655-13.964 9.309-18.618 9.309-9.309 4.655-18.618 0-23.273-9.309-9.309-4.655-4.655-13.964 4.655-18.618v0zM837.818 126.836c4.655-4.655 13.964-9.309 18.618-13.964 9.309-4.655 18.618-4.655 23.273 4.655s4.655 18.618-4.655 23.273c-4.655 4.655-13.964 9.309-18.618 13.964-9.309 4.655-18.618 4.655-23.273-4.655s0-18.618 4.655-23.273v0zM907.636 70.982l9.309-9.309c9.309-4.655 18.618-4.655 23.273 0 4.655 9.309 4.655 18.618 0 23.273l-9.309 9.309c-9.309 4.655-18.618 4.655-23.273 0-4.655-9.309-4.655-18.618 0-23.273v0zM837.818 629.527c0 37.236-32.582 69.818-69.818 69.818h-116.364l-111.709 186.182c-4.655 9.309-18.618 18.618-27.927 18.618h-60.509c-23.273 0-37.236-23.273-27.927-46.545l46.545-158.255h-69.818l-27.927 32.582c-4.655 9.309-13.964 13.964-27.927 13.964h-41.891c-18.618 0-32.582-18.618-27.927-41.891l23.273-79.127-23.273-79.127c-4.655-23.273 9.309-46.545 32.582-46.545h41.891c9.309 0 18.618 4.655 23.273 13.964l27.927 37.236h74.473l-46.545-158.255c-4.655-23.273 9.309-46.545 32.582-46.545h55.855c9.309 0 18.618 9.309 23.273 13.964l111.709 186.182h116.364c37.236 4.655 69.818 37.236 69.818 83.782v0zM805.236 624.873c0-18.618-13.964-37.236-32.582-37.236h-139.636l-125.673-200.145h-51.2l65.164 200.145h-139.636l-37.236-51.2h-37.236l23.273 88.436-23.273 88.436h37.236l37.236-51.2h134.982l-60.509 204.8h51.2l125.673-200.145h134.982c18.618-4.655 37.236-23.273 37.236-41.891v0z" />
<glyph unicode="&#xe905;" glyph-name="child" d="M512 596.945c88.436 0 158.255 102.4 158.255 195.491s-65.164 162.909-158.255 162.909c-93.091 0-158.255-65.164-158.255-162.909 0-88.436 69.818-195.491 158.255-195.491zM474.764 913.455c-23.273-46.545-23.273-83.782 4.655-102.4s69.818-18.618 93.091 9.309c9.309 13.964 9.309 27.927 4.655 41.891s-23.273 27.927-41.891 27.927c-9.309 0-18.618-4.655-23.273-18.618 0-9.309 4.655-18.618 13.964-18.618 4.655 0 9.309-4.655 9.309-4.655 0-4.655-4.655-9.309-9.309-9.309-9.309-4.655-18.618 0-23.273 4.655s-9.309 13.964-9.309 23.273c0 18.618 9.309 37.236 23.273 60.509 69.818-13.964 111.709-60.509 111.709-130.327 0-74.473-51.2-158.255-116.364-158.255-69.818 0-116.364 83.782-116.364 158.255 0 55.855 27.927 102.4 79.127 116.364zM902.982 420.073c-32.582 69.818-204.8 181.527-265.309 181.527-9.309 0-13.964 0-18.618-4.655-41.891-23.273-79.127-27.927-107.055-27.927s-65.164 4.655-107.055 27.927c-4.655 0-9.309 4.655-18.618 4.655-60.509 0-228.073-111.709-265.309-181.527-13.964-27.927-4.655-46.545 0-51.2 9.309-13.964 23.273-18.618 41.891-18.618 27.927 0 60.509 23.273 97.745 51.2 18.618 13.964 32.582 23.273 51.2 37.236-9.309-69.818-27.927-228.073 23.273-390.982-32.582-9.309-51.2-27.927-55.855-51.2 0-13.964 0-23.273 9.309-32.582 13.964-18.618 41.891-18.618 93.091-18.618h46.545c60.509 0 60.509 55.855 60.509 83.782v125.673c0 0 0 9.309 4.655 9.309 4.655 4.655 4.655 4.655 13.964 4.655 4.655 0 9.309 0 13.964-4.655s4.655-9.309 4.655-9.309v-125.673c0-27.927 4.655-83.782 60.509-83.782h46.545c51.2 0 79.127 4.655 93.091 18.618 9.309 9.309 9.309 18.618 9.309 32.582-4.655 23.273-23.273 41.891-51.2 51.2 51.2 162.909 32.582 321.164 23.273 390.982 18.618-9.309 37.236-23.273 51.2-37.236 37.236-27.927 69.818-51.2 97.745-51.2 18.618 0 32.582 9.309 41.891 18.618 9.309 4.655 18.618 23.273 4.655 51.2zM665.6 461.964c0 0 51.2-214.109-23.273-432.873l-9.309-23.273h23.273c0 0 37.236-4.655 41.891-23.273-4.655-4.655-27.927-9.309-65.164-9.309h-46.545c-13.964 0-23.273 0-23.273 46.545v125.673c0 4.655 0 23.273-13.964 37.236-9.309 9.309-23.273 13.964-41.891 13.964s-32.582-4.655-41.891-13.964c-13.964-13.964-13.964-37.236-13.964-37.236v-125.673c0-46.545-9.309-46.545-23.273-46.545h-46.545c-13.964 0-60.509 0-65.164 9.309 0 18.618 41.891 23.273 41.891 23.273h23.273v23.273c-74.473 218.764-23.273 428.218-23.273 432.873l9.309 37.236-32.582-13.964c-32.582-13.964-65.164-37.236-93.091-55.855s-60.509-41.891-74.473-41.891c-4.655 0-9.309 0-9.309 4.655 0 0 0 4.655 4.655 13.964 27.927 60.509 190.836 158.255 232.727 158.255 46.545-27.927 93.091-32.582 125.673-32.582s79.127 4.655 125.673 32.582c41.891 0 200.145-97.745 232.727-158.255 4.655-9.309 4.655-13.964 4.655-13.964v0c-4.655-4.655-9.309-4.655-9.309-4.655-18.618 0-46.545 23.273-74.473 41.891s-60.509 41.891-93.091 55.855l-32.582 13.964-9.309-37.236zM512 485.236c-27.927 0-51.2-23.273-51.2-51.2s23.273-51.2 51.2-51.2c27.927 0 51.2 23.273 51.2 51.2s-23.273 51.2-51.2 51.2zM512 443.345c9.309 0 13.964-4.655 13.964-13.964s-4.655-13.964-13.964-13.964c-9.309 0-13.964 4.655-13.964 13.964s4.655 13.964 13.964 13.964zM512 354.909c-27.927 0-51.2-23.273-51.2-51.2s23.273-51.2 51.2-51.2c27.927 0 51.2 23.273 51.2 51.2s-23.273 51.2-51.2 51.2zM512 317.673c9.309 0 13.964-4.655 13.964-13.964s-4.655-13.964-13.964-13.964c-9.309 0-13.964 4.655-13.964 13.964s4.655 13.964 13.964 13.964z" />
<glyph unicode="&#xe906;" glyph-name="close" horiz-adv-x="1083" d="M605.979 447.893l414.369-414.369c17.829-17.829 17.829-46.829 0-64.658s-46.829-17.829-64.658 0l-414.369 414.584-414.369-412.221c-17.829-17.829-46.829-17.829-64.658 0s-17.829 46.829 0 64.658l414.584 412.006-412.221 414.369c-17.829 17.829-17.829 46.829 0 64.658s46.829 17.829 64.658 0l412.006-414.369 414.369 412.221c17.829 17.829 46.829 17.829 64.658 0s17.829-46.829 0-64.658l-414.369-412.221z" />
<glyph unicode="&#xe907;" glyph-name="credit-card" d="M810.667 192h-597.333c-46.933 0-85.333 38.4-85.333 85.333v384c0 46.933 38.4 85.333 85.333 85.333h597.333c46.933 0 85.333-38.4 85.333-85.333v-384c0-46.933-38.4-85.333-85.333-85.333zM213.333 704c-25.6 0-42.667-17.067-42.667-42.667v-384c0-25.6 17.067-42.667 42.667-42.667h597.333c25.6 0 42.667 17.067 42.667 42.667v384c0 25.6-17.067 42.667-42.667 42.667h-597.333zM128 341.333h768v-42.667h-768v42.667zM554.667 597.333h-298.667c-12.8 0-21.333 8.533-21.333 21.333s8.533 21.333 21.333 21.333h298.667c12.8 0 21.333-8.533 21.333-21.333s-8.533-21.333-21.333-21.333zM341.333 512h-85.333c-12.8 0-21.333 8.533-21.333 21.333s8.533 21.333 21.333 21.333h85.333c12.8 0 21.333-8.533 21.333-21.333s-8.533-21.333-21.333-21.333z" />
<glyph unicode="&#xe908;" glyph-name="email" d="M896 106.667h-768c-46.933 0-85.333 38.4-85.333 85.333v512c0 46.933 38.4 85.333 85.333 85.333h768c46.933 0 85.333-38.4 85.333-85.333v-512c0-46.933-38.4-85.333-85.333-85.333zM128 746.667c-25.6 0-42.667-17.067-42.667-42.667v-512c0-25.6 17.067-42.667 42.667-42.667h768c25.6 0 42.667 17.067 42.667 42.667v512c0 25.6-17.067 42.667-42.667 42.667h-768zM512 379.733l-354.133 264.533c-8.533 8.533-12.8 21.333-4.267 29.867s21.333 12.8 29.867 4.267l328.533-247.467 328.533 247.467c8.533 8.533 21.333 4.267 29.867-4.267s4.267-21.333-4.267-29.867l-354.133-264.533zM853.333 213.333c-4.267 0-8.533 0-12.8 4.267l-213.333 170.667c-8.533 8.533-8.533 21.333-4.267 29.867 8.533 8.533 21.333 8.533 29.867 4.267l213.333-170.667c8.533-8.533 8.533-21.333 4.267-29.867-4.267-4.267-12.8-8.533-17.067-8.533zM170.667 213.333c-4.267 0-12.8 4.267-17.067 8.533-8.533 8.533-4.267 21.333 4.267 29.867l213.333 170.667c8.533 8.533 21.333 4.267 29.867-4.267s4.267-21.333-4.267-29.867l-213.333-170.667c-4.267-4.267-8.533-4.267-12.8-4.267z" />
<glyph unicode="&#xe909;" glyph-name="explore" d="M512-40.727c-18.618 0-32.582 13.964-41.891 27.927l-93.091 311.855c0 9.309-9.309 13.964-13.964 13.964l-311.855 93.091c-18.618 4.655-27.927 23.273-27.927 41.891s13.964 37.236 27.927 41.891l311.855 93.091c9.309 0 13.964 4.655 18.618 13.964l93.091 311.855c4.655 18.618 23.273 27.927 41.891 27.927s32.582-13.964 41.891-27.927l93.091-311.855c0-9.309 9.309-13.964 13.964-13.964l311.855-93.091c18.618-4.655 27.927-23.273 27.927-41.891s-13.964-32.582-27.927-41.891l-311.855-93.091c-9.309 0-13.964-9.309-13.964-13.964l-93.091-311.855c-13.964-13.964-27.927-27.927-46.545-27.927zM83.782 448l293.236-88.436c23.273-4.655 41.891-23.273 46.545-46.545l88.436-293.236 88.436 293.236c4.655 23.273 23.273 41.891 46.545 46.545l293.236 88.436-293.236 88.436c-23.273 4.655-41.891 23.273-46.545 46.545l-88.436 293.236-88.436-293.236c-4.655-23.273-23.273-41.891-46.545-46.545l-293.236-88.436zM204.8 108.218c-9.309 0-18.618 4.655-23.273 9.309-9.309 9.309-13.964 23.273-4.655 37.236l60.509 139.636c0 13.964 13.964 18.618 27.927 13.964s18.618-18.618 13.964-32.582l-46.545-107.055 111.709 46.545c13.964 4.655 23.273 0 32.582-13.964 4.655-13.964 0-23.273-13.964-32.582l-139.636-60.509c-9.309 0-13.964 0-18.618 0zM768 587.636c-4.655 0-4.655 0-9.309 0-13.964 4.655-18.618 18.618-13.964 32.582l46.545 107.055-111.709-46.545c-13.964-4.655-23.273 0-32.582 13.964-4.655 13.964 0 23.273 13.964 32.582l139.636 60.509c13.964 4.655 27.927 4.655 37.236-4.655s13.964-23.273 4.655-37.236l-60.509-139.636c4.655-13.964-4.655-18.618-13.964-18.618zM819.2 108.218c-4.655 0-9.309 0-13.964 4.655l-139.636 60.509c-13.964 4.655-18.618 18.618-13.964 32.582s18.618 18.618 32.582 13.964l111.709-46.545-46.545 111.709c-4.655 13.964 0 23.273 13.964 32.582 13.964 4.655 23.273 0 32.582-13.964l60.509-139.636c4.655-13.964 4.655-27.927-4.655-37.236-13.964-13.964-23.273-18.618-32.582-18.618zM805.236 136.145v0 0zM256 587.636c-9.309 0-18.618 4.655-23.273 13.964l-60.509 139.636c-4.655 13.964 0 27.927 9.309 37.236s23.273 13.964 37.236 4.655l139.636-60.509c13.964 0 18.618-13.964 13.964-27.927s-18.618-18.618-32.582-13.964l-107.055 46.545 46.545-111.709c4.655-9.309 0-23.273-13.964-27.927-4.655 0-4.655 0-9.309 0z" />
<glyph unicode="&#xe90a;" glyph-name="logout" d="M896 448h-469.333c-12.8 0-21.333 8.533-21.333 21.333s8.533 21.333 21.333 21.333h469.333c12.8 0 21.333-8.533 21.333-21.333s-8.533-21.333-21.333-21.333zM746.667 298.667c-4.267 0-12.8 0-17.067 4.267-8.533 8.533-8.533 21.333 0 29.867l132.267 132.267-132.267 132.267c-8.533 8.533-8.533 21.333 0 29.867s21.333 8.533 29.867 0l149.333-149.333c8.533-8.533 8.533-21.333 0-29.867l-149.333-149.333c0 0-8.533 0-12.8 0zM435.2 170.667c-157.867 0-285.867 132.267-285.867 298.667s128 298.667 285.867 298.667c64 0 123.733-21.333 174.933-59.733 8.533-8.533 12.8-21.333 4.267-29.867s-21.333-12.8-29.867-4.267c-42.667 34.133-93.867 51.2-145.067 51.2-136.533 0-243.2-115.2-243.2-256s110.933-256 243.2-256c55.467 0 102.4 17.067 145.067 51.2 8.533 8.533 21.333 4.267 29.867-4.267s4.267-21.333-4.267-29.867c-51.2-38.4-110.933-59.733-174.933-59.733z" />
<glyph unicode="&#xe90b;" glyph-name="notifications" d="M780.8 85.333h-537.6c-51.2 0-93.867 42.667-93.867 93.867 0 29.867 12.8 55.467 38.4 72.533l25.6 21.333c12.8 8.533 21.333 25.6 21.333 38.4v221.867c0 153.6 123.733 277.333 277.333 277.333s277.333-123.733 277.333-277.333v-221.867c0-17.067 8.533-29.867 21.333-38.4l29.867-21.333c21.333-17.067 38.4-46.933 38.4-72.533-4.267-51.2-46.933-93.867-98.133-93.867zM512 768c-128 0-234.667-106.667-234.667-234.667v-221.867c0-29.867-12.8-55.467-38.4-72.533l-25.6-21.333c-12.8-8.533-21.333-25.6-21.333-38.4 0-25.6 21.333-51.2 51.2-51.2h541.867c25.6 0 51.2 21.333 51.2 51.2 0 17.067-8.533 29.867-21.333 38.4l-29.867 21.333c-21.333 17.067-38.4 46.933-38.4 72.533v221.867c0 128-106.667 234.667-234.667 234.667zM618.667 789.333h-42.667c0 34.133-29.867 64-64 64s-64-29.867-64-64h-42.667c0 59.733 46.933 106.667 106.667 106.667s106.667-46.933 106.667-106.667zM512 0c-59.733 0-106.667 46.933-106.667 106.667h42.667c0-34.133 29.867-64 64-64s64 29.867 64 64h42.667c0-59.733-46.933-106.667-106.667-106.667z" />
<glyph unicode="&#xe90c;" glyph-name="support" d="M512 21.333c-234.667 0-426.667 192-426.667 426.667s192 426.667 426.667 426.667c234.667 0 426.667-192 426.667-426.667s-192-426.667-426.667-426.667zM512 832c-213.333 0-384-170.667-384-384s170.667-384 384-384c213.333 0 384 170.667 384 384s-170.667 384-384 384zM512 234.667c-119.467 0-213.333 93.867-213.333 213.333s93.867 213.333 213.333 213.333 213.333-93.867 213.333-213.333-93.867-213.333-213.333-213.333zM512 618.667c-93.867 0-170.667-76.8-170.667-170.667s76.8-170.667 170.667-170.667c93.867 0 170.667 76.8 170.667 170.667s-76.8 170.667-170.667 170.667zM618.667 618.667h-42.667v213.333h42.667v-213.333zM448 618.667h-42.667v213.333h42.667v-213.333zM618.667 64h-42.667v213.333h42.667v-213.333zM448 64h-42.667v213.333h42.667v-213.333zM896 341.333h-213.333v42.667h213.333v-42.667zM896 512h-213.333v42.667h213.333v-42.667zM341.333 341.333h-213.333v42.667h213.333v-42.667zM341.333 512h-213.333v42.667h213.333v-42.667z" />
<glyph unicode="&#xe90d;" glyph-name="arrow-right" d="M341.333 42.667c-4.267 0-12.8 0-17.067 4.267-8.533 8.533-8.533 21.333 0 29.867l366.933 366.933-366.933 371.2c-8.533 8.533-8.533 21.333 0 29.867s21.333 8.533 29.867 0l384-384c8.533-8.533 8.533-21.333 0-29.867l-384-384c0-4.267-8.533-4.267-12.8-4.267z" />
<glyph unicode="&#xe90e;" glyph-name="edit" d="M128 0c-19.2 0-32 6.4-44.8 19.2-12.8 19.2-19.2 38.4-19.2 64l32 128c6.4 19.2 12.8 32 25.6 44.8l601.6 601.6c38.4 38.4 96 38.4 134.4 0l57.6-57.6c38.4-38.4 38.4-96 0-134.4l-601.6-601.6c-12.8-12.8-25.6-19.2-44.8-25.6l-128-32c0-6.4-6.4-6.4-12.8-6.4zM793.6 819.2c-6.4 0-19.2 0-25.6-6.4l-601.6-601.6c-6.4-6.4-6.4-6.4-6.4-12.8l-32-134.4 128 32c6.4 0 12.8 6.4 12.8 6.4l601.6 601.6c12.8 12.8 12.8 32 0 44.8l-57.6 57.6c-6.4 6.4-12.8 12.8-19.2 12.8zM619.638 703.453l45.261 45.248 149.318-149.361-45.261-45.248-149.318 149.361z" />
<glyph unicode="&#xe90f;" glyph-name="arrow-left" d="M682.667 42.667c-4.267 0-12.8 0-17.067 4.267l-384 384c-8.533 8.533-8.533 21.333 0 29.867l384 384c8.533 8.533 21.333 8.533 29.867 0s8.533-21.333 0-29.867l-366.933-366.933 366.933-366.933c8.533-8.533 8.533-21.333 0-29.867 0-8.533-8.533-8.533-12.8-8.533z" />
<glyph unicode="&#xe910;" glyph-name="search" d="M426.667 170.667c-200.533 0-362.667 162.133-362.667 362.667s162.133 362.667 362.667 362.667c200.533 0 362.667-162.133 362.667-362.667s-162.133-362.667-362.667-362.667zM426.667 853.333c-174.933 0-320-145.067-320-320s145.067-320 320-320 320 145.067 320 320-145.067 320-320 320zM960-21.333c-4.267 0-12.8 0-17.067 4.267l-209.067 209.067c-8.533 8.533-8.533 21.333 0 29.867s21.333 8.533 29.867 0l209.067-209.067c8.533-8.533 8.533-21.333 0-29.867 0-4.267-8.533-4.267-12.8-4.267z" />
<glyph unicode="&#xe911;" glyph-name="plane" horiz-adv-x="1126" d="M691.2-38.4c-40.96 0-81.92 20.48-102.4 56.32l-194.56 327.68h-143.36c-66.56 0-133.12 15.36-194.56 46.080l-10.24 5.12c-20.48 10.24-30.72 30.72-30.72 51.2s10.24 40.96 30.72 51.2l10.24 5.12c61.44 30.72 128 46.080 194.56 46.080h143.36l194.56 327.68c15.36 25.6 40.96 56.32 92.16 56.32 15.36 0 35.84-10.24 46.080-20.48 5.12-10.24 10.24-20.48 10.24-30.72l-66.56-332.8h97.28c46.080 0 107.52-10.24 143.36-20.48l46.080 76.8c15.36 25.6 40.96 46.080 66.56 56.32h5.12c15.36 5.12 35.84 0 46.080-10.24s15.36-30.72 15.36-46.080l-40.96-158.72 40.96-163.84c5.12-15.36 0-35.84-15.36-46.080-10.24-10.24-30.72-15.36-46.080-10.24h-5.12c-30.72 10.24-51.2 30.72-71.68 56.32l-46.080 76.8c-30.72-5.12-92.16-15.36-138.24-15.36h-97.28l66.56-332.8c5.12-15.36 0-25.6-10.24-35.84-5.12-10.24-20.48-15.36-35.84-15.36zM250.88 499.2c-61.44 0-117.76-15.36-174.080-40.96l-10.24-5.12c0 0-5.12 0-5.12-5.12 0 0 0-5.12 5.12-5.12l10.24-5.12c51.2-25.6 112.64-40.96 174.080-40.96h174.080l209.92-348.16c10.24-20.48 30.72-30.72 51.2-30.72l-76.8 378.88h158.72c46.080 0 117.76 15.36 143.36 25.6l20.48 5.12 66.56-112.64c10.24-15.36 20.48-25.6 35.84-30.72l-35.84 163.84 40.96 163.84c-15.36-5.12-30.72-15.36-35.84-30.72l-66.56-112.64-20.48 5.12c-30.72 10.24-97.28 25.6-148.48 25.6h-158.72l76.8 384c0 0 0 0-5.12 0-20.48 0-30.72-10.24-46.080-35.84l-209.92-348.16h-174.080z" />
<glyph unicode="&#xe912;" glyph-name="profile" d="M46.545-40.727c0 0 0 0 0 0-13.964 0-23.273 9.309-23.273 23.273 0 37.236 9.309 79.127 32.582 111.709s51.2 55.855 88.436 69.818l204.8 74.473c9.309 4.655 18.618 4.655 27.927 0s18.618-9.309 23.273-18.618c13.964-18.618 27.927-37.236 51.2-46.545 37.236-23.273 88.436-23.273 130.327 0 18.618 9.309 37.236 27.927 51.2 46.545 4.655 9.309 13.964 13.964 23.273 18.618s18.618 4.655 27.927 0l204.8-69.818c37.236-13.964 65.164-37.236 88.436-69.818s32.582-69.818 32.582-111.709c0-13.964-9.309-23.273-23.273-23.273s-23.273 9.309-23.273 23.273c0 32.582-9.309 60.509-23.273 83.782s-37.236 41.891-65.164 55.855l-204.8 69.818c-13.964-23.273-37.236-46.545-60.509-60.509-51.2-27.927-121.018-27.927-172.218 0-27.927 13.964-51.2 37.236-65.164 60.509l-214.109-74.473c-27.927-9.309-46.545-27.927-65.164-51.2s-23.273-55.855-23.273-83.782c0-18.618-9.309-27.927-23.273-27.927zM512 238.545c-69.818 0-214.109 83.782-232.727 209.455 0 4.655 0 4.655-4.655 9.309 0 4.655-4.655 4.655-9.309 4.655-37.236 18.618-55.855 60.509-55.855 97.745 0 23.273 9.309 46.545 18.618 60.509-9.309 88.436 9.309 167.564 60.509 223.418 51.2 60.509 130.327 93.091 223.418 93.091 0 0 0 0 0 0 93.091 0 172.218-32.582 223.418-93.091 46.545-55.855 69.818-134.982 55.855-218.764 13.964-13.964 23.273-37.236 18.618-60.509 0-37.236-18.618-79.127-55.855-97.745-4.655 0-4.655-4.655-9.309-4.655 0-4.655-4.655-4.655-4.655-9.309-13.964-130.327-158.255-214.109-228.073-214.109zM512 890.182c-79.127 0-148.945-27.927-190.836-74.473-41.891-51.2-55.855-121.018-41.891-200.145 0-9.309-4.655-18.618-13.964-23.273-4.655-4.655-9.309-13.964-9.309-27.927 0-23.273 13.964-51.2 27.927-55.855v0c9.309-4.655 18.618-9.309 23.273-18.618s9.309-18.618 13.964-27.927c18.618-107.055 139.636-172.218 190.836-172.218 46.545 0 172.218 65.164 190.836 172.218 0 9.309 4.655 18.618 13.964 27.927 4.655 9.309 13.964 13.964 23.273 18.618 13.964 9.309 27.927 32.582 27.927 55.855 0 13.964-4.655 23.273-9.309 27.927-9.309 4.655-13.964 13.964-13.964 23.273 13.964 79.127-4.655 148.945-46.545 195.491-37.236 51.2-107.055 79.127-186.182 79.127 0 0 0 0 0 0z" />
<glyph unicode="&#xe913;" glyph-name="saved-destinations" d="M533.333-42.667c-4.267 0-8.533 0-12.8 4.267-110.933 98.133-371.2 349.867-371.2 593.067 0 213.333 170.667 384 384 384s384-170.667 384-384c0-243.2-260.267-494.933-371.2-593.067-4.267-4.267-8.533-4.267-12.8-4.267zM533.333 896c-187.733 0-341.333-153.6-341.333-341.333 0-217.6 243.2-460.8 341.333-546.133 98.133 85.333 341.333 328.533 341.333 546.133 0 187.733-153.6 341.333-341.333 341.333zM533.333 362.667c-106.667 0-192 85.333-192 192s85.333 192 192 192 192-85.333 192-192-85.333-192-192-192zM533.333 704c-81.067 0-149.333-68.267-149.333-149.333s68.267-149.333 149.333-149.333 149.333 68.267 149.333 149.333-68.267 149.333-149.333 149.333z" />
<glyph unicode="&#xe914;" glyph-name="settings" d="M482.133-21.333h64c34.133 0 59.733 25.6 59.733 59.733v42.667c38.4 8.533 72.533 25.6 106.667 42.667l29.867-29.867c21.333-21.333 59.733-21.333 85.333 0l46.933 46.933c12.8 12.8 17.067 25.6 17.067 42.667s-4.267 29.867-17.067 42.667l-29.867 29.867c21.333 34.133 34.133 68.267 42.667 106.667h42.667c34.133 0 59.733 25.6 59.733 59.733v64c0 34.133-25.6 59.733-59.733 59.733h-42.667c-8.533 38.4-25.6 72.533-42.667 106.667l29.867 29.867c12.8 12.8 17.067 25.6 17.067 42.667s-4.267 29.867-17.067 42.667l-46.933 46.933c-21.333 21.333-59.733 21.333-85.333 0l-29.867-29.867c-34.133 21.333-68.267 34.133-106.667 42.667v42.667c0 34.133-25.6 59.733-59.733 59.733h-64c-34.133 0-59.733-25.6-59.733-59.733v-42.667c-38.4-21.333-72.533-38.4-106.667-55.467l-29.867 29.867c-21.333 21.333-59.733 21.333-85.333 0l-42.667-46.933c-21.333-21.333-21.333-59.733 0-85.333l29.867-29.867c-21.333-34.133-34.133-68.267-42.667-106.667h-42.667c-34.133 4.267-59.733-21.333-59.733-55.467v-64c0-34.133 25.6-59.733 59.733-59.733h42.667c8.533-38.4 25.6-72.533 42.667-106.667l-29.867-29.867c-21.333-21.333-21.333-59.733 0-85.333l46.933-46.933c21.333-21.333 59.733-21.333 85.333 0l29.867 29.867c34.133-21.333 68.267-34.133 106.667-42.667v-42.667c-4.267-21.333 21.333-51.2 55.467-51.2v0zM324.267 170.667l-12.8 8.533-55.467-51.2c-4.267-4.267-17.067-4.267-25.6 0l-46.933 46.933c-4.267 4.267-4.267 17.067 0 25.6l55.467 55.467-8.533 12.8c-25.6 38.4-42.667 76.8-51.2 119.467l-4.267 17.067h-72.533c-8.533 0-17.067 8.533-17.067 17.067v64c0 8.533 8.533 17.067 17.067 17.067h76.8l4.267 17.067c8.533 42.667 25.6 85.333 51.2 119.467l8.533 12.8-55.467 51.2c-4.267 4.267-4.267 17.067 0 25.6l46.933 46.933c4.267 4.267 17.067 4.267 25.6 0l55.467-55.467 12.8 8.533c38.4 25.6 76.8 42.667 119.467 51.2l17.067 4.267v76.8c0 8.533 8.533 17.067 17.067 17.067h64c8.533 0 17.067-8.533 17.067-17.067v-76.8l17.067-4.267c42.667-8.533 85.333-25.6 119.467-51.2l12.8-8.533 55.467 55.467c4.267 4.267 17.067 4.267 25.6 0l46.933-46.933c4.267-4.267 4.267-8.533 4.267-12.8s0-8.533-4.267-12.8l-55.467-55.467 8.533-12.8c25.6-38.4 42.667-76.8 51.2-119.467l4.267-17.067h76.8c8.533 0 17.067-8.533 17.067-17.067v-64c0-8.533-8.533-17.067-17.067-17.067h-76.8l-4.267-17.067c-8.533-42.667-25.6-85.333-51.2-119.467l-8.533-12.8 55.467-55.467c4.267-4.267 4.267-8.533 4.267-12.8s0-8.533-4.267-12.8l-46.933-46.933c-4.267-4.267-17.067-4.267-25.6 0l-55.467 55.467-12.8-8.533c-38.4-25.6-76.8-42.667-119.467-51.2l-17.067-4.267v-76.8c0-8.533-8.533-17.067-17.067-17.067h-64c-8.533 0-17.067 8.533-17.067 17.067v76.8l-17.067 4.267c-46.933 8.533-85.333 25.6-123.733 51.2v0zM695.467 452.267c0 102.4-81.067 183.467-183.467 183.467s-183.467-81.067-183.467-183.467 81.067-183.467 183.467-183.467 183.467 81.067 183.467 183.467zM371.2 452.267c0 76.8 64 140.8 140.8 140.8s140.8-64 140.8-140.8-64-140.8-140.8-140.8-140.8 59.733-140.8 140.8z" />
<glyph unicode="&#xe915;" glyph-name="infant" d="M337.92 186.88c-35.84 0-66.56-15.36-87.040-35.84-20.48-25.6-35.84-56.32-35.84-87.040s10.24-56.32 35.84-81.92 56.32-35.84 87.040-35.84c35.84 0 66.56 15.36 87.040 35.84 20.48 25.6 35.84 56.32 35.84 87.040 0 35.84-15.36 66.56-35.84 87.040-30.72 20.48-56.32 30.72-87.040 30.72zM419.84 69.12c0-20.48-10.24-46.080-25.6-56.32-10.24-15.36-35.84-25.6-56.32-25.6s-46.080 10.24-56.32 25.6c-15.36 15.36-25.6 35.84-25.6 56.32s10.24 46.080 25.6 56.32c15.36 15.36 35.84 25.6 56.32 25.6s46.080-10.24 56.32-25.6c15.36-15.36 25.6-35.84 25.6-56.32zM680.96 186.88c-35.84 0-66.56-15.36-87.040-35.84-25.6-20.48-35.84-56.32-35.84-87.040 0-35.84 15.36-66.56 35.84-87.040 20.48-25.6 56.32-35.84 87.040-35.84 35.84 0 66.56 15.36 87.040 35.84 25.6 20.48 35.84 56.32 35.84 87.040 0 35.84-15.36 66.56-35.84 87.040-25.6 25.6-51.2 35.84-87.040 35.84zM762.88 69.12c0-20.48-10.24-46.080-25.6-56.32-20.48-15.36-40.96-25.6-56.32-25.6-20.48 0-46.080 10.24-56.32 25.6-15.36 15.36-25.6 35.84-25.6 56.32s10.24 46.080 25.6 56.32c15.36 15.36 35.84 25.6 56.32 25.6s46.080-10.24 56.32-25.6c15.36-15.36 25.6-35.84 25.6-56.32zM1003.52 642.56h-235.52l87.040 87.040h153.6c15.36 0 20.48 5.12 20.48 20.48s-5.12 20.48-20.48 20.48h-158.72c-5.12 0-10.24 0-15.36-5.12l-122.88-128c-5.12-5.12-5.12-15.36-5.12-20.48s5.12-15.36 20.48-15.36h261.12v-76.8c0-87.040-30.72-163.84-92.16-215.040-40.96-40.96-87.040-61.44-143.36-61.44h-435.2c-76.8 0-143.36 30.72-199.68 87.040s-87.040 122.88-87.040 199.68v133.12c0 81.92 30.72 158.72 97.28 220.16l15.36 10.24 291.84-291.84c5.12-5.12 10.24-5.12 15.36-5.12h184.32c15.36 0 20.48 5.12 20.48 20.48s-5.12 20.48-20.48 20.48h-174.080l-307.2 302.080c-5.12 5.12-20.48 5.12-25.6 0l-25.6-25.6c-71.68-66.56-107.52-153.6-107.52-250.88v-138.24c0-81.92 35.84-163.84 92.16-230.4 56.32-61.44 138.24-92.16 230.4-92.16h435.2c61.44 0 128 25.6 174.080 71.68 30.72 30.72 56.32 71.68 71.68 112.64 15.36 46.080 25.6 92.16 25.6 133.12v97.28c0 5.12 0 10.24-5.12 15.36s-10.24 5.12-15.36 5.12zM430.080 729.6v0c30.72 0 56.32 10.24 76.8 30.72s30.72 46.080 30.72 76.8-10.24 56.32-30.72 76.8c-25.6 25.6-51.2 35.84-76.8 35.84s-61.44-15.36-76.8-30.72c-20.48-20.48-30.72-51.2-30.72-76.8s10.24-56.32 30.72-76.8c15.36-15.36 40.96-30.72 76.8-35.84zM363.52 842.24c0 20.48 10.24 35.84 20.48 46.080 10.24 15.36 30.72 20.48 46.080 20.48 20.48 0 35.84-10.24 46.080-20.48 15.36-15.36 20.48-25.6 20.48-46.080s-10.24-35.84-20.48-46.080c-10.24-15.36-25.6-20.48-46.080-20.48s-35.84 10.24-46.080 20.48c-15.36 10.24-20.48 25.6-20.48 46.080zM450.56 673.28c0-5.12 0-10.24 5.12-15.36 10.24-5.12 20.48-5.12 30.72 0l153.6 153.6c10.24 10.24 20.48 15.36 30.72 10.24 15.36-5.12 20.48-15.36 20.48-20.48v0c5.12-10.24 0-20.48-10.24-30.72l-81.92-87.040c-5.12-5.12-5.12-5.12-5.12-15.36 0-5.12 0-10.24 5.12-15.36s5.12-5.12 15.36-5.12 10.24 0 15.36 5.12l87.040 87.040c15.36 15.36 25.6 46.080 15.36 66.56-5.12 20.48-25.6 46.080-51.2 51.2s-51.2 0-66.56-15.36l-153.6-153.6c-5.12-5.12-5.12-10.24-10.24-15.36z" />
<glyph unicode="&#xe916;" glyph-name="plus" d="M512 960c-30.72 0-61.44-25.6-61.44-61.44v-394.24h-389.12c-35.84 5.12-61.44-25.6-61.44-56.32s25.6-61.44 61.44-61.44h394.24v-394.24c0-30.72 25.6-61.44 61.44-61.44s61.44 25.6 61.44 61.44v394.24h394.24c30.72 0 61.44 25.6 61.44 61.44s-25.6 61.44-61.44 61.44h-394.24v389.12c-5.12 35.84-35.84 61.44-66.56 61.44z" />
<glyph unicode="&#xe917;" glyph-name="minus" d="M56.32 504.32c-30.72 0-56.32-25.6-56.32-56.32s25.6-56.32 56.32-56.32h916.48c30.72 0 56.32 25.6 56.32 56.32s-25.6 56.32-56.32 56.32h-916.48z" />
<glyph unicode="&#xe918;" glyph-name="hand-luggage" d="M936.96 632.32c0 0 0 5.12 0 5.12s0 0 0 5.12c0 0 0 0 0 0s-5.12 5.12-5.12 5.12c0 0 0 0 0 0s0 0 0 0 0 0-5.12 0h-225.28v174.080c0 76.8-61.44 138.24-138.24 138.24h-97.28c-71.68 0-133.12-61.44-133.12-138.24v-174.080h-225.28c0 0-5.12 0-5.12 0s0 0 0 0 0 0 0 0-5.12 0-5.12-5.12c0 0 0 0 0 0s0 0 0-5.12c0 0 0-5.12 0-5.12s0 0 0 0v-552.96c0-10.24 5.12-15.36 15.36-15.36h92.16c0-5.12 0-10.24 0-20.48 0-56.32 46.080-107.52 107.52-107.52s107.52 51.2 107.52 107.52c0 5.12 0 10.24 0 20.48h179.2c0-5.12 0-10.24 0-20.48 0-61.44 51.2-107.52 107.52-107.52 61.44 0 107.52 51.2 107.52 107.52 0 5.12 0 10.24 0 20.48h97.28c10.24 0 15.36 5.12 15.36 15.36v0l10.24 552.96c0 0 0 0 0 0zM465.92 929.28h92.16c56.32 0 102.4-46.080 102.4-102.4v-174.080h-97.28v168.96c0 10.24-5.12 15.36-15.36 15.36h-71.68c-10.24 0-15.36-5.12-15.36-15.36v-168.96h-97.28v174.080c0 56.32 46.080 102.4 102.4 102.4zM532.48 801.28v-153.6h-40.96v153.6h40.96zM896 616.96l-81.92-199.68h-604.16l-81.92 199.68h768zM312.32-33.28c-40.96 0-76.8 35.84-76.8 76.8 0 5.12 0 10.24 0 20.48h153.6c0-5.12 0-10.24 0-20.48 0-40.96-30.72-76.8-76.8-76.8zM711.68-33.28c-40.96 0-76.8 35.84-76.8 76.8 0 5.12 0 10.24 0 20.48h153.6c0-5.12 0-10.24 0-20.48 0-40.96-35.84-76.8-76.8-76.8zM798.72 94.72v0h-675.84v460.8l61.44-158.72c0-5.12 10.24-10.24 15.36-10.24h624.64c5.12 0 10.24 5.12 15.36 10.24l66.56 158.72v-460.8h-107.52zM450.56 463.36h128c10.24 0 15.36 5.12 15.36 15.36v56.32c0 10.24-5.12 15.36-15.36 15.36h-128c-10.24 0-15.36-10.24-15.36-15.36v-56.32c0-10.24 5.12-15.36 15.36-15.36zM465.92 514.56h92.16v-20.48h-92.16v20.48z" />
<glyph unicode="&#xe919;" glyph-name="luggage" d="M701.44 678.4h-35.84v128c0 87.040-71.68 153.6-153.6 153.6-87.040 0-153.6-71.68-153.6-153.6v-128h-35.84c-61.44 0-112.64-51.2-112.64-112.64v-450.56c0-61.44 51.2-112.64 112.64-112.64v0h15.36v-15.36c0-30.72 25.6-51.2 51.2-51.2 30.72 0 51.2 25.6 51.2 51.2v15.36h128v-15.36c0-30.72 25.6-51.2 51.2-51.2 30.72 0 51.2 25.6 51.2 51.2v15.36h15.36c61.44 0 128 20.48 128 112.64v450.56c-5.12 66.56-51.2 112.64-112.64 112.64zM384 806.4c0 71.68 56.32 128 128 128s128-56.32 128-128v-128h-35.84v128c0 51.2-40.96 92.16-92.16 92.16s-92.16-40.96-92.16-92.16v-128h-35.84v128zM578.56 806.4v0-128h-133.12v128c0 35.84 30.72 66.56 66.56 66.56s66.56-30.72 66.56-66.56zM235.52 565.76c0 46.080 40.96 87.040 87.040 87.040h307.2c-25.6-20.48-40.96-51.2-40.96-87.040v-158.72h-353.28v158.72zM419.84-12.8c0-15.36-10.24-25.6-25.6-25.6s-25.6 10.24-25.6 25.6v15.36h56.32v-15.36h-5.12zM322.56 28.16c-46.080 0-87.040 40.96-87.040 87.040v266.24h353.28v-266.24c0-35.84 15.36-66.56 40.96-87.040h-307.2zM629.76-38.4c-15.36 0-25.6 10.24-25.6 25.6v15.36h56.32v-15.36c-5.12-15.36-15.36-25.6-30.72-25.6zM788.48 115.2c0-46.080-40.96-87.040-87.040-87.040s-87.040 40.96-87.040 87.040v450.56c0 46.080 35.84 87.040 87.040 87.040 46.080 0 87.040-40.96 87.040-87.040v-450.56zM471.040 509.44h-117.76c-5.12 0-10.24-10.24-10.24-15.36v-56.32c0-5.12 5.12-10.24 10.24-10.24h117.76c5.12 0 10.24 5.12 10.24 10.24v56.32c5.12 5.12 0 15.36-10.24 15.36zM460.8 453.12h-92.16v30.72h92.16v-30.72z" />
<glyph unicode="&#xe91a;" glyph-name="adult-filled" d="M887.467 213.333l-213.333 51.2c-25.6 4.267-46.933 25.6-46.933 55.467v42.667c-42.667-17.067-81.067-25.6-123.733-25.6s-81.067 8.533-119.467 25.6v-42.667c0-25.6-17.067-51.2-46.933-55.467l-209.067-55.467c-81.067-17.067-115.2-93.867-123.733-140.8-4.267-21.333-8.533-72.533-8.533-136.533h1015.467c0 64-4.267 115.2-8.533 136.533 0 46.933-29.867 128-115.2 145.067zM631.467 789.333c-4.267-8.533-8.533-17.067-17.067-21.333-29.867-21.333-85.333-25.6-157.867-12.8-68.267 8.533-115.2-8.533-153.6-59.733-21.333-29.867-29.867-64-34.133-76.8 0-136.533 106.667-247.467 238.933-247.467s238.933 115.2 238.933 247.467c-17.067 106.667-85.333 149.333-115.2 170.667zM605.867 490.667c-21.333-25.6-59.733-42.667-93.867-46.933-34.133 0-72.533 17.067-93.867 46.933-4.267 4.267-4.267 12.8 0 17.067s12.8 4.267 17.067 0c21.333-21.333 51.2-34.133 76.8-34.133 29.867 0 59.733 12.8 76.8 34.133 4.267 4.267 12.8 4.267 17.067 0s4.267-12.8 0-17.067zM460.8 789.333c76.8-12.8 115.2-4.267 132.267 8.533 12.8 8.533 12.8 17.067 12.8 17.067 0 4.267 4.267 8.533 8.533 12.8h8.533c4.267-4.267 85.333-29.867 132.267-123.733 0 51.2-12.8 89.6-34.133 119.467-34.133 46.933-89.6 46.933-89.6 46.933-4.267 0-8.533 4.267-12.8 8.533-46.933 64-102.4 85.333-166.4 76.8-102.4-17.067-187.733-110.933-209.067-136.533 12.8-21.333 21.333-59.733 25.6-106.667 34.133 46.933 93.867 93.867 192 76.8z" />
<glyph unicode="&#xe91b;" glyph-name="child-filled" d="M512 596.945c88.436 0 158.255 102.4 158.255 195.491s-65.164 162.909-158.255 162.909-158.255-65.164-158.255-162.909c0-88.436 69.818-195.491 158.255-195.491zM525.964 429.382c0-7.712-6.252-13.964-13.964-13.964s-13.964 6.252-13.964 13.964c0 7.712 6.252 13.964 13.964 13.964s13.964-6.252 13.964-13.964zM525.964 303.709c0-7.712-6.252-13.964-13.964-13.964s-13.964 6.252-13.964 13.964c0 7.712 6.252 13.964 13.964 13.964s13.964-6.252 13.964-13.964zM902.982 420.073c-32.582 69.818-204.8 181.527-265.309 181.527-9.309 0-13.964 0-18.618-4.655-41.891-23.273-79.127-27.927-107.055-27.927s-65.164 4.655-107.055 27.927c-4.655 0-9.309 4.655-18.618 4.655-60.509 0-228.073-111.709-265.309-181.527-13.964-27.927-4.655-46.545 0-51.2 9.309-13.964 23.273-18.618 41.891-18.618 27.927 0 60.509 23.273 97.745 51.2 18.618 13.964 32.582 23.273 51.2 37.236-9.309-69.818-27.927-228.073 23.273-390.982-32.582-9.309-51.2-27.927-55.855-51.2 0-13.964 0-23.273 9.309-32.582 13.964-18.618 41.891-18.618 93.091-18.618h46.545c60.509 0 60.509 55.855 60.509 83.782v125.673c0 0 0 9.309 4.655 9.309 4.655 4.655 4.655 4.655 13.964 4.655 4.655 0 9.309 0 13.964-4.655s4.655-9.309 4.655-9.309v-125.673c0-27.927 4.655-83.782 60.509-83.782h46.545c51.2 0 79.127 4.655 93.091 18.618 9.309 9.309 9.309 18.618 9.309 32.582-4.655 23.273-23.273 41.891-51.2 51.2 51.2 162.909 32.582 321.164 23.273 390.982 18.618-9.309 37.236-23.273 51.2-37.236 37.236-27.927 69.818-51.2 97.745-51.2 18.618 0 32.582 9.309 41.891 18.618 9.309 4.655 18.618 23.273 4.655 51.2zM512 252.509c-27.927 0-51.2 23.273-51.2 51.2s23.273 51.2 51.2 51.2 51.2-23.273 51.2-51.2c0-27.927-23.273-51.2-51.2-51.2zM512 382.836c-27.927 0-51.2 23.273-51.2 51.2s23.273 51.2 51.2 51.2 51.2-23.273 51.2-51.2c0-27.927-23.273-51.2-51.2-51.2z" />
<glyph unicode="&#xe91c;" glyph-name="hand-luggage-filled" d="M460.8 519.68h97.28v-20.48h-97.28v20.48zM486.4 821.76h46.080v-163.84h-46.080v163.84zM455.68 847.36c0 10.24 5.12 15.36 15.36 15.36h76.8c10.24 0 15.36-5.12 15.36-15.36v-179.2h102.4v184.32c0 56.32-46.080 107.52-107.52 107.52h-97.28c-61.44 0-107.52-51.2-107.52-107.52v-184.32h102.4v179.2zM215.040 17.92c0-46.080 35.84-81.92 81.92-81.92 51.2 0 81.92 35.84 81.92 81.92 0 10.24 0 15.36 0 20.48h-163.84c0-10.24 0-15.36 0-20.48zM102.4 627.2l87.040-209.92h645.12l87.040 209.92h-819.2zM593.92 478.72c0-10.24-5.12-15.36-15.36-15.36h-133.12c-10.24 0-15.36 5.12-15.36 15.36v61.44c0 5.12 5.12 15.36 15.36 15.36h138.24c10.24 0 15.36-5.12 15.36-15.36v-61.44zM839.68 381.44h-665.6c-5.12 0-15.36 5.12-15.36 10.24l-61.44 168.96v-491.52h829.44v491.52l-71.68-168.96c-5.12-5.12-10.24-10.24-15.36-10.24zM640 17.92c0-46.080 35.84-81.92 81.92-81.92s81.92 35.84 81.92 81.92c0 10.24 0 15.36 0 20.48h-163.84c0-10.24 0-15.36 0-20.48z" />
<glyph unicode="&#xe91d;" glyph-name="infant-filled" d="M343.040 186.88c-35.84 0-66.56-15.36-87.040-35.84-20.48-25.6-35.84-56.32-35.84-87.040s10.24-56.32 35.84-81.92c25.6-25.6 56.32-35.84 87.040-35.84 35.84 0 66.56 15.36 87.040 35.84 20.48 25.6 35.84 56.32 35.84 87.040 0 35.84-15.36 66.56-35.84 87.040-30.72 20.48-56.32 30.72-87.040 30.72zM680.96 186.88c-35.84 0-66.56-15.36-87.040-35.84-25.6-20.48-35.84-56.32-35.84-87.040 0-35.84 15.36-66.56 35.84-87.040 20.48-25.6 56.32-35.84 87.040-35.84 35.84 0 66.56 15.36 87.040 35.84 25.6 20.48 35.84 56.32 35.84 87.040 0 35.84-15.36 66.56-35.84 87.040-25.6 25.6-51.2 35.84-87.040 35.84zM1008.64 724.48c15.36 0 20.48 5.12 20.48 20.48s-5.12 20.48-20.48 20.48h-158.72c-5.12 0-10.24 0-15.36-5.12l-117.76-122.88h-250.88l-307.2 302.080c-5.12 5.12-20.48 5.12-25.6 0l-25.6-25.6c-71.68-66.56-107.52-153.6-107.52-250.88v-138.24c0-81.92 35.84-163.84 92.16-230.4 56.32-61.44 138.24-92.16 230.4-92.16h435.2c61.44 0 128 25.6 174.080 71.68 30.72 30.72 56.32 71.68 71.68 112.64 15.36 46.080 25.6 92.16 25.6 133.12v97.28c0 5.12 0 10.24-5.12 15.36s-10.24 5.12-15.36 5.12h-240.64l87.040 87.040h153.6zM435.2 724.48c30.72 0 56.32 10.24 76.8 30.72s30.72 46.080 30.72 76.8-15.36 56.32-30.72 76.8c-25.6 25.6-51.2 35.84-76.8 35.84s-61.44-15.36-76.8-30.72c-20.48-20.48-30.72-51.2-30.72-76.8s10.24-56.32 30.72-76.8c15.36-15.36 40.96-30.72 76.8-35.84zM455.68 668.16c0-5.12 0-10.24 5.12-15.36 0 0 5.12 0 10.24 0v0h153.6c10.24 0 10.24 0 15.36 5.12l76.8 76.8c15.36 15.36 25.6 46.080 15.36 66.56-5.12 20.48-25.6 46.080-51.2 51.2s-51.2 0-66.56-15.36l-153.6-153.6c0-5.12 0-10.24-5.12-15.36z" />
<glyph unicode="&#xe91e;" glyph-name="luggage-filled" d="M368.64 483.84h97.28v-30.72h-97.28v30.72zM317.44 663.040c-46.080 0-92.16-40.96-92.16-92.16v-168.96h373.76v168.96c0 35.84 15.36 71.68 40.96 92.16h-322.56zM486.4 494.080v-61.44c0-5.12-5.12-10.24-10.24-10.24h-122.88c-5.12 0-10.24 5.12-10.24 10.24v61.44c0 5.12 5.12 15.36 10.24 15.36h122.88c10.24 5.12 15.36-5.12 10.24-15.36zM368.64-23.040v-15.36c0-15.36 10.24-25.6 25.6-25.6s25.6 10.24 25.6 25.6v15.36h-51.2zM655.36 826.88v-133.12h-40.96v133.12c0 56.32-40.96 97.28-97.28 97.28s-97.28-46.080-97.28-97.28v-133.12h-35.84v133.12c0 71.68 61.44 133.12 133.12 133.12s138.24-61.44 138.24-133.12zM588.8 826.88v-133.12h-138.24v133.12c0 35.84 30.72 71.68 71.68 71.68s66.56-35.84 66.56-71.68zM614.4-23.040v-15.36c0-15.36 5.12-25.6 20.48-25.6s20.48 10.24 20.48 25.6v20.48h-40.96zM716.8 663.040c-56.32 0-92.16-40.96-92.16-92.16v-476.16c0-46.080 40.96-92.16 92.16-92.16 46.080 0 92.16 40.96 92.16 92.16v476.16c0 51.2-40.96 92.16-92.16 92.16zM599.040 99.84v281.6h-373.76v-281.6c0-46.080 40.96-92.16 92.16-92.16h322.56c-25.6 20.48-40.96 51.2-40.96 92.16z" />
<glyph unicode="&#xe91f;" glyph-name="filter" horiz-adv-x="965" d="M524.153 25.243h414.878c12.314 0 22.297 9.965 22.297 22.279 0 12.317-9.983 22.297-22.297 22.297h-414.878c-10.155 44.594-50.082 78.008-97.815 78.008-47.642 0-87.66-33.336-97.815-78.008h-281.118c-12.315 0-22.297-9.98-22.297-22.297 0-12.314 9.982-22.279 22.297-22.279h281.118c10.152-44.608 50.097-78.026 97.815-78.026 47.642 0 87.66 33.353 97.815 78.026zM858.507 426.47h80.513c12.314 0 22.297 9.983 22.297 22.297s-9.983 22.297-22.297 22.297h-80.513c-10.152 44.591-50.079 78.008-97.815 78.008-47.639 0-87.66-33.336-97.812-78.008h-615.454c-12.315 0-22.297-9.983-22.297-22.297s9.982-22.297 22.297-22.297h615.454c10.152-44.594 50.097-78.008 97.812-78.008 47.642 0 87.663 33.336 97.815 78.008zM323.54 827.696h615.453c12.314 0 22.297 9.982 22.297 22.297s-9.983 22.281-22.297 22.281h-615.453c-10.155 44.609-50.099 78.024-97.816 78.024-47.642 0-87.661-33.352-97.815-78.024h-80.512c-12.315 0-22.297-9.966-22.297-22.281s9.982-22.297 22.297-22.297h80.512c10.153-44.593 50.082-78.008 97.815-78.008 47.642 0 87.661 33.336 97.816 78.008z" />
<glyph unicode="&#xe920;" glyph-name="firstclass" d="M682.7 563.2h341.3l-484.7-568.3 143.4 568.3zM363.5 563.2l148.5-583.7 148.5 583.7h-297zM0 563.2l484.7-568.3-143.4 568.3h-341.3zM1024 585.4l-192.9 232.1-134.8-232.1h327.7zM486.4 832.9h-274.8l138.2-235.5 136.6 235.5zM812.4 832.9h-274.8l138.2-235.5 136.6 235.5zM192.9 817.5l-192.9-232.1h329.4l-136.5 232.1zM655.4 585.4l-143.4 247.5-143.4-245.8h286.7v-1.7z" />
<glyph unicode="&#xe921;" glyph-name="business" d="M663.5 846.1c-0.8 10.8-5.8 20.6-13.8 27.9-8 7-18.8 10.8-29.4 10h-216.5c-10.8 0.8-21.4-3-29.4-10s-13.1-17.1-13.8-27.9v-75.9h303.2v75.9h-0.3zM1012.6 721.3c-7 7-16.8 11.1-26.9 11.1h-947.6c-10 0-19.6-4-26.9-11.1-7-7-11.1-16.8-11.1-26.9v-246.4h189.6v37.9c0 10.5 8.5 18.8 18.8 18.8h75.9c5 0 9.8-2 13.3-5.5s5.5-8.3 5.5-13.3v-37.9h417v37.9c0 10.5 8.5 18.8 18.8 18.8h75.9c5 0 9.8-2 13.3-5.5s5.5-8.3 5.5-13.3v-37.9h189.6v246.4c0.4 10-3.6 19.6-10.7 26.9zM758.2 466.8h37.9v-75.9h-37.9v75.9zM227.4 466.8h37.9v-75.9h-37.9v75.9zM834 372.1c0-5-2-9.8-5.5-13.3s-8.3-5.5-13.3-5.5h-75.9c-5 0-9.8 2-13.3 5.5s-5.5 8.3-5.5 13.3v37.9h-417v-37.9c0-5-2-9.8-5.5-13.3s-8.3-5.5-13.3-5.5h-75.9c-5 0-9.8 2-13.3 5.5s-5.5 8.3-5.5 13.3v37.9h-189.6v-284.3c0-10 4-19.6 11.1-26.9 7-7 16.8-11.1 26.9-11.1h947.6c10 0 19.6 4 26.9 11.1 7.3 7 11.1 16.8 11.1 26.9v284.4h-189.7v-37.9h-0.3z" />
<glyph unicode="&#xe922;" glyph-name="economy-premium" d="M468.2 911.7l-126.7-267.6-293.6-37.7c-21-2.7-38.6-17.4-45.2-37.4-6.6-20.1-0.9-42.2 14.7-56.9l215.5-203.2-54.8-290.9c-3.9-21 4.5-42.2 21.6-54.5 17.1-12.6 40.1-14.1 58.7-3.9l259.8 141.9 259.8-141.9c18.6-10.2 41.3-8.7 58.7 3.9 17.1 12.6 25.7 33.8 21.6 54.5l-54.8 290.9 215.5 203.2c15.6 14.7 21 36.8 14.7 56.9-6.6 20.1-24.2 34.7-45.2 37.4l-293.6 37.7-126.8 267.6c-9.6 19.2-29 31.4-50.3 31.4s-40.4-12.2-49.6-31.4v0z" />
<glyph unicode="&#xe923;" glyph-name="economy-class" d="M56.9 713.5c-31.5 0-56.9-25.4-56.9-56.9v-56.9c63.1 0 113.8 50.7 113.8 113.8h-56.9zM151.7 713.5c0-83.6-68.1-151.7-151.7-151.7v-379.3c83.6 0 151.7-68.1 151.7-151.7h94.8v294.8c-19-11-41.9-13.3-62.7-6.2-14.6 5-27.3 14.4-36.4 26.8s-14.3 27.4-14.7 42.8c-0.4 15.4 3.9 30.6 12.3 43.5s20.6 23 34.9 28.8c21.7 8.8 46.2 7.1 66.5-4.6v256.8h-94.7zM284.5 713.5v-682.7h455.1v682.7h-455.1zM537.3 580.7l126.4-126.4-63.2-63.2-126.4 126.5 63.2 63.1zM436.2 277.3l75.8-132.7h-151.7l75.9 132.7zM777.5 713.5v-682.7h94.8c0 83.6 68.1 151.7 151.7 151.7v379.3c-83.6 0-151.7 68.1-151.7 151.7h-94.8zM910.2 713.5c0-63.1 50.7-113.8 113.8-113.8v56.9c0 31.5-25.4 56.9-56.9 56.9h-56.9zM0 144.6v-56.9c0-31.5 25.4-56.9 56.9-56.9h56.9c0 63.1-50.7 113.8-113.8 113.8zM1024 144.6c-63.1 0-113.8-50.7-113.8-113.8h56.9c31.5 0 56.9 25.4 56.9 56.9v56.9zM379.3 903.1c-31.2 0-56.9-25.7-56.9-56.9v-94.8h37.9v94.8c0 10.7 8.3 19 19 19h265.5c10.7 0 19-8.3 19-19v-94.8h37.9v94.8c0 31.2-25.7 56.9-56.9 56.9h-265.5zM341.3 827.3v-37.9h341.3v37.9h-341.3z" />
<glyph unicode="&#xe924;" glyph-name="calendar" d="M962.56 806.4h-71.68v25.6c0 10.24-5.12 20.48-10.24 30.72-5.12 5.12-15.36 10.24-30.72 10.24h-56.32c-10.24 0-20.48-5.12-30.72-10.24-5.12-5.12-10.24-15.36-10.24-30.72v-25.6h-174.080v25.6c0 10.24-5.12 20.48-10.24 30.72-5.12 5.12-15.36 10.24-30.72 10.24h-51.2c-10.24 0-20.48-5.12-30.72-15.36-5.12-5.12-10.24-15.36-10.24-25.6v-25.6h-179.2v25.6c0 10.24 0 20.48-10.24 25.6-5.12 10.24-15.36 15.36-25.6 15.36h-56.32c-10.24 0-20.48-5.12-30.72-15.36-5.12-5.12-10.24-15.36-10.24-25.6v-25.6h-71.68c-15.36 0-30.72-10.24-46.080-20.48-10.24-10.24-15.36-25.6-15.36-40.96v-655.36c0-15.36 5.12-30.72 15.36-40.96s25.6-15.36 40.96-15.36h901.12c15.36 0 30.72 5.12 40.96 15.36s15.36 25.6 15.36 40.96v655.36c0 15.36-5.12 30.72-15.36 40.96-5.12 10.24-20.48 20.48-35.84 20.48v0zM849.92 832v-92.16h-56.32v92.16h56.32zM537.6 832v-92.16h-56.32v92.16h56.32zM230.4 832v-92.16h-56.32v92.16h56.32zM61.44 765.44h71.68v-25.6c0-10.24 5.12-20.48 10.24-30.72 10.24-5.12 20.48-10.24 30.72-10.24h56.32c10.24 0 20.48 5.12 25.6 10.24s10.24 15.36 10.24 30.72v25.6h174.080v-25.6c0-10.24 5.12-20.48 10.24-30.72 15.36-5.12 25.6-10.24 35.84-10.24h56.32c10.24 0 20.48 5.12 30.72 10.24 5.12 5.12 10.24 15.36 10.24 30.72v25.6h174.080v-25.6c0-10.24 5.12-20.48 10.24-30.72 5.12-5.12 15.36-10.24 30.72-10.24h56.32c10.24 0 20.48 5.12 30.72 10.24 5.12 5.12 10.24 15.36 10.24 30.72v25.6h71.68c5.12 0 10.24 0 15.36-5.12s5.12-10.24 5.12-15.36v-92.16h-947.2v92.16c0 10.24 10.24 20.48 20.48 20.48v0zM962.56 64h-901.12c-10.24 0-20.48 10.24-20.48 20.48v527.36h942.080v-522.24c0-15.36-10.24-25.6-20.48-25.6v0zM901.12 545.28h-112.64c-10.24 0-20.48-5.12-30.72-10.24-10.24-10.24-10.24-20.48-10.24-30.72v-66.56c0-10.24 5.12-20.48 10.24-30.72 10.24-10.24 20.48-10.24 30.72-10.24h112.64c10.24 0 20.48 5.12 30.72 10.24 10.24 10.24 10.24 20.48 10.24 30.72v66.56c0 10.24-5.12 20.48-10.24 30.72-5.12 5.12-20.48 10.24-30.72 10.24v0zM906.24 437.76c0-5.12 0-5.12 0 0l-112.64-5.12c0 0-5.12 0-5.12 5.12v66.56c0 0 0 5.12 5.12 5.12h112.64c0 0 5.12 0 5.12-5.12v-66.56zM256 284.16h-112.64c-10.24 0-20.48-5.12-30.72-10.24-5.12-10.24-10.24-20.48-10.24-35.84v-66.56c0-10.24 5.12-20.48 10.24-30.72 10.24-10.24 20.48-10.24 30.72-10.24h112.64c10.24 0 20.48 5.12 30.72 10.24 10.24 10.24 10.24 20.48 10.24 30.72v66.56c0 10.24-5.12 20.48-10.24 30.72-10.24 10.24-20.48 15.36-30.72 15.36v0zM261.12 171.52v0c0 0-5.12 0 0 0l-112.64-5.12c0 0-5.12 0-5.12 5.12v66.56c0 0 0 5.12 5.12 5.12h107.52c0 0 5.12 0 5.12-5.12v-66.56zM578.56 284.16h-107.52c-10.24 0-20.48-5.12-30.72-10.24-10.24-10.24-10.24-20.48-10.24-30.72v-66.56c0-10.24 5.12-20.48 10.24-30.72 10.24-10.24 20.48-10.24 30.72-10.24h112.64c10.24 0 20.48 5.12 30.72 10.24 10.24 10.24 10.24 20.48 10.24 30.72v66.56c0 10.24-5.12 20.48-10.24 30.72-15.36 5.12-25.6 10.24-35.84 10.24zM583.68 171.52v0c0 0-5.12 0 0 0l-112.64-5.12c0 0-5.12 0-5.12 5.12v66.56c0 0 0 5.12 5.12 5.12h112.64c0 0 5.12 0 5.12-5.12v-66.56zM901.12 284.16h-112.64c-10.24 0-20.48-5.12-30.72-10.24-10.24-10.24-10.24-20.48-10.24-30.72v-66.56c0-10.24 5.12-20.48 10.24-30.72 10.24-10.24 20.48-10.24 30.72-10.24h112.64c10.24 0 20.48 5.12 30.72 10.24 10.24 10.24 10.24 20.48 10.24 30.72v66.56c0 10.24-5.12 20.48-10.24 30.72-5.12 5.12-20.48 10.24-30.72 10.24v0zM906.24 171.52v0c0 0 0 0 0 0l-112.64-5.12c0 0-5.12 0-5.12 5.12v66.56c0 0 0 5.12 5.12 5.12h112.64c0 0 5.12 0 5.12-5.12v-66.56zM522.24 376.32v0c25.6 0 46.080 10.24 66.56 25.6 15.36 15.36 25.6 40.96 25.6 66.56s-10.24 46.080-25.6 66.56c-15.36 15.36-40.96 25.6-66.56 25.6-20.48 0-46.080-10.24-61.44-25.6-20.48-15.36-30.72-40.96-30.72-66.56s10.24-46.080 25.6-66.56c20.48-15.36 46.080-25.6 66.56-25.6v0zM522.24 519.68v0c15.36 0 25.6-5.12 35.84-15.36s15.36-25.6 15.36-35.84c0-15.36-5.12-25.6-15.36-35.84s-25.6-15.36-35.84-15.36c-15.36 0-25.6 5.12-35.84 15.36s-15.36 25.6-15.36 35.84c0 15.36 5.12 25.6 15.36 35.84s25.6 15.36 35.84 15.36v0zM199.68 376.32c25.6 0 46.080 10.24 66.56 25.6 15.36 15.36 25.6 40.96 25.6 66.56s-10.24 51.2-25.6 66.56c-15.36 15.36-40.96 25.6-66.56 25.6s-46.080-10.24-66.56-25.6c-15.36-15.36-25.6-40.96-25.6-66.56s10.24-46.080 25.6-66.56c20.48-15.36 40.96-25.6 66.56-25.6v0zM199.68 519.68v0c15.36 0 25.6-5.12 35.84-15.36 10.24-5.12 20.48-20.48 20.48-35.84s-5.12-25.6-15.36-35.84c-10.24-10.24-25.6-15.36-35.84-15.36-15.36 0-25.6 5.12-35.84 15.36-15.36 10.24-20.48 20.48-20.48 35.84s5.12 30.72 15.36 35.84 20.48 15.36 35.84 15.36v0z" />
<glyph unicode="&#xe925;" glyph-name="location--filled" d="M512 960c-209.1 0-378.5-169.5-378.5-378.5 0-70.2 19.1-136.1 52.5-192.5l208.4-382.5c22.4-42 66.7-70.5 117.6-70.5s95.2 28.5 117.6 70.5l208.4 382.5c33.3 56.4 52.5 122.2 52.5 192.5 0 209-169.4 378.5-378.5 378.5zM512 714.9c73.6 0 133.5-59.8 133.5-133.5 0-73.8-59.8-133.5-133.5-133.5s-133.5 59.7-133.5 133.5c0 73.7 59.9 133.5 133.5 133.5z" />
<glyph unicode="&#xe926;" glyph-name="clock--filled" d="M512 960v0c282.6 0 512-229.4 512-512s-229.4-512-512-512c-282.6 0-512 229.4-512 512s229.4 512 512 512zM443.7 686v-288.3c0-15.3 10.2-28.8 25-32.9l195.5-54.2c18.2-5.1 37 5.6 42 23.8 5.1 18.2-5.6 37-23.8 42l-170.4 47.2v262.4c0 18.8-15.3 34.1-34.1 34.1-18.9 0-34.2-15.3-34.2-34.1v0z" />
<glyph unicode="&#xe927;" glyph-name="calendar--filled" d="M951.5 667.4h64.9c4 0 7.3 3 7.3 6.6v0c0 85.4-76 154.7-169.7 154.7h-13.8v31.3c0 18.3-15.1 34.8-35.2 35.7-21.4 1-39.1-14.5-39.1-33.8v-33.2h-216.7v31.3c0 18.3-15.1 34.8-35.2 35.7-21.4 1-39.1-14.5-39.1-33.8v-33.2h-216.7v31.3c0 18.3-15.1 34.8-35.2 35.7-21.4 1-39.1-14.5-39.1-33.8v-33.2h-13.8c-93.8-0.1-169.7-69.3-169.7-154.7v0c0-3.6 3.3-6.6 7.3-6.6h943.8zM72.5 612.5h-59.7c-6.9 0-12.5-5.1-12.5-11.4v-480.1c0.1-81.7 72.8-148 162.5-148h698.3c89.7 0 162.5 66.3 162.5 148.1v480c0 6.3-5.6 11.4-12.5 11.4h-938.6zM777.9 481.5c36.8 0 66.7-27.2 66.7-60.7s-29.9-60.8-66.7-60.8c-36.8 0-66.7 27.2-66.7 60.7s30 60.8 66.7 60.8zM777.9 269.9c36.8 0 66.7-27.2 66.7-60.7s-29.9-60.7-66.7-60.7c-36.8 0-66.7 27.2-66.7 60.7s30 60.7 66.7 60.7zM512 481.5c36.8 0 66.7-27.2 66.7-60.7s-29.9-60.8-66.7-60.8-66.7 27.2-66.7 60.7 29.9 60.8 66.7 60.8zM512 269.9c36.8 0 66.7-27.2 66.7-60.7s-29.9-60.7-66.7-60.7-66.7 27.2-66.7 60.7 29.9 60.7 66.7 60.7zM246.1 481.5c36.8 0 66.7-27.2 66.7-60.7s-30-60.8-66.7-60.8-66.7 27.2-66.7 60.7 29.9 60.8 66.7 60.8zM246.1 269.9c36.8 0 66.7-27.2 66.7-60.7s-29.9-60.7-66.7-60.7-66.7 27.2-66.7 60.7 29.9 60.7 66.7 60.7z" />
</font>
</defs>
</svg>
